<svg width="181" height="91" viewBox="0 0 181 91" fill="none" xmlns="http://www.w3.org/2000/svg">
<g id="craftsman logo 1" clip-path="url(#clip0_207_989)">
<g id="Group">
<g id="Group_2">
<path id="Vector" d="M151.696 48.6019H32.3262V50.4499H151.696V48.6019Z" fill="white"/>
<path id="Vector_2" d="M103.601 47.942L106.545 45.0908L101.42 47.3348L106.177 42.2396L99.4225 46.7012L101.078 43.1372L97.3726 45.9092L99.4751 40.5236L95.2963 45.6188L95.0072 42.1076L93.1413 45.6188L92.0112 39.0717L90.9073 45.6188L89.0414 42.1076L88.7523 45.6188L84.5735 40.5236L86.6498 45.9092L82.9704 43.1372L84.5998 46.7012L77.8718 42.2396L82.6024 47.3348L77.5038 45.0908L80.4211 47.942L73.22 45.5132L78.7916 48.602H92.0112H105.231L110.829 45.5132L103.601 47.942Z" fill="white"/>
<g id="Group_3">
<path id="Vector_3" d="M93.0887 29.6205H92.4054H91.5907H91.3804H86.203L90.6183 34.082H91.3804H91.5907H92.4054H93.0887H93.3778L97.7931 29.6205H93.0887ZM92.5368 33.5276H92.458H92.2477H92.0112H91.9849H91.5118L90.2766 30.1749H91.9849H92.0375H92.274H92.458H93.772L92.5368 33.5276Z" fill="white"/>
<path id="Vector_4" d="M96.8207 27.007H87.3331C86.86 27.007 86.4658 27.403 86.4658 27.8781C86.4658 28.3533 86.86 28.7493 87.3331 28.7493H96.8207C97.2938 28.7493 97.688 28.3533 97.688 27.8781C97.688 27.403 97.2938 27.007 96.8207 27.007Z" fill="white"/>
<g id="Group_4">
<g id="Group_5">
<path id="Vector_5" d="M96.7682 26.0566L98.2925 23.6014H89.6196L89.935 26.0566H96.7682Z" fill="white"/>
<path id="Vector_6" d="M87.2806 26.0566L85.7562 23.6014H88.253L89.4619 26.0566H87.2806Z" fill="white"/>
</g>
</g>
<path id="Vector_7" d="M103.128 0H80.8942V1.76878H103.128V0Z" fill="white"/>
<path id="Vector_8" d="M87.2279 9.92627H84.9152V22.2814H87.2279V9.92627Z" fill="white"/>
<path id="Vector_9" d="M97.7931 9.92627H88.6208V22.2814H97.7931V9.92627Z" fill="white"/>
<path id="Vector_10" d="M99.0021 1.7688H98.3976V22.2814H99.0021V1.7688Z" fill="white"/>
<path id="Vector_11" d="M100.421 1.7688H83.4961C82.9179 1.7688 82.4448 2.24399 82.4448 2.82479V10.6655C82.4448 11.2463 82.9179 11.7215 83.4961 11.7215H100.421C100.999 11.7215 101.473 11.2463 101.473 10.6655V2.82479C101.473 2.24399 100.999 1.7688 100.421 1.7688ZM100.658 10.1639C100.658 10.4543 100.421 10.6919 100.132 10.6919H99.5277C99.2386 10.6919 99.0021 10.4543 99.0021 10.1639V3.32639C99.0021 3.03599 99.2386 2.79839 99.5277 2.79839H100.132C100.421 2.79839 100.658 3.03599 100.658 3.32639V10.1639Z" fill="white"/>
</g>
</g>
<g id="Group_6">
<path id="Vector_12" d="M16.347 75.8466C14.7964 74.0778 12.9042 73.1274 10.5914 73.1274C6.80688 73.1274 3.88965 76.5066 3.88965 80.229C3.88965 84.3737 6.7806 87.4097 10.8542 87.4097C13.0881 87.4097 14.9016 86.3801 16.3733 84.7169V89.6801C14.6125 90.6305 12.8516 91.0265 10.8279 91.0265C4.86206 91.0001 0 86.4329 0 80.3874C0 74.1306 4.8095 69.4843 11.0119 69.4843C12.8253 69.4843 14.7964 69.9066 16.347 70.8306V75.8466Z" fill="white"/>
<path id="Vector_13" d="M25.7295 73.365H25.8609C26.807 70.989 28.7781 69.4843 31.38 69.4843C32.5101 69.4843 33.6139 69.8802 34.56 70.4874L32.7992 74.025C32.1158 73.4178 31.3274 73.2066 30.4338 73.2066C26.2551 73.2066 25.7295 77.0874 25.7295 80.3874V90.3401H21.8661V70.1178H25.7295V73.365Z" fill="white"/>
<path id="Vector_14" d="M56.689 90.3137H52.8256V87.1457H52.7467C51.1961 89.4425 48.7783 91.0001 45.9136 91.0001C39.7637 91.0001 36.2683 85.8521 36.2683 80.0706C36.2683 74.5266 39.9214 69.4843 45.7822 69.4843C48.752 69.4843 51.1699 71.0418 52.7467 73.4706H52.8256V70.0914H56.689V90.3137ZM53.0358 80.2026C53.0358 76.269 50.6705 72.9426 46.4918 72.9426C42.497 72.9426 40.1317 76.4538 40.1317 80.2026C40.1317 84.0041 42.4182 87.5417 46.4918 87.5417C50.6968 87.5417 53.0358 84.1889 53.0358 80.2026Z" fill="white"/>
<path id="Vector_15" d="M72.7994 58.6075C72.0373 58.2643 71.0386 57.7891 70.2239 57.7891C67.4643 57.7891 67.4643 59.3995 67.4643 61.4059V70.0914H72.7994V73.7346H67.4643V90.34H63.6009V73.7346H61.8401V70.0914H63.6009V62.1187C63.6009 57.7099 65.099 54.1724 70.0924 54.1724C71.0386 54.1724 71.9321 54.3572 72.7994 54.7004V58.6075Z" fill="white"/>
<path id="Vector_16" d="M80.1583 90.3136H76.2949V73.7081H74.1924V70.065H76.2949V62.3298H80.1583V70.065H83.9428V73.7081H80.1583V90.3136Z" fill="white"/>
<path id="Vector_17" d="M95.2175 74.7114C94.7444 73.7082 93.7457 72.9426 92.6419 72.9426C91.5644 72.9426 90.5394 73.8138 90.5394 74.9226C90.5394 76.6914 92.8522 77.4834 95.2175 78.5658C97.5828 79.6482 99.8693 81.1265 99.8693 84.3209C99.8693 88.1753 96.6892 91.0265 92.931 91.0265C90.0138 91.0265 87.044 89.3369 85.9664 86.4857L89.2779 84.9809C90.0926 86.4857 91.0913 87.5681 92.931 87.5681C94.5604 87.5681 95.9796 86.4329 95.9796 84.7169C95.9796 83.6345 95.454 83.1065 94.5604 82.4993L90.7759 80.4665C88.542 79.2522 86.9126 78.1434 86.9126 75.3714C86.9126 72.0978 89.5933 69.4843 92.8522 69.4843C95.2963 69.4843 97.2937 70.8306 98.3712 73.0218L95.2175 74.7114Z" fill="white"/>
<path id="Vector_18" d="M108.463 72.6259H108.542C109.672 70.8571 111.696 69.4579 113.877 69.4579C116.505 69.4579 118.398 70.8043 119.685 73.0483C120.921 70.8835 123.339 69.4579 125.888 69.4579C131.17 69.4579 132.563 73.6027 132.563 78.1962V90.3137H128.7V78.8562C128.7 76.269 128.358 72.9427 124.968 72.9427C120.842 72.9427 120.527 77.2722 120.527 80.3874V90.3401H116.663V79.6218C116.663 76.9818 116.532 72.9691 112.957 72.9691C108.831 72.9691 108.49 77.2458 108.49 80.4138V90.3665H104.6V70.1443H108.463V72.6259Z" fill="white"/>
<path id="Vector_19" d="M157.715 90.3137H153.851V87.1457H153.746C152.196 89.4425 149.778 91.0001 146.913 91.0001C140.763 91.0001 137.268 85.8521 137.268 80.0706C137.268 74.5266 140.921 69.4843 146.782 69.4843C149.751 69.4843 152.169 71.0418 153.746 73.4706H153.825V70.0914H157.688V90.3137H157.715ZM154.062 80.2026C154.062 76.269 151.696 72.9426 147.517 72.9426C143.523 72.9426 141.157 76.4538 141.157 80.2026C141.157 84.0041 143.444 87.5417 147.517 87.5417C151.749 87.5417 154.062 84.1889 154.062 80.2026Z" fill="white"/>
<path id="Vector_20" d="M167.702 72.8106H167.78C168.989 70.6458 171.407 69.4843 173.851 69.4843C179.528 69.4843 181 73.3386 181 78.249V90.3137H177.137V78.7242C177.137 75.2658 176.664 72.9426 172.695 72.9426C167.702 72.9426 167.702 77.3514 167.702 81.0209V90.3137H163.838V70.0914H167.702V72.8106Z" fill="white"/>
</g>
</g>
</g>
<defs>
<clipPath id="clip0_207_989">
<rect width="181" height="91" fill="white"/>
</clipPath>
</defs>
</svg>
