<svg width="52" height="53" viewBox="0 0 52 53" fill="none" xmlns="http://www.w3.org/2000/svg">
<path id="Vector" d="M44.1025 45.2027C49.04 40.3156 51.5058 34.1075 51.5 26.5782C51.4942 19.0489 49.0052 12.8203 44.033 7.89233C39.191 3.16316 32.719 0.513132 25.9793 0.500048C19.2395 0.486964 12.7575 3.11183 7.89747 7.82217C2.96002 12.6975 0.494212 18.9027 0.500006 26.4379C0.505805 33.973 2.99481 40.2016 7.96702 45.1237C12.8141 49.8419 19.2831 52.4852 26.019 52.4999C32.7549 52.5147 39.2352 49.8997 44.1025 45.2027ZM43.5462 26.4554C43.6049 28.7268 43.1788 30.9844 42.297 33.0752C41.4151 35.166 40.098 37.0412 38.4349 38.5736C36.0243 40.8703 33.0045 42.4117 29.7422 43.0105L29.7422 10.0143C32.9985 10.5987 36.0176 12.1214 38.4349 14.3986C40.0987 15.9173 41.417 17.7813 42.2993 19.8624C43.1816 21.9436 43.607 24.1928 43.5462 26.4554ZM8.46251 26.5957C8.40217 24.3249 8.82658 22.0675 9.70697 19.9767C10.5874 17.8859 11.9031 16.0104 13.5651 14.4775C15.978 12.1841 18.9968 10.6433 22.2578 10.0406L22.2578 43.0281C19.0018 42.4427 15.983 40.9201 13.5651 38.6438C11.9008 37.124 10.5828 35.2584 9.70193 33.1755C8.82104 31.0926 8.39821 28.8418 8.46251 26.5782L8.46251 26.5957Z" fill="white"/>
</svg>
