<?xml version="1.0" encoding="UTF-8"?>
<svg version="1.1" viewBox="0 0 1600 536" width="1280" height="1280" xmlns="http://www.w3.org/2000/svg">
<path transform="translate(596 192)" d="m0 0c2.89 1.1 4.47 2.73 6.67 4.91 1.32 1.3 1.32 1.3 2.67 2.63 0.96 0.95 1.91 1.91 2.87 2.86 0.98 0.98 1.96 1.95 2.95 2.93 2.05 2.04 4.11 4.09 6.15 6.14 2.63 2.64 5.28 5.25 7.93 7.86 2.03 2.01 4.05 4.03 6.07 6.05 0.97 0.97 1.95 1.94 2.93 2.9 1.36 1.34 2.71 2.7 4.05 4.06 0.78 0.77 1.55 1.54 2.34 2.33 1.53 2.15 1.53 2.15 1.27 4.43-0.25 0.57-0.49 1.13-0.74 1.72l-1-3c-0.37 0.93-0.37 0.93-0.75 1.87-1.51 2.56-2.65 2.83-5.25 4.13-2.23 2.53-2.23 2.53-4 5 2.86 2.69 2.86 2.69 6 5 2.1-0.4 2.1-0.4 4-1 2.31 1.69 2.31 1.69 4 4-0.32 3.86-2.54 6.21-4.94 9.12-0.71 0.87-1.42 1.74-2.15 2.64-1.91 2.24-1.91 2.24-3.91 4.24h-3l-1 3-4-1v-2l-4-2 1-5-5-3c-3.94 8.24-5.19 14.9-5 24h1c0.11 0.6 0.22 1.2 0.33 1.83 0.16 0.8 0.32 1.59 0.48 2.42 0.15 0.79 0.3 1.58 0.46 2.39 0.81 2.62 2.04 4.21 3.73 6.36 0.43-0.43 0.85-0.86 1.29-1.3 1.95-1.94 3.92-3.85 5.89-5.76 0.68-0.68 1.35-1.36 2.05-2.05 0.66-0.64 1.32-1.27 2-1.93 0.6-0.59 1.2-1.18 1.82-1.79 1.95-1.17 1.95-1.17 4.49-0.99 3.44 1.15 5.88 3.24 8.58 5.57 0.53 0.43 1.05 0.86 1.59 1.3 3.15 2.67 5.64 5.13 7.29 8.95-0.01 2.55-0.01 2.55-1 5-2.18 2.13-2.18 2.13-4.88 4.12-4.33 3.15-4.33 3.15-8.12 6.88v2c1.87 0.56 3.74 1.1 5.62 1.62 1.57 0.46 1.57 0.46 3.17 0.92 3.86 0.55 5.7 0.16 9.21-1.54 2.11-1.84 3.98-3.6 5.87-5.63 0.5-0.51 1-1.03 1.51-1.56 1.21-1.26 2.42-2.54 3.62-3.81-1.34-4.62-2.52-6.82-6.41-9.78-2.41-1.86-4.47-4.04-6.59-6.22l-2-2c0.25-3.79 2.28-5.54 5-8 3 1.34 4.99 2.8 7.25 5.19 3.72 3.84 7.68 7.34 11.8 10.8l4-2c-0.31-0.77-0.62-1.53-0.94-2.31-0.74-1.88-1.43-3.78-2.06-5.69-0.96-0.47-0.96-0.47-1.94-0.94-2.56-1.32-2.8-2.54-4.06-5.06-2.04-1.27-2.04-1.27-4-2 0.54-4.16 1.81-6.5 4.43-9.75 0.62-0.78 1.24-1.56 1.88-2.36 1.69-1.89 1.69-1.89 3.69-2.89-1.38-5.7-5.72-8.42-10-12-2.43-2.3-4.71-4.67-6.92-7.18-4.91-5.58-10-10.7-15.6-15.6-2.25-2.01-4.45-3.99-6.48-6.22v-2c-0.99-0.33-1.98-0.66-3-1-1.69-1.44-1.69-1.44-3-3v-2c-0.56-0.23-1.12-0.46-1.69-0.69-2.97-1.69-5.03-3.78-7.31-6.31v-2c-0.58-0.25-1.16-0.5-1.75-0.75-2.58-1.43-4.31-3.04-6.25-5.25v-2h-2c-0.63-2.88-0.63-2.88-1-6l2-2c3.97 0.28 5.95 1.45 8.71 4.23 0.7 0.69 1.39 1.38 2.11 2.1 1.13 1.14 1.13 1.14 2.27 2.31 1.2 1.2 1.2 1.2 2.43 2.42 2.64 2.65 5.27 5.31 7.9 7.97 1.83 1.84 3.66 3.68 5.5 5.51 4.32 4.35 8.64 8.7 13 13 4.91 4.96 9.84 9.91 14.8 14.8 10.1 10.2 20.2 20.4 30.4 30.6 0.62-0.5 1.23-0.99 1.87-1.5 2.13-1.5 2.13-1.5 4.13-1.5l1-3h2l1-3h2l1-3c2.12-0.83 2.12-0.83 5-1 2.27 1.66 4.04 3.2 5.99 5.19 0.55 0.55 1.1 1.09 1.67 1.65 1.15 1.16 2.31 2.32 3.45 3.49 1.76 1.79 3.54 3.54 5.33 5.29 1.12 1.13 2.24 2.26 3.36 3.39 0.54 0.52 1.07 1.04 1.63 1.58 2.36 2.46 3.57 3.73 3.55 7.21-0.98 2.2-0.98 2.2-3.48 3.32-0.83 0.29-1.65 0.58-2.5 0.88l-1 3c-1.63 1.71-3.3 3.37-5 5l-2 2c0.92 0.82 0.92 0.82 1.87 1.65 2.73 2.43 5.43 4.88 8.13 7.35 0.89 0.81 1.78 1.62 2.7 2.46 0.82 0.78 1.64 1.55 2.48 2.35 0.76 0.71 1.52 1.42 2.3 2.15 1.52 2.04 1.52 2.04 1.32 4.24-0.8 1.8-0.8 1.8-1.8 2.8-0.67 0.8-0.67 0.8-1.34 1.63-0.79 0.95-0.79 0.95-1.6 1.93-0.53 0.64-1.05 1.28-1.59 1.94-0.73 0.74-0.73 0.74-1.47 1.5h-2c-0.23 0.55-0.46 1.11-0.69 1.69-1.67 2.94-3.87 4.99-6.31 7.31-2.97-1.35-5.14-2.85-7.5-5.08-0.64-0.61-1.28-1.21-1.94-1.83-0.99-0.94-0.99-0.94-2-1.9-0.66-0.62-1.31-1.24-1.99-1.87-1.87-1.77-3.72-3.54-5.57-5.32-0.53-0.49-1.05-0.99-1.59-1.5-1.18-1.13-2.3-2.31-3.41-3.5v-2c-0.99-0.33-1.98-0.66-3-1v-2c-0.56-0.23-1.12-0.46-1.69-0.69-2.97-1.69-5.03-3.78-7.31-6.31v-2h-3c-0.34 0.83-0.34 0.83-0.69 1.69-1.69 2.97-3.78 5.03-6.31 7.31h-2c-0.34 0.86-0.34 0.86-0.69 1.75-1.66 2.84-3.73 4.18-6.31 6.25-1.82 1.97-3.56 4-5.3 6.03-5.76 6.65-5.76 6.65-9.7 7.97-0.44 0.86-0.44 0.86-0.88 1.75-1.84 3.69-4.59 6.5-8.31 8.31-2.38 1.23-2.69 2.55-3.81 4.94-2 2.25-2 2.25-4 4h-2c-0.23 0.55-0.46 1.11-0.69 1.69-2.48 4.37-6.4 7.39-10.2 10.6-3.46 2.99-6.38 6.22-9.33 9.71-2.44 2.69-5.16 4.97-7.93 7.3-1.78 1.6-3.25 3.25-4.74 5.12-0.7 0.84-1.4 1.69-2.12 2.56h-2c-0.21 0.55-0.42 1.11-0.63 1.69-1.52 2.55-3.34 3.99-5.65 5.81-2.68 2.34-4.86 5.08-7.11 7.83-1.61 1.67-1.61 1.67-4.61 2.67l-1 3c-1.75 1.68-1.75 1.68-3.88 3.44-2.23 1.84-4.04 3.44-5.76 5.78-0.45 0.59-0.9 1.17-1.36 1.78h-2c-0.23 0.55-0.46 1.11-0.69 1.69-2.27 3.99-4.93 6.85-9.31 8.31l-1 3c-3.46-1.48-5.65-3.44-8.25-6.13-0.71-0.72-1.42-1.45-2.14-2.19-0.8-0.83-0.8-0.83-1.61-1.68-2.83 1.28-4.23 2.24-6.44 4.56-2.75 2.62-3.81 3.44-7.56 3.44-3.14-1.17-5.3-2.15-7.44-4.75-0.87-3.49-0.52-5.78 0.44-9.25 1.83-2.32 3.76-4.05 6-6-1.48-5.11-4.59-7.94-8.32-11.5-0.56-0.56-1.13-1.11-1.72-1.69-1.12-1.09-2.25-2.18-3.37-3.27-2.23-2.15-4.41-4.35-6.59-6.54l-2.25-2.25c-1.66-1.66-3.32-3.33-4.96-5-0.8-0.8-1.6-1.61-2.42-2.44-0.75-0.77-1.51-1.53-2.29-2.32-2.12-2.14-2.12-2.14-5.08-3.99-0.73 0.74-0.73 0.74-1.46 1.49-0.64 0.64-1.27 1.29-1.92 1.95-0.94 0.95-0.94 0.95-1.9 1.93-2.28 2.15-3.39 2.59-6.54 2.94-3.98-0.39-5.45-1.43-8.18-4.31-1.12-2.9-1.15-4.44-0.38-7.44 1.76-3.28 3.91-5.77 6.38-8.56-1.55-2.78-2.9-4.9-5.25-7.06-0.87-0.96-0.87-0.96-1.75-1.94 0.55-4.54 3.57-7.11 6.68-10.2 0.87-0.86 0.87-0.86 1.75-1.73 15.2-14.6 33.4-21.2 54.3-21.1 3.39 0.07 6.75 0.31 10.1 0.67 0.74 0.08 1.49 0.16 2.25 0.24 7.49 0.9 14.8 2.59 22.1 4.26 9.79 2.23 18.8 3.8 28.8 2.88-1.57-17.8-9.65-33.9-17-49.9-0.76-1.65-0.76-1.65-1.53-3.35-0.45-0.98-0.9-1.96-1.37-2.98-1.1-2.74-1.1-2.74-1.63-5.54-0.16-0.72-0.31-1.45-0.47-2.2l-2-1c-0.73-2.03-1.43-4.07-2.08-6.13-1.47-4.56-3.17-9.04-4.84-13.5-1.04-3.19-1.71-6.01-2.08-9.33-0.09-0.62-0.18-1.25-0.27-1.89-0.58-7.16 2.37-12.9 5.44-19.2 0.88-1.83 1.74-3.67 2.59-5.52 10.3-21.8 10.3-21.8 16.1-21.2zm-1.84 34.8c-0.47 2.12-0.47 2.12-0.63 4.56-0.07 0.83-0.15 1.65-0.22 2.5-0.05 0.64-0.1 1.28-0.15 1.94 3.7 1.96 6.76 2.85 11 3 2.64-1.4 2.64-1.4 4-4-0.16-3.9-0.82-5.73-3-9-2.14-0.4-2.14-0.4-4.5-0.25-0.8 0.01-1.59 0.03-2.41 0.04-2.15 0.09-2.15 0.09-4.09 1.21zm47 30 1 3v-3h-1zm100 33 1 2 1-2h-2zm-91 14 1 2zm-134 72c7.01 8.4 14.8 16.1 22.5 23.8 1.78 1.79 3.55 3.6 5.32 5.4 2.56 2.62 5.13 5.21 7.71 7.81 0.8 0.81 1.59 1.63 2.4 2.47 0.74 0.74 1.49 1.47 2.25 2.23 0.65 0.66 1.3 1.32 1.96 1.99 1.78 1.47 1.78 1.47 3.87 1.22 2.57-1.2 4.14-2.71 6.14-4.73 0.8-0.8 1.6-1.6 2.43-2.42 0.85-0.87 1.71-1.74 2.59-2.64 1.32-1.33 1.32-1.33 2.67-2.69 2.34-2.35 4.67-4.71 7-7.07 2.38-2.41 4.77-4.82 7.16-7.22 4.69-4.72 9.36-9.44 14-14.2l-3-2c-0.52 0.31-1.03 0.62-1.56 0.94-28.6 17.3-28.6 17.3-45.6 13.6-10.5-2.75-19.9-7.31-29.3-12.6-2.78-1.56-5.57-2.86-8.57-3.95z" fill="#CDA14A"/>
<path transform="translate(1006 193)" d="m0 0c7.8 3.97 11.8 16.2 15.4 23.6 0.59 1.15 1.19 2.3 1.8 3.48 3.63 7.39 5.78 13.9 4.33 22.2l-2 2c-0.53 1.84-0.97 3.7-1.38 5.56-1.31 5.53-3.15 10.4-5.62 15.4-2.64 5.59-4.72 11-6.29 17-0.71 1.97-0.71 1.97-2.71 2.97-1 2-1 2-1.88 4.44-0.35 0.9-0.69 1.8-1.05 2.73s-0.71 1.87-1.07 2.83c-2.14 5.47-4.38 10.8-7 16-0.71 1.99-1.38 3.99-2 6-0.4 0.91-0.79 1.81-1.19 2.75-1.13 4.52-0.66 8.69 0.19 13.2 1.77 1.78 4.26 1.21 6.67 1.24 7.46-0.06 14.3-1.45 21.6-3.12 23.4-5.11 46.2-8.63 68.8 1.88 1.44 0.65 1.44 0.65 2.91 1.32 6.96 3.58 12.3 8.37 17.9 13.8 1.08 1.04 1.08 1.04 2.19 2.11 0.67 0.67 1.33 1.34 2.01 2.03 0.9 0.9 0.9 0.9 1.82 1.81 1.17 1.93 1.17 1.93 1 4.57-1.14 3.23-2.92 3.69-5.83 5.36-1.81 2.57-1.81 2.57-3 5 0.55 0.21 1.11 0.41 1.68 0.62 3.28 1.95 5.13 4.28 7.32 7.38 0.76 3.47 0.19 4.66-1.57 7.75-3.18 2.94-5.14 3.25-9.43 3.25-3.73-1.65-6.25-4.04-9-7-4.47 1.36-6.21 3.34-9 7h-2c-0.23 0.56-0.46 1.11-0.69 1.69-1.69 2.97-3.78 5.03-6.31 7.31h-2l-2 4h-2l-2 4h-2c-0.27 0.64-0.54 1.28-0.82 1.94-1.18 2.06-1.18 2.06-4.18 3.06-0.69 1.32-1.35 2.66-2 4-1.3 1.37-2.63 2.71-4 4 0.49 0.48 0.98 0.96 1.49 1.46 0.64 0.63 1.28 1.26 1.94 1.91 0.64 0.63 1.28 1.26 1.94 1.9 2.15 2.28 2.59 3.4 2.94 6.54-0.39 3.98-1.43 5.46-4.31 8.19-3.29 1.38-4.6 1.15-7.94-0.13-3.35-2.05-6.12-4.28-9.06-6.87-0.71 0.72-1.41 1.44-2.13 2.19-2.8 2.81-5.8 5.3-8.87 7.81-5.25-4.38-10.1-9-15-13.8l-2.22-2.22c-2.32-2.33-4.64-4.66-6.96-6.99-1.56-1.57-3.13-3.14-4.69-4.71-2.87-2.88-5.74-5.76-8.61-8.64-0.61-0.62-1.23-1.23-1.86-1.87-1.08-1.09-2.16-2.17-3.24-3.26-2.2-2.21-4.42-4.31-6.85-6.27-2.54-2.14-4.71-4.37-6.84-6.91-3.71-4.29-7.73-8.14-11.9-12-12.5-11.6-12.5-11.6-13.9-14.5-0.79-1.97-0.79-1.97-2.8-2.74-2.21-1.11-3.56-2.25-5.3-4-0.88-0.89-0.88-0.89-1.79-1.79-0.62-0.64-1.25-1.28-1.89-1.93-0.66-0.66-1.31-1.31-1.98-1.99-2.08-2.09-4.16-4.2-6.24-6.3l-4.2-4.23c-3.09-3.11-6.18-6.23-9.26-9.34-1.03-1.04-2.09-2.06-3.16-3.06-1.31-1.43-1.31-1.43-1.31-3.43-0.56-0.04-1.12-0.08-1.69-0.13-4.09-1.54-6.21-5.44-8.81-8.81-1.52-1.32-1.52-1.32-3.88-0.86-3.13 0.95-4.11 2.02-6.12 4.55-0.6 0.72-1.19 1.44-1.8 2.18-0.56 0.68-1.13 1.36-1.7 2.07-2.51 2.77-4.36 4.79-8 6l-1 3c-1.61 1.54-1.61 1.54-3.63 3.19-4.25 3.58-7.83 7.54-11.4 11.8-3.41-1.63-6.17-3.48-9-6v-2c-0.84-0.34-0.84-0.34-1.69-0.69-2.96-1.67-4.98-3.86-7.31-6.31l-2-2c0.26-4.17 1.64-6.13 4.59-8.99 1.08-1.06 1.08-1.06 2.18-2.14 0.76-0.72 1.51-1.44 2.29-2.18 1.14-1.11 1.14-1.11 2.3-2.25 1.87-1.82 3.75-3.63 5.64-5.44-1.12-3.73-1.12-3.73-4-6v-2h-2c-1.36-1.65-2.69-3.32-4-5l-2-1c0.43-4.42 3.44-6.91 6.42-9.89 0.54-0.56 1.09-1.11 1.65-1.68 1.15-1.16 2.3-2.31 3.46-3.47 1.77-1.77 3.53-3.56 5.28-5.36 1.12-1.12 2.24-2.25 3.36-3.37 0.52-0.54 1.05-1.08 1.59-1.63 3.66-3.6 3.66-3.6 6.41-3.6 1.95 1.07 3.3 2.13 4.84 3.72 0.53 0.54 1.06 1.08 1.6 1.63 0.54 0.57 1.08 1.13 1.64 1.71 0.55 0.57 1.1 1.14 1.67 1.72 1.37 1.4 2.72 2.81 4.08 4.22 5.2-4.34 10-8.92 14.8-13.8 1.11-1.13 1.11-1.13 2.25-2.28 1.61-1.62 3.21-3.24 4.81-4.86 3.41-3.45 6.82-6.89 10.2-10.3 6.35-6.4 12.7-12.8 19-19.2 4.42-4.47 8.84-8.93 13.3-13.4 1.68-1.69 3.36-3.4 5.04-5.1 2.34-2.38 4.69-4.75 7.05-7.11 0.69-0.71 1.38-1.42 2.09-2.15 0.97-0.96 0.97-0.96 1.96-1.94 0.83-0.84 0.83-0.84 1.68-1.69 2.38-1.57 4-1.48 6.8-1.19 1 1 1 1 1.06 4.06-0.02 0.97-0.04 1.94-0.06 2.94l-1-4-2 6h-2c-0.35 0.83-0.35 0.83-0.69 1.69-1.69 2.97-3.78 5.03-6.31 7.31h-2c-0.5 1.48-0.5 1.48-1 3-1.61 1.58-1.61 1.58-3.63 3.25-4.92 4.18-9.78 8.36-13.4 13.8h-3c-0.23 0.56-0.46 1.11-0.69 1.69-1.68 2.95-3.89 4.94-6.31 7.31-0.66 0.82-1.32 1.65-2 2.5-2.17 2.71-4.52 5.08-7 7.5-0.73 0.74-1.45 1.48-2.19 2.25-4.15 4.05-8.49 7.89-12.8 11.8 0.37 0.42 0.75 0.85 1.13 1.28 1.65 1.89 3.26 3.8 4.87 5.72 0.51 0.61 1.02 1.22 1.54 1.85 2.1 2.68 3.46 4.42 3.46 7.9-1.06 2.36-1.95 3.69-4 5.25h-2c-0.5 1.48-0.5 1.48-1 3-1.65 1.69-3.32 3.35-5 5l-2 3 5 3c2.08-1.92 4.16-3.83 6.25-5.75 0.58-0.54 1.17-1.08 1.77-1.63 3.06-2.82 6.07-5.65 8.98-8.62 3.4 1.01 4.75 1.65 6.81 4.62 0.39 0.79 0.78 1.57 1.19 2.38-1.38 1.5-1.38 1.5-3 3h-2c-0.27 0.6-0.53 1.2-0.79 1.81-1.3 2.34-2.52 3.53-4.59 5.19-2.71 2.19-5.19 4.51-7.62 7 2.21 2.33 4.44 4.63 6.68 6.94 0.63 0.66 1.25 1.32 1.9 2 3.57 3.68 3.57 3.68 8.04 6.06 2.69 0 5.06-0.34 7.69-0.94 0.88-0.19 1.76-0.39 2.67-0.59 0.67-0.15 1.33-0.31 2.02-0.47v-5c-0.56-0.23-1.12-0.45-1.69-0.69-2.98-1.69-5.03-3.78-7.31-6.31v-2c-1.49-0.5-1.49-0.5-3-1 1.01-7.44 6.47-12 12.2-16.4 2.52-1.88 4.63-3.31 7.82-3.56 1.64 1.19 1.64 1.19 3.25 3 3.68 3.97 7.63 7.49 11.8 11 3.89-3.59 4.76-7.38 5.22-12.5 0.28-8.76-1.91-16.4-5.22-24.5-2.02 0.68-2.02 0.68-4 2-0.88 2.14-0.88 2.14-1.19 4.56-0.75 4.38-0.75 4.38-1.81 5.44-3.46 0.51-4.71 0.21-7.58-1.86-1.26-1.22-1.26-1.22-2.55-2.45-1.27-1.2-1.27-1.2-2.57-2.43-0.76-0.75-1.52-1.49-2.3-2.26-0.58-0.53-1.16-1.06-1.75-1.61-2.08-2.31-2.19-4.35-2.25-7.39 1.56-2.44 1.56-2.44 4-4 2 0.33 4 0.67 6 1 2.39-1.81 2.39-1.81 4-4-1.47-3.87-3.5-4.97-7-7v-2l-5-1c0.55-3.89 2.28-5.66 5.02-8.39 0.86-0.85 1.71-1.71 2.59-2.59 0.93-0.92 1.86-1.84 2.82-2.78 0.96-0.96 1.92-1.91 2.87-2.87 2.01-2 4.02-4 6.03-5.99 2.59-2.55 5.16-5.12 7.73-7.69l5.94-5.91c1.41-1.4 2.83-2.81 4.24-4.21 0.86-0.85 1.71-1.7 2.6-2.57 0.75-0.75 1.51-1.5 2.29-2.27 3.16-2.93 3.16-2.93 6.31-2.03zm8.56 14.3 1 3zm1 3 1 2zm1 2 1 2zm3 6 1 2zm1 2 1 2zm1 2 1 3zm-31 7c-0.26 3.62-0.26 3.62 0 7 0.63 0.31 1.27 0.62 1.93 0.94 2.07 1.06 2.07 1.06 3.07 2.06 2.87 0.5 2.87 0.5 6 0 2.57-2.07 2.57-2.07 4-5-0.17-3.55-1-5-3-8-2.1-0.48-2.1-0.48-4.44-0.38-1.18-0.01-1.18-0.01-2.37-0.02-2.71 0.49-3.6 1.18-5.19 3.4zm34 0 1 3zm-96 50 1 3v-3h-1zm80 3 1 2zm-16 47 1 4zm2 47 1 2 2-1c-0.99-0.33-1.98-0.66-3-1zm123 1 1 3zm-120 1c-0.32 3.01-0.32 3.01 1.51 4.88 0.71 0.7 1.42 1.41 2.16 2.13 0.8 0.8 1.6 1.6 2.42 2.43 0.88 0.86 1.75 1.72 2.66 2.6 1.33 1.33 1.33 1.33 2.69 2.68 2.36 2.35 4.73 4.69 7.1 7.03 2.42 2.39 4.83 4.78 7.24 7.18 4.73 4.7 9.47 9.39 14.2 14.1 3.18-1.41 5.31-3.07 7.75-5.53l2.19-2.19c0.76-0.77 1.53-1.55 2.32-2.35 1.19-1.2 1.19-1.2 2.41-2.41 2.53-2.55 5.05-5.1 7.58-7.65 1.71-1.72 3.43-3.45 5.14-5.17 4.21-4.23 8.41-8.46 12.6-12.7-2.86-1.74-2.86-1.74-6.03-1.45-0.7 0.37-1.41 0.74-2.13 1.12-0.79 0.4-1.58 0.79-2.39 1.2-0.83 0.44-1.66 0.87-2.52 1.32-12.9 6.39-25.9 11.1-40.4 6.31-7.78-3.23-16.1-7.17-22.9-12.2-1.6-1.45-1.6-1.45-3.68-1.25zm79 1-1 2h2l-1-2z" fill="#FBFCFC"/>
<path transform="translate(830,321)" d="m0 0c2.24 1.71 2.24 1.71 4.53 3.95 0.86 0.84 1.73 1.68 2.62 2.54 0.92 0.91 1.83 1.83 2.78 2.77 0.96 0.94 1.92 1.89 2.88 2.84 2 1.98 4 3.97 5.99 5.96 2.56 2.56 5.13 5.08 7.72 7.6 1.99 1.94 3.96 3.9 5.93 5.87 1.4 1.4 2.82 2.77 4.24 4.15 6.27 6.36 6.27 6.36 6.49 11.2-2.29 5.95-5.7 9.83-10.4 14-0.98 0.87-1.95 1.73-2.96 2.63-2.22 1.93-4.44 3.87-6.67 5.81-10 8.76-19.6 18-29 27.4-0.49 0.5-0.99 0.99-1.5 1.5-5.76 5.74-11.3 11.6-16.6 17.8-2.51 2.78-5.05 5.55-7.58 8.31-2.11 2.35-4.11 4.75-6.11 7.19-3.15 3.61-5.68 5.21-10.3 6.5-11.2-1.23-20.2-11.5-28-19-0.54-0.52-1.09-1.04-1.65-1.57-1.65-1.57-3.28-3.15-4.91-4.74-0.5-0.48-1-0.96-1.52-1.45-3.18-3.15-5.05-6.2-6.92-10.2-0.92-1.3-1.86-2.59-2.81-3.88-1.93-3.04-2.53-4.76-1.75-8.31 1.67-5.54 5.8-9.19 10.2-12.6 14.2-11.5 27-24.8 39.9-37.7 1.06-1.06 1.06-1.06 2.15-2.13 2.05-2.05 4.1-4.1 6.14-6.15 0.61-0.61 1.22-1.22 1.85-1.84 5.25-5.28 10.2-10.8 14.8-16.6 11.5-14.6 11.5-14.6 20.4-11.7zm26 41c-1.41 1.53-1.41 1.53-2.69 3.56-4.44 6.21-10.2 10.6-16.1 15.2-4.66 3.69-9.02 7.65-13.4 11.7-2.78 2.5-5.64 4.86-8.55 7.21-3.08 2.48-6 4.96-8.75 7.81-11.6 11.9-26 21.5-40.5 29.5 0.74 0.59 1.49 1.18 2.25 1.79 1.62 1.3 3.23 2.61 4.81 3.95 0.64 0.52 1.28 1.04 1.94 1.57 0.64 0.53 1.28 1.07 1.94 1.62 2.05 1.28 2.05 1.28 4.6 1 3.07-1.16 4.03-2.44 5.9-5.12 2.17-2.99 4.32-5.69 7-8.25l2.56-2.56v-2c0.6-0.27 1.19-0.53 1.81-0.8 2.26-1.24 3.58-2.43 5.3-4.33 0.58-0.64 1.16-1.27 1.76-1.92 0.93-1.03 0.93-1.03 1.88-2.07 5.46-5.93 11-11.8 16.7-17.4 0.63-0.64 1.27-1.29 1.93-1.95 3.82-3.81 7.78-7.41 11.9-10.9 2.02-1.77 3.91-3.62 5.77-5.55 2.63-2.68 5.33-5.19 8.19-7.62 3.35-2.88 6.09-5.9 8.81-9.38-0.99-2.48-0.99-2.48-2-5h-3z" fill="#FCFDFD"/>
<path transform="translate(674,7)" d="m0 0c13-0.02 26-0.04 39.1-0.05 6.05-0.01 12.1-0.01 18.1-0.03 5.83-0.01 11.7-0.01 17.5-0.01 2.23-0.01 4.46-0.01 6.68-0.02h9.34c0.93-0.01 1.86-0.01 2.82-0.01 6.36 0.01 6.36 0.01 7.47 1.12 0.1 2.51 0.14 4.99 0.12 7.5 0.01 0.7 0.01 1.41 0.02 2.13-0.01 5.24-0.01 5.24-1.14 6.37-2.68 0.07-5.33 0.09-8 0.06-1.13 0-1.13 0-2.27-0.01-1.91-0.01-3.82-0.03-5.73-0.05h-1c0 0.95 0.01 1.9 0.01 2.88 0.04 8.98 0.07 18 0.09 26.9 0.01 4.61 0.03 9.23 0.05 13.8 0.02 4.45 0.03 8.91 0.04 13.4 0 1.7 0.01 3.4 0.02 5.1 0.02 2.38 0.02 4.76 0.02 7.14 0 0.7 0.01 1.4 0.02 2.12-0.02 4.53-0.74 7.11-2.25 11.6h-15v-83h-32v84c-5.94-0.33-11.9-0.66-18-1v-83h-11-5v-17zm99 3v11h1v-11h-1zm-51 11 1 2zm48 0c1.49 0.99 1.49 0.99 3 2v-2h-3zm-91 1v1h5v-1h-5zm49 0v1h6v-1h-6zm-22 1-1 84h2v-84h-1z" fill="#EFF0F0"/>
<path transform="translate(817,9)" d="m0 0c5.73 5.22 7.65 11.7 8.27 19.4 0.11 3.86 0.12 7.72 0.09 11.6v4.28c0 2.97-0.01 5.94-0.02 8.91-0.03 3.79-0.03 7.59-0.02 11.4 0 2.94 0 5.88-0.01 8.81-0.01 1.4-0.01 2.8-0.01 4.2 0.01 17.5 0.01 17.5-4.99 23.2-0.46 0.55-0.91 1.1-1.38 1.67-5.37 4.4-10.8 5.06-17.4 4.96-0.72 0.01-1.44 0.02-2.18 0.03-6.27-0.03-10.5-1.86-16-4.91-7.01-7.58-6.89-18-6.81-27.8v-4.05c0-2.81 0.01-5.62 0.03-8.43 0.03-3.58 0.03-7.15 0.02-10.7-0.01-2.78 0-5.56 0.01-8.34 0.01-1.95 0-3.91 0-5.86 0.1-9.46 0.77-18.7 7.67-25.8 8.98-7.46 22.6-7.99 32.8-2.47zm-19 12v1h7v-1h-7zm-0.67 3.14c-1.9 2.65-1.7 4.6-1.7 7.84-0.01 1.24-0.01 2.47-0.02 3.74 0.01 1.34 0.02 2.69 0.03 4.03v4.14c0 2.88 0.01 5.77 0.02 8.66 0.03 3.7 0.03 7.41 0.02 11.1 0 2.84 0 5.69 0.01 8.54 0.01 1.36 0.01 2.73 0.01 4.09 0 1.91 0.01 3.82 0.03 5.73 0 1.08 0 2.17 0.01 3.29 0.07 2.91 0.07 2.91 2.26 5.69 4.09 0.64 4.09 0.64 8 0 2.71-3.68 3.38-6.3 3.37-10.8 0.01-1.15 0.01-2.29 0.02-3.48-0.01-1.23-0.02-2.46-0.03-3.73v-3.85c0-2.68-0.01-5.36-0.02-8.05-0.03-3.43-0.03-6.87-0.02-10.3 0-3.29-0.01-6.57-0.02-9.86v-3.73c-0.01-1.15-0.02-2.29-0.03-3.47 0-1.51 0-1.51-0.01-3.05-0.27-2.73-0.78-4.36-2.26-6.65-3.18-1.59-6.65-1.93-9.67 0.14zm-3.33 0.86v64h1v-64h-1z" fill="#EDEEEE"/>
<path transform="translate(857 5.56)" d="m0 0c0.7 0 1.4 0.01 2.12 0.01 5.74 0.15 10.2 1.41 15.1 4.43v2c0.62 0.22 1.25 0.44 1.89 0.67 2.88 1.81 3.05 3.26 3.83 6.53 1.58 7.18 1.69 14.2 1.64 21.5v4.14c0 2.87-0.01 5.73-0.03 8.59-0.02 3.66-0.02 7.32-0.01 11 0 2.84-0.01 5.68-0.02 8.51v6c-0.11 14.7-0.11 14.7-4.68 20.8-0.4 0.55-0.8 1.1-1.21 1.67-5.04 5.63-11.1 6.13-18.4 6.58-3.45-0.35-6.66-1.09-10-2-0.87-0.15-1.73-0.29-2.62-0.44-3.57-0.84-5.05-2.8-7.38-5.56-3.21-5.61-4.12-9.88-4.16-16.3-0.01-1.27-0.02-2.55-0.03-3.86-0.01-1.39-0.01-2.78-0.02-4.17 0-1.43-0.01-2.87-0.01-4.3-0.01-3-0.02-6-0.02-9.01-0.01-3.83-0.03-7.66-0.06-11.5-0.02-2.96-0.02-5.92-0.03-8.88 0-1.41-0.01-2.82-0.02-4.23-0.08-9.51-0.02-17.7 6.66-25.1 0.55-0.63 1.11-1.27 1.68-1.92 4.84-4.24 9.52-5.29 15.8-5.2zm-2.81 15.4v1h6v-1h-6zm-1 1c-3.16 1.64-3.16 1.64-3.68 4.28-0.33 2.78-0.45 5.45-0.45 8.25-0.01 1.09-0.01 2.17-0.01 3.29v3.52 3.64c0 2.54 0 5.08 0.01 7.62 0 3.88 0 7.77-0.01 11.6v7.4 3.52c0 1.09 0 2.17 0.01 3.29v2.88c0.13 2.67 0.45 5.08 1.13 7.66 3.44 2.89 7.76 2.34 12 2 2.32-3.49 2.25-4.86 2.26-8.97 0.01-1.84 0.01-1.84 0.02-3.72-0.01-1.34-0.01-2.69-0.02-4.03 0-1.37 0.01-2.75 0.01-4.13 0-2.88 0-5.76-0.01-8.65-0.01-3.69-0.01-7.38 0.01-11.1v-8.52c-0.01-1.37 0-2.73 0-4.09 0.01-1.9 0-3.81-0.01-5.71-0.01-1.09-0.01-2.17-0.01-3.29-0.25-2.79-0.81-4.44-2.25-6.81-1.67 0.28-1.67 0.28-3.38 0.56-3.62 0.44-3.62 0.44-5.62-0.56z" fill="#EEEFEE"/>
<path transform="translate(918 6.9)" d="m0 0c1.58 0.01 3.16 0.02 4.75 0.04 0.8 0 1.61 0 2.44 0.01 2 0.01 4 0.03 5.99 0.05 1.51 3.01 1.17 6.14 1.19 9.44 0.01 0.77 0.02 1.54 0.03 2.33 0.02 1.67 0.03 3.34 0.04 5.01 0.02 2.64 0.05 5.28 0.08 7.91 0.07 6.56 0.13 13.1 0.19 19.7 0.05 5.53 0.11 11.1 0.17 16.6 0.02 2.61 0.04 5.21 0.06 7.82 0.02 1.59 0.04 3.18 0.05 4.77 0.01 1.09 0.01 1.09 0.02 2.21-0.01 3.74-0.01 3.74 1.17 7.24h8c2.41-3.73 2.31-7.42 2.32-11.7 0.01-0.77 0.02-1.54 0.03-2.34 0.03-2.54 0.05-5.08 0.07-7.62 0.02-1.77 0.04-3.54 0.06-5.3 0.05-4.64 0.09-9.29 0.12-13.9 0.04-4.74 0.1-9.48 0.15-14.2 0.09-9.29 0.18-18.6 0.25-27.9h17c0.09 10.9 0.17 21.7 0.21 32.6 0.02 5.04 0.05 10.1 0.1 15.1 0.04 4.87 0.06 9.74 0.07 14.6 0.01 1.86 0.02 3.72 0.05 5.57 0.03 2.61 0.03 5.21 0.03 7.81 0.02 1.15 0.02 1.15 0.04 2.32-0.04 5.02-1.08 7.35-4.5 11-0.51 1.07-1.03 2.14-1.56 3.25-1.44 2.75-1.44 2.75-4.44 3.75v2c-9.94 3.48-18.2 4.55-28 0-4.61-2.44-8.05-4.96-9.7-10-2.18-8.02-1.69-16.4-1.62-24.6v-5.4c0.01-3.75 0.02-7.5 0.04-11.2 0.03-4.81 0.04-9.63 0.05-14.4 0-3.7 0.01-7.41 0.02-11.1 0.01-1.78 0.01-3.55 0.02-5.33 0-2.47 0.02-4.94 0.03-7.41 0-0.74 0-1.48 0.01-2.24 0.05-6.12 0.05-6.12 4.97-6.25zm12.2 3.1 1 3zm0 4 1 2zm0 3v65h1v-65h-1zm0 67v5h1v-5h-1z" fill="#FAFBFB"/>
<path transform="translate(638,7)" d="m0 0h25c1.51 5.28 2.23 7.89 2 13 0 3.62 0.51 7.11 1 10.7 0.1 0.7 0.19 1.4 0.29 2.12 0.23 1.73 0.47 3.46 0.71 5.19h2c0.17 2.15 0.33 4.29 0.5 6.44 0.09 1.19 0.19 2.39 0.28 3.62 0.22 2.94 0.22 2.94 0.22 3.94 0.28 2.84 0.57 5.67 0.88 8.5 0.07 0.8 0.15 1.6 0.23 2.42 0.23 2.03 0.55 4.06 0.89 6.08 0.99 0.5 0.99 0.5 2 1 0.34 2.05 0.34 2.05 0.5 4.88 0.43 6.53 1.11 13 1.84 19.5 0.88 8.04 0.88 8.04 0.66 11.6-1.86 1.86-4.88 1.17-7.38 1.19-1.74 0.02-1.74 0.02-3.52 0.04-3.1-0.23-3.1-0.23-6.1-2.23-1.03-4.3-1.44-8.61-2-13h-17l-1-3c-0.04 1.13-0.07 2.26-0.11 3.43-0.07 1.48-0.14 2.96-0.2 4.45-0.03 0.74-0.05 1.49-0.07 2.26-0.1 1.96-0.35 3.91-0.62 5.86-3.52 2.35-5.51 2.38-9.69 2.62-1.18 0.08-2.36 0.15-3.57 0.23-0.91 0.05-1.81 0.1-2.74 0.15-1.33-4.6-0.65-8.68 0.14-13.3 0.13-0.83 0.27-1.65 0.4-2.5 0.45-2.72 0.9-5.43 1.35-8.15 0.32-1.9 0.63-3.79 0.94-5.69 0.81-5 1.64-9.99 2.47-15 0.68-4.05 1.34-8.11 2.01-12.2 0.79-4.86 1.6-9.72 2.4-14.6 0.22-1.37 0.22-1.37 0.46-2.78 0.43-2.63 0.86-5.25 1.3-7.88 0.13-0.76 0.25-1.52 0.38-2.3 0.93-5.59 2.04-11.1 3.15-16.6zm24 3 1 4zm-15 29v5h1v-5h-1zm2 0-1 6-2-1c-0.53 3.89-1.05 7.79-1.56 11.7-0.15 1.1-0.31 2.2-0.46 3.34-0.14 1.07-0.28 2.13-0.42 3.23-0.2 1.47-0.2 1.47-0.4 2.97-0.3 3.16-0.3 3.16 0.84 7.77h11c-0.48-7.98-1.3-15.8-2.44-23.8-0.12-0.89-0.24-1.79-0.37-2.71-0.12-0.83-0.25-1.67-0.37-2.52-0.11-0.75-0.22-1.5-0.33-2.28-0.16-0.57-0.32-1.15-0.49-1.74l-2-1zm19 7 1 2zm5 31 1 2z" fill="#EEEFEE"/>
<path transform="translate(982,7)" d="m0 0h25c0.5 7.92 0.5 7.92 1 16h2c0.04 1.67 0.04 3.33 0 5-0.5 0.49-0.5 0.49-1 1 0.19 1.51 0.45 3.01 0.75 4.5 2.94 15.2 5.34 30.4 7.52 45.7 0.49 3.39 0.98 6.78 1.48 10.2 0.31 2.16 0.61 4.31 0.92 6.46 0.15 1.01 0.3 2.03 0.45 3.07 0.2 1.39 0.2 1.39 0.4 2.81 0.12 0.82 0.23 1.63 0.35 2.47 0.07 0.93 0.07 0.93 0.13 1.87-1 1-1 1-3.84 1.13-1.75 0-1.75 0-3.54-0.01-1.16 0.01-2.32 0.01-3.52 0.01-3.1-0.13-3.1-0.13-6.1-1.13-0.34-1.75-0.67-3.5-1-5.25-0.19-0.97-0.37-1.95-0.56-2.95-0.44-2.8-0.44-2.8-0.44-6.8h-3.68-14.3c-0.12 0.99-0.24 1.97-0.37 2.99-0.16 1.28-0.33 2.56-0.51 3.89-0.16 1.27-0.32 2.55-0.49 3.86-0.63 3.26-0.63 3.26-2.63 5.26-2.37 0.3-4.74 0.5-7.12 0.62-1.93 0.12-1.93 0.12-3.89 0.23-0.99 0.05-1.97 0.1-2.99 0.15 0.57-10.1 1.99-20 3.65-30 0.27-1.61 0.53-3.22 0.79-4.83l2.07-12.6c0.71-4.26 1.4-8.52 2.1-12.8 1.24-7.62 2.49-15.2 3.76-22.9 0.41-2.5 0.81-5 1.21-7.5 0.18-1.08 0.35-2.16 0.53-3.28 0.15-0.94 0.3-1.88 0.45-2.84 0.44-2.23 0.44-2.23 1.44-4.23zm23 1 1 2zm-14 29c-0.13 1.01-0.13 1.01-0.26 2.03-0.39 3.05-0.78 6.11-1.18 9.16-0.13 1.05-0.27 2.11-0.41 3.19-0.19 1.54-0.19 1.54-0.4 3.1-0.12 0.94-0.24 1.88-0.36 2.84-0.38 2.58-0.85 5.13-1.39 7.68h1v8h11c-0.63-7.99-1.69-15.8-3.06-23.7-0.19-1.09-0.38-2.19-0.57-3.32-0.45-2.66-0.91-5.33-1.37-7.99-0.99-0.33-1.98-0.66-3-1zm-5 28v7h1v-7h-1zm-19 40v2l2-1-2-1z" fill="#ECEDEC"/>
<path transform="translate(577,7)" d="m0 0c7.1-0.02 14.2-0.04 21.3-0.05 2.42-0.01 4.83-0.02 7.25-0.03 3.47-0.01 6.94-0.01 10.4-0.02 1.09 0 2.18-0.01 3.3-0.01h3.04c1.33-0.01 1.33-0.01 2.68-0.01 2.02 0.12 2.02 0.12 3.02 1.12 0.1 2.51 0.14 4.99 0.12 7.5 0.01 1.05 0.01 1.05 0.02 2.13-0.01 5.24-0.01 5.24-1.14 6.37-2.53 0.07-5.03 0.09-7.56 0.06-1.07 0-1.07 0-2.16-0.01-1.76-0.01-3.52-0.03-5.28-0.05 0 1.02 0 2.05 0.01 3.1 0.02 9.62 0.03 19.2 0.04 28.9 0.01 4.95 0.01 9.9 0.03 14.8 0.01 4.78 0.01 9.55 0.01 14.3 0.01 1.83 0.01 3.65 0.02 5.47v7.65c0.01 0.76 0.01 1.51 0.01 2.3-0.01 5.22-0.01 5.22-1.12 7.45-2.81 0.03-5.62 0.05-8.44 0.06-0.8 0.01-1.6 0.02-2.43 0.03-2.04 0.01-4.09-0.04-6.13-0.09-1.75-1.75-1.12-4.05-1.12-6.39 0-0.77 0-1.55 0.01-2.34v-2.46c0-2.69 0-5.37 0.01-8.06 0-1.86 0.01-3.72 0.01-5.58 0-4.91 0.01-9.81 0.02-14.7 0.01-5 0.02-10 0.02-15 0.01-9.82 0.03-19.6 0.05-29.5-3.69-0.79-7.03-1.11-10.8-1.06-1.71 0.02-3.43 0.04-5.19 0.06v-16zm49 3v11h1v-11h-1zm-2 11 2 2v-2h-2zm-14 1v83h1l1-83h-2zm-1 83-2 2h3l-1-2z" fill="#F1F1F1"/>
<path transform="translate(735 7.83)" d="m0 0c1.42-0 1.42-0 2.86-0.01 2-0.01 4-0.01 6-0.01 3.07 0 6.13-0.02 9.19-0.04h5.83c0.91-0.01 1.83-0.02 2.77-0.02 0.86 0 1.72 0 2.6 0.01 0.75-0.01 1.51-0.01 2.28-0.01 2.11 0.25 2.11 0.25 6.11 2.25v11c-7.92 0.49-7.92 0.49-16 1 0.01 3.54 0.01 3.54 0.03 7.15 0.03 7.82 0.05 15.6 0.07 23.4 0.01 4.73 0.02 9.47 0.05 14.2 0.02 4.57 0.03 9.15 0.04 13.7 0 1.74 0.01 3.48 0.02 5.22 0.01 2.45 0.01 4.89 0.01 7.33 0.01 0.72 0.02 1.44 0.03 2.18-0.02 4.58-0.74 7.2-2.25 11.8h-15v-83h-12c-3-3-3-3-3.33-5.88 0.02-1.07 0.05-2.14 0.08-3.25 0.01-1.07 0.03-2.15 0.04-3.25 0.45-5.73 6.01-3.78 10.6-3.79zm-7.36 14.2v1h6v-1h-6z" fill="#F0F1F1"/>
<path transform="translate(724 453)" d="m0 0c2.72 1.1 4 2.84 5.86 5.09 2.28 2.7 4.24 4.83 7.06 7 0.99 0.83 0.99 0.83 2 1.69v4c-1.49 0.49-1.49 0.49-3 1-0.7 1.31-1.36 2.65-2 4-1.66 1.92-1.66 1.92-3.5 3.75-0.61 0.61-1.22 1.22-1.85 1.86-1.65 1.39-1.65 1.39-3.65 1.39-0.23 0.55-0.46 1.1-0.69 1.67-1.69 3-3.82 5.08-6.26 7.5-0.49 0.49-0.97 0.98-1.48 1.48-1.03 1.03-2.07 2.06-3.11 3.09-1.57 1.55-3.12 3.1-4.68 4.66-5.42 5.4-10.9 10.7-16.8 15.6-0.81 0.69-1.63 1.39-2.46 2.11-8.61 6.4-18.7 13.4-29.8 12.2-0.88-0.18-0.88-0.18-1.77-0.35-0.68-1.74-0.68-1.74-1-4 1.08-2.02 1.08-2.02 2.81-4.25 2.82-3.79 5.35-7.62 7.75-11.7 9.52-15.9 9.52-15.9 16.4-20.1 2.85-0.06 4.91 0.49 7.61 1.38 4 1.03 6.91-0.42 10.4-2.38 3.74-2.5 6.21-4.85 8-9 0.27-4.21 0.2-7.26-0.9-11.3-0.11-4 0.04-4.41 2.5-7.25 1.18-1.16 2.37-2.31 3.59-3.43 0.88-0.9 0.88-0.9 1.79-1.81 4.41-4.26 4.41-4.26 7.1-3.97z" fill="#FBFCFD"/>
<path transform="translate(875,453)" d="m0 0c3.3 0.58 4.91 1.55 7.23 3.94 0.58 0.58 1.15 1.17 1.74 1.77 0.59 0.61 1.18 1.22 1.78 1.85 0.6 0.62 1.2 1.23 1.82 1.87 1.49 1.52 2.96 3.04 4.43 4.57l-2 4-1-1c-0.57 6.69-0.57 6.69 1.69 12.8 0.76 0.72 1.52 1.45 2.31 2.19 1.11 1.3 1.11 1.3 2.25 2.62 3.35 2.9 6.32 4.76 10.8 5.38 1.6-0.47 3.18-1 4.75-1.56 2.55-0.61 2.55-0.61 5.25-0.44 10 6.34 15.7 17.5 21.4 27.6 1.93 3.42 4.1 6.39 6.59 9.44v2c-1.49 0.5-1.49 0.5-3 1l-2-1v1c-7.65 0.82-12.2-1.78-18.6-5.69-0.92-0.53-1.84-1.06-2.78-1.6-6.23-3.67-12-7.41-16.5-13.2-2.62-3.19-5.5-5.74-8.74-8.3-0.65-0.62-0.65-0.62-1.32-1.26v-2c-0.53-0.21-1.07-0.42-1.62-0.64-3.29-1.88-5.81-4.43-8.49-7.07-0.58-0.56-1.15-1.12-1.74-1.7-1.21-1.19-2.41-2.38-3.62-3.57-1.84-1.83-3.7-3.63-5.57-5.44-1.17-1.15-2.34-2.31-3.51-3.47-0.56-0.54-1.12-1.08-1.7-1.63-1.54-1.56-1.54-1.56-3.75-4.48 0.03-3.65 0.66-4.64 3.18-7.32 0.89-0.74 1.78-1.48 2.7-2.24 3.13-2.64 5.8-5.06 8.12-8.44z" fill="#CEA24B"/>
<path transform="translate(775 320)" d="m0 0c6.2 2.39 11.6 6.39 15 12.2l-1 3c-0.49-0.99-0.49-0.99-1-2-0.43 1.39-0.43 1.39-0.87 2.81-2.11 4.93-5.79 8.42-9.43 12.3-2.61 2.82-5 5.72-7.38 8.73-3.47 4.29-6.91 7.86-11.3 11.2h-2l-1 3c-2.21 2.04-2.21 2.04-4.93 4.18-0.9 0.72-1.79 1.43-2.72 2.17-2.35 1.65-2.35 1.65-4.35 1.65l-1 3c-1.7 0.92-1.7 0.92-4 1-2.76-1.52-2.76-1.52-5.68-3.82-0.98-0.73-1.95-1.45-2.95-2.2-2.81-3.55-3.46-5.76-3.79-10.2 0.9-5.84 5.63-9.48 9.71-13.4 0.97-0.97 1.94-1.95 2.91-2.93 2.03-2.03 4.08-4.04 6.14-6.04 2.65-2.56 5.24-5.17 7.83-7.78 2-2.02 4.01-4.01 6.04-6 1.43-1.42 2.85-2.85 4.27-4.28 6.55-6.29 6.55-6.29 11.5-6.51z" fill="#CDA14A"/>
<path transform="translate(735 231)" d="m0 0c17.3 5.63 32 24.1 41.2 38.8 0.93 2.22 0.93 2.22 0.9 4.18-1.44 3.04-3.62 4.97-6.03 7.29-1.38 1.34-1.38 1.34-2.79 2.71-0.71 0.67-1.42 1.35-2.15 2.04-3.05-1.15-5.72-2.38-8.44-4.18-4.11-2.1-5.2-1.56-9.56-0.82-3.37-1.81-3.37-1.81-6-4v-2c-0.54-0.22-1.08-0.44-1.63-0.68-5.3-2.95-9.68-7.55-13.4-12.3-0.31-2.37 0.07-3.7 0.8-5.95 0.39-3.85-2.4-6.74-4.55-9.75-1.25-2.3-1.25-2.3-1.2-4.29 1.31-2.75 3.03-4.63 5.14-6.82 0.76-0.81 1.51-1.62 2.29-2.46 2.52-1.73 2.52-1.73 5.44-1.73zm39.1 41 1 2z" fill="#CCA04A"/>
<path transform="translate(867 231)" d="m0 0c2.74 1.34 4.6 3.13 6.76 5.27 0.81 0.78 1.62 1.56 2.46 2.36 1.73 2.32 1.73 2.32 1.49 4.62-0.38 0.84-0.38 0.84-0.76 1.7-0.5-0.49-0.5-0.49-1-1-0.18 0.86-0.18 0.86-0.37 1.74-0.66 2.36-1.57 4.34-2.69 6.51-0.37 0.71-0.73 1.42-1.1 2.14-0.28 0.53-0.56 1.07-0.84 1.61l3 3c-1.34 4.02-3.76 5.36-7 8l-2 3h-2l-1 3c-1.71 1.83-1.71 1.83-3.81 3.69-1.03 0.93-1.03 0.93-2.09 1.89-2.87 1.94-5.2 1.49-8.56 1.24-3.2 0.23-4.66 1.3-7.23 3.18-4.13 3-4.13 3-6.31 3v-2c-0.87-0.4-0.87-0.4-1.77-0.8-2.29-1.23-4.03-2.6-5.98-4.32-0.61-0.54-1.23-1.08-1.86-1.63-0.46-0.41-0.92-0.82-1.39-1.25 0.55-4.54 2.47-7.86 4.94-11.6 0.4-0.61 0.8-1.23 1.21-1.86 6.93-10.4 23.9-31.8 37.9-31.5z" fill="#F9FBFB"/>
<path transform="translate(568 163)" d="m0 0c4.09 1.48 6.98 4.85 10.1 7.77 0.83 0.7 1.65 1.4 2.5 2.12 1.5 1.88 1.5 1.88 1.76 4.63-0.09 0.74-0.17 1.48-0.26 2.25h-3c-1.71 2.44-1.71 2.44-3 5 0.51 0.37 1.02 0.75 1.54 1.14 5.37 4.23 5.37 4.23 5.9 7.73-0.14 0.71-0.29 1.41-0.44 2.13-0.33-0.99-0.65-1.98-1-3-0.26 0.67-0.53 1.35-0.8 2.05-0.35 0.89-0.71 1.78-1.07 2.7-0.35 0.88-0.7 1.76-1.05 2.67-0.94 2.25-1.95 4.42-3.08 6.58-4.88-0.42-6.74-2.49-10-6-1.31-1.03-2.63-2.04-4-3-1.64 1.65-3.29 3.3-5 5-5.06-1.27-6.93-2.85-10-7-0.92-0.62-1.85-1.24-2.81-1.88-2.19-2.12-2.19-2.12-2.37-5.37 1.52-4.8 3.99-7.94 7.18-11.8 0.92-1.23 0.92-1.23 1.85-2.48 2.36-2.77 4.81-4.67 7.78-6.77 1.44-1.03 1.44-1.03 2.91-2.08 4.02-2.73 4.02-2.73 6.34-2.44z" fill="#CCA04A"/>
<path transform="translate(1034 163)" d="m0 0c10.7 4.46 20.5 14.4 25.3 25-1.14 3.41-2.05 4.11-5 6h-2c-0.27 0.63-0.54 1.27-0.82 1.93-1.18 2.07-1.18 2.07-4.18 3.07-0.74 2.01-0.74 2.01-1 4-1.98-0.33-3.96-0.66-6-1l-1-4c-3.63 0.58-5.42 2.01-8.07 4.5-2.44 2.28-3.71 3.42-6.93 4.5v-2c-0.99-0.33-1.98-0.66-3-1-2.71-3.69-4.08-6.93-3.75-11.5 0.24-0.83 0.49-1.65 0.75-2.5h2l1-3h2c-1.69-4.24-1.69-4.24-5-7 0.35-5.29 3.17-7.84 6.75-11.4 0.52-0.56 1.05-1.12 1.59-1.69 3.94-3.95 3.94-3.95 7.38-3.88zm21.3 25 2 2v-2h-2z" fill="#F3F3F2"/>
<path transform="translate(1016,289)" d="m0 0c3.67 0.57 5.24 1.94 7.75 4.62 2.58 2.69 5.16 5.23 8 7.63 3.69 3.21 7.28 6.5 10.8 9.87 0.83 0.76 0.83 0.76 1.67 1.53 1.52 1.48 1.52 1.48 3.77 4.35-0.16 2.87-0.16 2.87-1 5-0.99-0.5-0.99-0.5-2-1v1c-0.89 0.05-1.78 0.1-2.7 0.15-1.17 0.07-2.34 0.15-3.55 0.23-1.74 0.1-1.74 0.1-3.52 0.21-3.03 0.38-4.62 0.96-7.23 2.41-16.4 5.4-16.4 5.4-22.6 3-2.18-3.03-1.68-5.31-1.44-9 0.68-2.97 1.62-5.81 2.62-8.69 0.27-0.78 0.54-1.56 0.81-2.37 2.32-6.62 5.17-12.8 8.57-18.9z" fill="#FBFCFC"/>
<path transform="translate(585,289)" d="m0 0c11.9 27 11.9 27 10 39-4.49 0.99-7.72 0.89-12.2-0.18-1.15-0.27-2.31-0.54-3.51-0.82-1.19-0.29-2.39-0.58-3.62-0.88-7.57-1.8-14.9-3.47-22.7-4.12-0.81-1.66-0.81-1.66-1-4 1.58-2.05 3.09-3.69 4.94-5.46 0.52-0.52 1.04-1.04 1.58-1.57 1.67-1.65 3.35-3.28 5.04-4.91 1.11-1.09 2.22-2.19 3.33-3.28 14-13.8 14-13.8 18.1-13.8zm1 9 1 2zm2 4 1 2zm1 2 1 4zm4 12 1 2z" fill="#CDA14A"/>
<path transform="translate(830,321)" d="m0 0c2.24 1.73 2.24 1.73 4.53 4 0.86 0.85 1.73 1.69 2.62 2.57 0.92 0.92 1.83 1.84 2.78 2.79 0.96 0.96 1.92 1.91 2.88 2.86 2 2 4 4 5.99 6.01 2.56 2.57 5.14 5.13 7.72 7.67 1.99 1.97 3.96 3.94 5.93 5.92 1.4 1.4 2.82 2.8 4.24 4.2 0.84 0.85 1.69 1.71 2.56 2.59 0.75 0.76 1.5 1.51 2.27 2.28 1.48 2.11 1.48 2.11 1.21 4.38-0.24 0.57-0.48 1.14-0.73 1.73-5-5-5-5-7.19-7.25-6.83-7.15-6.83-7.15-14.8-12.8-0.67-1.33-1.33-2.67-2-4l-2-1v-2l-4-1c-0.5-1.98-0.5-1.98-1-4l-4-1v-2h-2c-0.31-1.42-0.31-1.42-0.62-2.88-1.08-3.33-1.08-3.33-4.13-4.56-4.65-0.8-7.68-0.57-11.7 2-3.44 3.28-6.48 6.82-9.56 10.4-1.19 1.36-2.37 2.71-3.56 4.06-1.74 1.98-3.46 3.97-5.14 6-0.53 0.64-1.07 1.28-1.61 1.94-0.47 0.58-0.94 1.15-1.43 1.75-1.26 1.25-1.26 1.25-3.26 1.25-0.35 0.84-0.35 0.84-0.7 1.69-1.65 2.92-3.71 4.91-6.11 7.25-0.85 0.83-1.71 1.67-2.58 2.52-0.86 0.84-1.72 1.68-2.61 2.54-2.26 2.25-4.52 4.5-6.73 6.8-1.39 1.44-2.83 2.82-4.27 4.2h-2c-0.27 0.64-0.54 1.28-0.81 1.94-1.19 2.06-1.19 2.06-4.19 3.06l-2 4c-1.49 0.5-1.49 0.5-3 1-0.25 0.57-0.5 1.14-0.76 1.72-1.89 3.48-4.91 5.38-8.05 7.72-8.77 6.4-8.77 6.4-14.2 15.6-0.99 0.5-0.99 0.5-2 1 1.59-7.82 4.28-11.9 10.7-16.8 14.2-11.5 27-24.8 39.9-37.7 1.06-1.06 1.06-1.06 2.15-2.13 2.05-2.05 4.1-4.1 6.14-6.15 0.61-0.61 1.22-1.22 1.85-1.84 5.25-5.28 10.2-10.8 14.8-16.6 11.5-14.6 11.5-14.6 20.4-11.7z" fill="#010101"/>
<path transform="translate(976,363)" d="m0 0c3.36 0.58 4.67 1.58 7 4 0.72 0.41 1.44 0.82 2.19 1.25 5.87 3.65 11 8.57 15.4 13.9 3.6 4.21 7.48 8.1 11.4 12 0.75 0.75 1.5 1.49 2.26 2.26 2.37 2.35 4.73 4.71 7.1 7.06 1.61 1.6 3.22 3.21 4.83 4.82 3.93 3.91 7.86 7.83 11.8 11.7 3.14-1.39 5.25-3.01 7.67-5.44l2.12-2.12c1.12-1.14 1.12-1.14 2.26-2.29 0.77-0.78 1.54-1.55 2.33-2.35 2.46-2.47 4.92-4.95 7.37-7.42 1.67-1.68 3.34-3.36 5-5.04 4.09-4.11 8.17-8.22 12.2-12.3-0.49-0.99-0.49-0.99-1-2h2c0.49-1.49 0.49-1.49 1-3 2.47-0.5 2.47-0.5 5-1l1-3h4l1-2c0.49 0.99 0.49 0.99 1 2-0.66 0.65-1.31 1.31-1.99 1.98-2.32 2.32-4.63 4.66-6.93 7.01-1.42 1.44-2.84 2.88-4.27 4.32-0.72 0.74-1.45 1.48-2.19 2.25-0.69 0.7-1.39 1.4-2.1 2.12-0.63 0.63-1.26 1.27-1.9 1.93-1.62 1.39-1.62 1.39-3.62 1.39-0.25 0.56-0.49 1.11-0.75 1.69-1.49 2.75-3.13 5-5.25 7.31h-3c-0.39 0.87-0.39 0.87-0.78 1.77-1.32 2.41-2.77 4.05-4.72 5.98-0.61 0.61-1.22 1.23-1.84 1.86-1.66 1.39-1.66 1.39-3.66 1.39-0.27 0.64-0.54 1.28-0.81 1.94-1.19 2.06-1.19 2.06-4.19 3.06-0.49 0.99-0.49 0.99-1 2-0.49 0.99-0.49 0.99-1 2-1.48 0.5-1.48 0.5-3 1-3.19-1.81-3.19-1.81-6-4v-2c-0.66-0.5-1.32-0.99-2-1.5-0.66-0.5-1.32-0.99-2-1.5v-2l-4-1c-0.5-1.98-0.5-1.98-1-4-0.62-0.08-1.24-0.17-1.88-0.25-2.12-0.75-2.12-0.75-3.18-2.69-0.31-0.68-0.62-1.36-0.94-2.06l-3-2v-2h-3c-2.85-2.42-4.35-4.7-6-8l-3-2-1-2c-0.66-0.31-1.32-0.62-2-0.94-2-1.06-2-1.06-3-4.06-2-1.21-2-1.21-4-2v-3c-0.56-0.06-1.11-0.12-1.69-0.19-3.29-1.15-4.95-3.28-7.31-5.81-2.72-2.88-2.72-2.88-6-5-0.62-2.06-0.62-2.06-1-4z" fill="#030302"/>
<path transform="translate(864,433)" d="m0 0c3.9 1.3 4.35 2.77 6.31 6.31 0.56 0.97 1.11 1.93 1.68 2.93 1.01 2.76 1.01 2.76 0.43 4.74-0.47 0.67-0.94 1.33-1.42 2.02-0.89 1.44-0.89 1.44-1.79 2.91-2.29 3.2-4.68 5.82-7.52 8.53-0.91 0.88-1.81 1.77-2.74 2.68-2.95 1.88-2.95 1.88-6.6 1.79-3.76-1.02-6.24-2.59-9.35-4.91l-2-1c0.4-4.44 3.46-6.58 6.62-9.31 1.1-0.98 2.2-1.95 3.29-2.93 0.53-0.47 1.06-0.95 1.61-1.43 4.19-3.76 8.3-7.66 11.5-12.3zm5 12 1 2z" fill="#CEA24B"/>
<path transform="translate(734,433)" d="m0 0c4.01 1.56 6.37 4.39 9.12 7.56 4.97 5.58 10.2 10.6 15.9 15.4-0.35 2.72-0.7 3.75-2.86 5.52-0.77 0.43-1.53 0.85-2.33 1.29-0.75 0.44-1.51 0.88-2.29 1.33-3.32 1.13-5.17 0.85-8.52-0.14-5.95-4.17-11.5-9.61-15-16-0.24-5.62 3.18-10.3 6-15zm20 25 2 2v-2h-2z" fill="#FBFDFD"/>
<path transform="translate(1093,333)" d="m0 0c0.96 0.44 1.92 0.87 2.91 1.32 6.96 3.58 12.3 8.37 17.9 13.8 0.73 0.7 1.45 1.39 2.2 2.11 0.99 1 0.99 1 2.01 2.03 0.6 0.6 1.2 1.2 1.82 1.81 1.16 1.93 1.16 1.93 0.85 4.66-0.34 1.13-0.34 1.13-0.69 2.27-0.06-0.62-0.12-1.24-0.19-1.88-0.27-0.7-0.53-1.4-0.81-2.12-0.83-0.33-1.65-0.66-2.5-1-0.83-0.33-1.65-0.66-2.5-1-0.81-2.12-0.81-2.12-1-4h-3v-2c-0.54-0.23-1.07-0.45-1.62-0.69-3.13-1.72-5.64-4.03-8.38-6.31-2.22-1.28-2.22-1.28-4-2v-2c-0.99-0.27-1.98-0.54-3-0.81-2.65-0.75-5-1.61-7.56-2.69-18.6-7.09-41.3-3.7-60.1 1.06-22.2 5.61-22.2 5.61-30.3 1.44-1.44-1.88-1.44-1.88-2-4 0.88-2.25 0.88-2.25 2-4l2 5c9.51 0.41 18-0.74 27.2-2.88 23.4-5.11 46.2-8.63 68.8 1.88z"/>
<path transform="translate(552 327)" d="m0 0c0.74 0.08 1.49 0.16 2.25 0.24 7.49 0.9 14.8 2.59 22.1 4.26 9.78 2.22 18.8 3.8 28.8 2.88v-8h1c0.05 1.79 0.09 3.58 0.12 5.37 0.03 1 0.05 2 0.07 3.02-0.19 2.61-0.19 2.61-2.19 4.61-9.58 1.14-18.9-0.87-28.2-2.94-1.32-0.28-2.64-0.56-3.96-0.84-9.5-2.05-9.5-2.05-11.8-3.22-21.7-3.3-44.4-1.51-63 11-1.87 1.83-1.87 1.83-3.5 3.87-4.14 4.89-8.42 9.2-13.5 13.1-0.66-1.81-0.66-1.81-1-4 1.94-2.47 3.81-4.53 6.06-6.69 0.63-0.62 1.27-1.24 1.92-1.88 18.2-17.3 40.1-23.4 64.8-20.8z"/>
<path transform="translate(983 196)" d="m0 0c0.58 0.25 1.15 0.5 1.75 0.75l-1 5h-2c-0.23 0.56-0.45 1.11-0.69 1.69-1.69 2.97-3.78 5.03-6.31 7.31h-2l-1 3c-1.6 1.58-1.6 1.58-3.63 3.25-4.92 4.18-9.77 8.36-13.4 13.8h-3c-0.23 0.56-0.45 1.11-0.69 1.69-1.67 2.95-3.88 4.94-6.31 7.31-0.66 0.82-1.32 1.65-2 2.5-2.17 2.71-4.52 5.08-7 7.5-1.08 1.11-1.08 1.11-2.19 2.25-2.61 2.56-5.25 5.08-7.94 7.56-0.84 0.79-1.69 1.58-2.57 2.4-2.72 2.12-3.98 1.79-7.3 1.79v2l-2-1c3.63-5.87 3.63-5.87 7-7 0.43-0.87 0.43-0.87 0.87-1.75 1.18-2.35 2.61-3.8 4.47-5.63 2.04-1.99 4.05-4.02 6.06-6.05 1.66-1.67 3.32-3.34 4.97-5.01 0.83-0.83 1.65-1.66 2.5-2.52 4.11-4.13 8.26-8.06 12.7-11.8 1.74-1.56 3.01-3.23 4.27-5.19 2.83-3.98 6.16-6.58 10.1-9.45 2.44-1.92 4.18-4.15 6.05-6.61h2c0.25-0.58 0.5-1.16 0.75-1.75 3.58-6.44 3.58-6.44 7.5-6z" fill="#F3F3F3"/>
<path transform="translate(615,193)" d="m0 0c3.97 0.29 5.95 1.45 8.71 4.23 0.7 0.69 1.4 1.39 2.12 2.1 0.74 0.76 1.49 1.52 2.26 2.31 0.81 0.8 1.61 1.6 2.43 2.42 2.65 2.65 5.28 5.31 7.91 7.98 1.83 1.83 3.66 3.67 5.49 5.51 4.33 4.34 8.65 8.69 13 13 4.91 4.96 9.84 9.91 14.8 14.8 10.1 10.2 20.2 20.4 30.4 30.6 0.62-0.5 1.24-0.99 1.88-1.5 2.12-1.5 2.12-1.5 4.12-1.5 0.5-1.49 0.5-1.49 1-3h2c0.5-1.49 0.5-1.49 1-3h2c0.5-1.49 0.5-1.49 1-3 2.13-0.82 2.13-0.82 5-1 2.28 1.66 4.04 3.2 5.99 5.2 0.55 0.54 1.1 1.08 1.67 1.65 1.16 1.15 2.31 2.31 3.45 3.48 1.76 1.79 3.54 3.54 5.34 5.29 1.12 1.13 2.24 2.26 3.35 3.39 0.81 0.78 0.81 0.78 1.63 1.59 1.47 1.52 1.47 1.52 3.57 4.4-0.18 2.87-0.18 2.87-1 5-3.27-3.15-6.2-6.43-9-10v-2c-0.54-0.22-1.08-0.43-1.64-0.66-3.18-1.8-5.57-4.26-8.11-6.84-0.51-0.5-1.01-1-1.54-1.51-3.71-3.74-3.71-3.74-3.71-5.99-1.11 0.6-2.23 1.2-3.38 1.81-0.62 0.34-1.25 0.68-1.89 1.02-2.04 1.22-2.04 1.22-3.73 4.17h-2v2h-2c-0.1 0.64-0.21 1.28-0.31 1.94-0.23 0.68-0.46 1.36-0.69 2.06-3 1-3 1-4.88 0.38-4.08-2.65-7.27-5.84-9.12-10.4h-2c-2.62-2.38-2.62-2.38-5-5v-2c-1.49-0.5-1.49-0.5-3-1v-2c-0.64-0.27-1.28-0.54-1.94-0.81-2.06-1.19-2.06-1.19-3.06-4.19-1.32-0.69-2.66-1.35-4-2-1.46-1.28-2.88-2.62-4.25-4-1.06-1.05-1.06-1.05-2.14-2.12-1.61-1.88-1.61-1.88-1.61-3.88-0.99-0.33-1.98-0.66-3-1-2.19-1.94-2.19-1.94-4-4v-2h-2c-1.27-1.29-1.27-1.29-2.81-3.19-3.49-4.11-7.2-7.94-11-11.8-0.58-0.58-1.15-1.16-1.75-1.75-2.94-3.03-2.94-3.03-6.44-5.31v-2h-2v-2c-0.99-0.33-1.98-0.66-3-1v-2c-0.56-0.23-1.11-0.45-1.69-0.69-2.94-1.67-4.92-3.92-7.31-6.31-1.63-1.05-3.29-2.07-5-3l-1 3c-0.62-1.88-0.62-1.88-1-4l2-2z" fill="#020202"/>
<path transform="translate(506,371)" d="m0 0c3.81 0.53 5.89 1.36 8.71 3.96 0.69 0.63 1.38 1.26 2.09 1.92 4.01 3.86 7.92 7.82 11.8 11.8 1.82 1.85 3.65 3.7 5.47 5.55 2.86 2.89 5.7 5.79 8.54 8.7 2.75 2.83 5.53 5.63 8.3 8.44 0.85 0.88 1.7 1.76 2.58 2.66 0.8 0.8 1.59 1.6 2.41 2.42 0.69 0.71 1.39 1.42 2.11 2.15 1.85 1.59 1.85 1.59 3.98 1.34 2.5-1.19 4.07-2.64 6.03-4.6 0.78-0.77 1.57-1.54 2.37-2.33 0.83-0.84 1.66-1.68 2.52-2.54 1.29-1.29 1.29-1.29 2.61-2.6 1.81-1.81 3.63-3.63 5.43-5.45 2.78-2.8 5.58-5.58 8.37-8.35 1.76-1.76 3.52-3.53 5.28-5.29 0.84-0.84 1.68-1.67 2.55-2.53 1.15-1.17 1.15-1.17 2.32-2.36l2.07-2.07c1.76-1.83 1.76-1.83 1.45-4.83 1.61-1.35 1.61-1.35 3.75-2.62 1.04-0.64 1.04-0.64 2.11-1.29 2.06-1.05 3.89-1.63 6.14-2.09 0 3 0 3-1.5 4.54-0.68 0.55-1.36 1.09-2.06 1.65-2.95 2.46-5.53 4.94-8 7.87-2.72 3.2-5.58 5.9-8.81 8.57-3.16 2.66-5.98 5.68-8.82 8.68-1.81 1.69-1.81 1.69-3.81 1.69-0.23 0.56-0.45 1.11-0.69 1.69-1.68 2.97-3.84 4.96-6.31 7.31-1.33 1.39-1.33 1.39-2.69 2.81-2.31 2.19-2.31 2.19-4.31 2.19-0.27 0.76-0.54 1.53-0.81 2.31-1.13 2.56-2.1 3.89-4.19 5.69-4.39-1.38-6.54-3.34-9.5-6.81-1.17-1.35-1.17-1.35-2.36-2.72-0.71-0.82-1.41-1.63-2.14-2.47-1.65-1.69-3.31-3.36-5-5-2.62-2.61-5.23-5.23-7.83-7.87-4.98-5.03-9.97-9.9-15.4-14.5-2.63-2.41-4.83-5.13-7.12-7.86-1.61-1.72-3.13-2.91-5.12-4.17-0.84-0.53-1.69-1.07-2.56-1.62v-2z" fill="#030302"/>
<path transform="translate(986,193)" d="m0 0c1 1 1 1 1.06 4.06-0.02 0.97-0.04 1.94-0.06 2.94l-1-4c-2.76 0.08-4.49 0.5-6.49 2.45-1.53 1.83-3.02 3.69-4.51 5.55-4.04 4.25-8.34 8.43-13 12h-2c-0.37 0.84-0.37 0.84-0.75 1.69-2.27 4.2-5.18 7.31-8.8 10.4-4.91 4.27-9.49 8.82-14.1 13.4-0.82 0.82-1.64 1.63-2.49 2.47-4.06 4.07-7.95 8.19-11.6 12.6-1.57 1.79-3.28 3.3-5.13 4.81-3.77 3.19-6.92 6.73-10.2 10.5-2.76 3.04-5.78 5.57-8.96 8.16-4.5-1.37-6.19-3.31-9-7-0.91-0.72-1.82-1.44-2.75-2.19-0.74-0.6-1.49-1.19-2.25-1.81v-2h-4c-1.21 1.38-2.4 2.76-3.52 4.22-2.24 2.69-4.9 4.85-7.56 7.12-3.37 2.92-6.37 5.95-9.11 9.47-0.89 1.09-0.89 1.09-1.81 2.19h-2c-0.5 0.99-0.5 0.99-1 2 0.44-4.42 3.45-6.91 6.43-9.89 0.81-0.83 0.81-0.83 1.64-1.68 1.15-1.16 2.31-2.31 3.47-3.47 1.77-1.77 3.52-3.56 5.27-5.36 1.12-1.12 2.24-2.25 3.37-3.37 0.52-0.54 1.04-1.08 1.58-1.63 3.67-3.6 3.67-3.6 6.42-3.6 1.94 1.07 3.29 2.13 4.84 3.72 0.52 0.54 1.05 1.08 1.6 1.63 0.54 0.57 1.07 1.13 1.63 1.71 0.55 0.57 1.11 1.14 1.68 1.72 1.36 1.4 2.72 2.81 4.07 4.22 5.2-4.34 10-8.92 14.8-13.8 1.12-1.13 1.12-1.13 2.26-2.28 1.6-1.62 3.21-3.24 4.81-4.86 3.4-3.45 6.82-6.89 10.2-10.3 6.35-6.4 12.7-12.8 19-19.2 4.41-4.47 8.84-8.93 13.3-13.4 1.69-1.69 3.37-3.4 5.05-5.1 2.33-2.38 4.69-4.75 7.05-7.11 0.69-0.71 1.38-1.42 2.09-2.15 0.97-0.96 0.97-0.96 1.95-1.94 0.56-0.56 1.11-1.12 1.68-1.69 2.38-1.57 4.01-1.48 6.8-1.19z" fill="#030303"/>
<path transform="translate(861,367)" d="m0 0c0.5 1.98 0.5 1.98 1 4-0.62 0.25-1.24 0.5-1.88 0.75-2.24 1.05-2.24 1.05-3.01 3.11-1.3 2.51-2.76 3.78-4.92 5.58-2.4 2.02-4.65 4.02-6.88 6.25-2.31 2.31-4.76 4.27-7.31 6.31l-2.5 2.5c-2.5 2.5-2.5 2.5-4.94 4.38-2.74 2.27-4.83 4.74-7.1 7.47-1.46 1.65-1.46 1.65-3.9 3.59-4.52 3.64-8.1 8.21-11.7 12.8-5.58 6.88-5.58 6.88-9.88 8.31-0.19 0.87-0.19 0.87-0.38 1.75-0.92 3.32-3.17 4.86-5.62 7.25-1.78 1.93-3.55 3.86-5.31 5.81-0.89 0.98-1.77 1.95-2.68 2.96-0.66 0.74-1.33 1.47-2.01 2.23-7.27-1.67-13-5.15-17.3-11.2-0.56-0.91-1.12-1.81-1.69-2.75 6.25 0.13 9.25 2.41 13.9 6.5 2.22 1.89 2.22 1.89 6.11 1.5 1.78-1.7 1.78-1.7 3.31-4 5-6.79 10.2-12.7 16.6-18.1 1.92-1.73 3.54-3.49 5.2-5.46 4.37-5.06 9.07-9.76 13.8-14.5 1.28-1.29 1.28-1.29 2.59-2.61 4.47-4.46 9-8.76 13.8-12.9 1.99-1.73 3.85-3.56 5.68-5.46 3.25-3.31 6.65-6.37 10.2-9.39 2.39-2.1 4.61-4.32 6.83-6.61z" fill="#030302"/>
<path transform="translate(674,7)" d="m0 0c13-0.02 26-0.04 39.1-0.05 6.05-0.01 12.1-0.01 18.1-0.03 5.83-0.01 11.7-0.01 17.5-0.01 2.23-0.01 4.46-0.01 6.68-0.02h9.34c0.93-0.01 1.86-0.01 2.82-0.01 6.36 0.01 6.36 0.01 7.47 1.12 0.1 2.51 0.14 4.99 0.12 7.5 0.01 0.7 0.01 1.41 0.02 2.13-0.01 5.24-0.01 5.24-1.14 6.37-2.7 0.07-5.37 0.09-8.06 0.06-0.76 0-1.52-0.01-2.3-0.01-1.88-0.01-3.76-0.03-5.64-0.05 0.5-1.48 0.5-1.48 1-3h14l1-11c-3.52-0.7-6.06-1.12-9.51-1.11h-2.61c-0.92 0-1.83 0.01-2.77 0.01-0.95 0-1.9 0.01-2.88 0.01-3.01 0-6.03 0.01-9.04 0.03-2.05 0-4.1 0.01-6.15 0.01-5.01 0.01-10 0.03-15 0.05-0.03 2.12-0.05 4.25-0.06 6.38-0.01 1.18-0.03 2.36-0.04 3.58-0.11 2.96-0.11 2.96 1.1 5.04h-19v84c-0.99-0.33-1.98-0.66-3-1h2c0-1.05 0-2.1-0.01-3.18-0.02-9.85-0.03-19.7-0.04-29.6-0.01-5.07-0.01-10.1-0.03-15.2-0.01-4.89-0.01-9.78-0.01-14.7-0.01-1.87-0.01-3.73-0.02-5.6v-7.83c-0.01-0.78-0.01-1.56-0.01-2.36 0.01-5.35 0.01-5.35 1.12-7.58h13c0.28-2.69 0.28-2.69 0.56-5.44 0.11-1.01 0.21-2.02 0.32-3.06 0.04-0.82 0.08-1.65 0.12-2.5-1.57-1.57-3.15-1.16-5.34-1.21-0.92-0.02-1.84-0.04-2.79-0.06-1-0.01-2-0.03-3.03-0.05-1.02-0.02-2.04-0.04-3.09-0.06-3.27-0.06-6.54-0.12-9.81-0.18-2.21-0.05-4.43-0.09-6.64-0.13-5.43-0.11-10.9-0.21-16.3-0.31v6h-1v-7zm48 14 1 2z" fill="#0E0E08"/>
<path transform="translate(889,480)" d="m0 0c0.56 0.72 1.11 1.44 1.69 2.19 4.35 5.29 8.25 9.82 15.3 10.8 1.6-0.47 3.18-1 4.75-1.56 2.55-0.61 2.55-0.61 5.25-0.44 10 6.34 15.7 17.5 21.4 27.6 1.93 3.42 4.1 6.39 6.59 9.44v2c-0.99 0.33-1.98 0.66-3 1-12-13.1-12-13.1-12-20l-2-1c-0.97-1.22-1.91-2.48-2.81-3.75-2.54-3.42-4.88-6.55-8.19-9.25-1.9 0.32-1.9 0.32-4 1-5.11 0.79-9.27 1-13.8-1.64-3.86-3.05-7.55-6.14-10.2-10.4 0.31-3.25 0.31-3.25 1-6z" fill="#020201"/>
<path transform="translate(711,476)" d="m0 0 2 1c0.26 4.03-0.44 6.59-2.25 10.2-0.42 0.86-0.84 1.72-1.27 2.6-1.65 2.47-2.83 3.01-5.48 4.21l-2 3c-5.64 1.88-12.3 1.53-18 0-0.76 0.97-1.53 1.94-2.31 2.94-1.96 2.48-2.55 3.01-5.69 4.06-1.01 1.66-2.01 3.33-3 5h-2c-0.06 0.66-0.12 1.32-0.19 2-0.93 3.45-2.46 5.83-4.4 8.8-2.32 3.63-4.35 7.42-6.41 11.2-0.99-0.33-1.98-0.66-3-1 0.63-3.21 1.77-5.51 3.51-8.27 0.77-1.21 0.77-1.21 1.55-2.44 0.54-0.84 1.07-1.68 1.63-2.54 0.52-0.82 1.03-1.64 1.57-2.49 3.35-5.27 6.9-10.3 10.7-15.3 0.65-0.86 1.31-1.72 1.98-2.6 1.9-2.18 3.55-3.88 6.02-5.4 2.74 0.06 4.93 0.67 7.54 1.46 4.05 0.89 6.95-0.48 10.5-2.46 4.65-3.1 7.35-6.34 8.69-11.8 0.1-0.72 0.2-1.45 0.31-2.19z" fill="#050404"/>
<path transform="translate(898 88.9)" d="m0 0c1.17-0 2.33-0.01 3.53-0.01 2.97 0.13 2.97 0.13 4.97 1.13-0.09 2.47-0.19 4.92-0.31 7.38-0.03 0.7-0.05 1.4-0.07 2.12-0.11 2.03-0.11 2.03-0.62 5.5-4.88 3.26-10.2 2.66-16 3v-18c2.85-1.42 5.32-1.13 8.5-1.12z" fill="#EDEEEE"/>
<path transform="translate(775 320)" d="m0 0c6.2 2.41 11.6 6.39 15 12.2l-1 3c-0.5-0.99-0.5-0.99-1-2-0.99-0.33-1.98-0.66-3-1v-2h-2l-3-3c-2.31-1.89-2.31-1.89-5-3-3.86 0.9-4.77 1.66-7 5h-2v2c-1.65 1.7-1.65 1.7-3.82 3.57-1.06 0.93-1.06 0.93-2.14 1.88-2.04 1.55-2.04 1.55-5.04 2.55l-2 4c-0.99 0.33-1.98 0.66-3 1-1.07 1.88-1.07 1.88-2 4-2.9 3.96-6.25 7.29-10 10.4-3.56 3.01-6.22 6.25-8.87 10.1-0.38 0.5-0.75 0.99-1.13 1.5h-1c-0.32-3.53-0.4-5.41 1.62-8.39 0.76-0.78 1.52-1.55 2.31-2.34 0.85-0.89 1.71-1.77 2.6-2.68 0.95-0.95 1.9-1.89 2.85-2.83 0.97-0.98 1.94-1.96 2.91-2.94 2.03-2.05 4.07-4.09 6.12-6.12 2.63-2.6 5.22-5.24 7.8-7.88 2-2.03 4.01-4.04 6.03-6.05 0.96-0.96 1.92-1.93 2.87-2.91 7.63-7.8 7.63-7.8 12.8-8.04z"/>
<path transform="translate(596 192)" d="m0 0c2.89 1.1 4.47 2.73 6.67 4.91 1.32 1.3 1.32 1.3 2.67 2.63 0.96 0.95 1.91 1.91 2.87 2.86 0.98 0.98 1.96 1.95 2.95 2.93 2.05 2.04 4.11 4.09 6.15 6.14 2.63 2.64 5.28 5.25 7.93 7.86 2.03 2.01 4.05 4.03 6.07 6.05 0.97 0.97 1.95 1.94 2.93 2.9 1.36 1.34 2.71 2.7 4.05 4.06 0.78 0.77 1.55 1.54 2.34 2.33 1.53 2.15 1.53 2.15 1.27 4.43-0.25 0.57-0.49 1.13-0.74 1.72l-1-3h-2c-1.34-1.36-1.34-1.36-2.82-3.19-3.1-3.75-6.43-7.18-10-10.5-1.18-1.31-1.18-1.31-1.18-3.31-0.64-0.27-1.28-0.54-1.94-0.81-2.06-1.19-2.06-1.19-3.06-4.19-0.64-0.31-1.28-0.62-1.94-0.94-2.56-1.32-2.8-2.54-4.06-5.06-0.59-0.28-1.17-0.56-1.78-0.84-2.83-1.48-4.64-3.42-6.85-5.72-2.88-3.13-2.88-3.13-6.37-5.44v-2c-3.24 0.27-4.65 0.62-6.89 3.03-2.56 3.59-4.59 7.31-6.61 11.2-0.4 0.75-0.79 1.51-1.2 2.29-2.34 4.5-4.58 9.02-6.55 13.7-0.75 1.76-0.75 1.76-1.81 3.72-1.01 2.17-1.33 3.92-1.57 6.29-0.18 1.85-0.18 1.85-0.37 3.75h-1c-0.85-8.14 1.64-13.8 5.17-21.1 0.88-1.83 1.74-3.67 2.59-5.52 10.3-21.8 10.3-21.8 16.1-21.2z" fill="#030302"/>
<path transform="translate(830,321)" d="m0 0c2.24 1.73 2.24 1.73 4.53 4 1.3 1.27 1.3 1.27 2.62 2.57 0.92 0.92 1.83 1.84 2.78 2.79 0.96 0.96 1.92 1.91 2.88 2.86 2 2 4 4 5.99 6.01 2.56 2.57 5.14 5.13 7.72 7.67 1.99 1.97 3.96 3.94 5.93 5.92 1.4 1.4 2.82 2.8 4.24 4.2 0.84 0.85 1.69 1.71 2.56 2.59 0.75 0.76 1.5 1.51 2.27 2.28 1.48 2.11 1.48 2.11 1.21 4.38-0.24 0.57-0.48 1.14-0.73 1.73-5-5-5-5-7.19-7.25-6.83-7.15-6.83-7.15-14.8-12.8-0.67-1.33-1.33-2.67-2-4l-2-1v-2l-4-1-1-4-4-1v-2h-2c-0.21-0.95-0.41-1.9-0.62-2.88-1.08-3.36-1.08-3.36-4.26-4.5-3.24-0.75-3.24-0.75-7.12-0.62v-4c2.77-1.39 4.06-0.9 7 0z" fill="#040402"/>
<path transform="translate(918 6.9)" d="m0 0c1.58 0.01 3.16 0.02 4.75 0.04 0.8 0 1.61 0 2.44 0.01 2 0.01 4 0.03 5.99 0.05 1.51 3.01 1.17 6.14 1.19 9.44 0.01 0.77 0.02 1.54 0.03 2.33 0.02 1.67 0.03 3.34 0.04 5.01 0.02 2.64 0.05 5.28 0.08 7.91 0.07 6.56 0.13 13.1 0.19 19.7 0.05 5.53 0.11 11.1 0.17 16.6 0.02 2.61 0.04 5.21 0.06 7.82 0.02 1.59 0.04 3.18 0.05 4.77 0.01 1.09 0.01 1.09 0.02 2.21-0.01 3.74-0.01 3.74 1.17 7.24 4.02 0.27 4.02 0.27 8 0 2.06-1.84 2.06-1.84 3-4v5c-4.32 2.22-7.3 2.06-12 1-3.5-3.51-2.98-8.5-3.04-13.2 0.02-3.93 0.09-7.85 0.16-11.8 0.03-1.45 0.05-2.89 0.08-4.34 0.06-3.78 0.13-7.56 0.2-11.3 0.07-3.87 0.13-7.74 0.2-11.6 0.13-7.57 0.26-15.1 0.4-22.7l-2-1h2v-2l-2-1h2v-3c-5.9-1.28-10.6-1-17-1v80h-1c-0.02-10.6-0.04-21.1-0.05-31.6 0-4.9-0.01-9.79-0.02-14.7-0.01-4.72-0.02-9.44-0.02-14.2 0-1.81-0.01-3.61-0.01-5.42-0.01-2.51-0.01-5.03-0.01-7.55 0-0.76-0.01-1.51-0.01-2.29 0.01-6.23 0.01-6.23 4.94-6.36z" fill="#010101"/>
<path transform="translate(1070,329)" d="m0 0c0.49 0.99 0.49 0.99 1 2-1.53-0.03-1.53-0.03-3.09-0.07-15.6-0.25-30.1 1.47-45.3 5.31-19.7 4.84-19.7 4.84-27.6 0.76-1.44-1.88-1.44-1.88-2-4 0.88-2.25 0.88-2.25 2-4l2 5c8.86 0.57 16.5-0.58 25.1-2.57 5.45-1.23 10.5-1.79 16.1-1.47 0.91 0.02 0.91 0.02 1.84 0.04l1-1c9.44-1.63 19.6-1.81 29 0z" fill="#010203"/>
<path transform="translate(577,7)" d="m0 0c7.1-0.02 14.2-0.04 21.3-0.05 2.42-0.01 4.83-0.02 7.25-0.03 3.47-0.01 6.94-0.01 10.4-0.02 1.09 0 2.18-0.01 3.3-0.01h3.04c1.33-0.01 1.33-0.01 2.68-0.01 2.02 0.12 2.02 0.12 3.02 1.12 0.1 2.51 0.14 4.99 0.12 7.5 0.01 1.05 0.01 1.05 0.02 2.13-0.01 5.24-0.01 5.24-1.14 6.37-2.53 0.07-5.03 0.09-7.56 0.06-1.07 0-1.07 0-2.16-0.01-1.76-0.01-3.52-0.03-5.28-0.05 0 1.02 0 2.05 0.01 3.1 0.02 9.62 0.03 19.2 0.04 28.9 0.01 4.95 0.01 9.9 0.03 14.8 0.01 4.78 0.01 9.55 0.01 14.3 0.01 1.83 0.01 3.65 0.02 5.47v7.65c0.01 0.76 0.01 1.51 0.01 2.3-0.01 5.22-0.01 5.22-1.12 7.45l-4-1h3c0.01-1.05 0.02-2.1 0.03-3.18 0.1-9.85 0.2-19.7 0.31-29.6 0.05-5.07 0.11-10.1 0.16-15.2 0.04-4.89 0.1-9.78 0.15-14.7 0.02-1.87 0.04-3.73 0.06-5.6 0.02-2.61 0.05-5.22 0.08-7.83 0.01-0.78 0.02-1.56 0.02-2.36 0.08-5.35 0.08-5.35 1.19-7.58h14v-11c-2.83-0.94-4.54-1.12-7.47-1.11h-2.73c-1.45 0-1.45 0-2.94 0.01-0.99 0-1.99 0.01-3.01 0.01-3.18 0-6.36 0.01-9.54 0.03-2.15 0-4.31 0.01-6.46 0.01-5.28 0.01-10.6 0.03-15.8 0.05v14h-1v-16z" fill="#070705"/>
<path transform="translate(1089,372)" d="m0 0 2 2c-0.66 0.65-1.31 1.31-1.99 1.98-2.32 2.32-4.63 4.66-6.93 7.01-1.42 1.44-2.84 2.88-4.27 4.32-1.08 1.11-1.08 1.11-2.19 2.25-0.69 0.7-1.39 1.4-2.1 2.12-0.63 0.63-1.26 1.27-1.9 1.93-1.62 1.39-1.62 1.39-3.62 1.39-0.25 0.56-0.49 1.11-0.75 1.69-1.49 2.75-3.13 5-5.25 7.31h-3c-0.39 0.87-0.39 0.87-0.78 1.77-1.32 2.41-2.77 4.05-4.72 5.98-0.61 0.61-1.22 1.23-1.84 1.86-1.66 1.39-1.66 1.39-3.66 1.39l-1 3c-2.47 0.5-2.47 0.5-5 1 4.11-4.9 8.39-9.52 12.9-14 0.63-0.63 1.27-1.26 1.92-1.92 2.01-2 4.02-3.99 6.03-5.99 1.37-1.36 2.73-2.73 4.1-4.09 3.34-3.33 6.68-6.65 10-9.97-0.49-0.99-0.49-0.99-1-2h2l1-3 5-1 1-3h4v-2z" fill="#030302"/>
<path transform="translate(1006 193)" d="m0 0c2.98 1.54 4.05 2.9 5.83 5.71 0.5 0.77 1 1.54 1.51 2.34 1.15 2.13 1.78 3.92 2.24 6.29h-2v-2c-0.99-0.33-1.98-0.66-3-1-0.48-1.16-0.95-2.31-1.44-3.5-1.13-3.54-1.13-3.54-3.42-4.41-2.21-0.3-2.21-0.3-4.07 1.09-0.96 0.9-0.96 0.9-1.95 1.82-0.69 0.64-1.39 1.29-2.1 1.96-2.35 2.37-4.52 4.83-6.65 7.4-5.98 7.15-5.98 7.15-10.4 7.64-0.1 0.64-0.21 1.27-0.31 1.93-0.23 0.68-0.46 1.36-0.69 2.07-0.99 0.33-1.98 0.66-3 1-1.58 1.55-1.58 1.55-3.13 3.5-3.44 4.07-7.13 7.8-11 11.5-2.09 2.03-2.09 2.03-3.92 4.98-0.75-1.72-0.75-1.72-1-4 1.53-2.15 1.53-2.15 3.89-4.48 0.88-0.88 1.75-1.76 2.65-2.66 0.97-0.95 1.94-1.9 2.92-2.84l2.94-2.94c2.07-2.05 4.14-4.09 6.21-6.13 2.67-2.61 5.32-5.24 7.96-7.87 2.52-2.5 5.05-5 7.57-7.5 0.49-0.48 0.97-0.96 1.47-1.45 1.36-1.35 2.74-2.7 4.11-4.04 1.17-1.16 1.17-1.16 2.36-2.33 3.21-2.96 3.21-2.96 6.34-2.1z" fill="#020202"/>
<path transform="translate(735 231)" d="m0 0c17.3 5.63 32 24.1 41.2 38.8 1.08 2.58 0.91 3.65-0.07 6.22-0.49-1.98-0.49-1.98-1-4h-2c-1.37-2.06-2.64-4.1-3.87-6.25-2.35-4.06-4.76-7.45-8.13-10.8v-2c-0.99-0.33-1.98-0.66-3-1v-2h-2v-2c-0.55-0.24-1.11-0.49-1.69-0.75-2.73-1.48-4.98-3.18-7.31-5.25v-2c-0.88-0.26-1.77-0.53-2.69-0.81-3.31-1.19-3.31-1.19-5.87-2.81-2.74-1.55-4.35-1.64-7.44-1.38-0.15 0.96-0.15 0.96-0.31 1.94-0.23 0.68-0.45 1.36-0.69 2.06-0.99 0.33-1.98 0.66-3 1l-1 2h-2v2h-2c0.56-3.96 2.46-5.97 5.19-8.81 0.76-0.81 1.51-1.62 2.29-2.46 2.52-1.73 2.52-1.73 5.44-1.73z" fill="#000001"/>
<path transform="translate(864,433)" d="m0 0c3.9 1.3 4.35 2.77 6.31 6.31 0.56 0.97 1.11 1.93 1.68 2.93 0.33 0.91 0.67 1.82 1.01 2.76l-2 4-5-9c-3.68 1.84-4.76 2.62-7.19 5.62-4.74 5.61-10 11.3-16.8 14.4l-1-4c0.86-0.79 1.71-1.57 2.6-2.38 11-9.57 11-9.57 20.4-20.6z" fill="#020201"/>
<path transform="translate(636 286)" d="m0 0c3.43 1.14 5.88 3.24 8.58 5.57 0.52 0.43 1.05 0.86 1.59 1.3 3.16 2.67 5.49 5.21 7.28 8.95-0.19 2.75-0.19 2.75-1 5-0.99 0.49-0.99 0.49-2 1-0.69-2.08-1.38-4.17-2.06-6.25-2.03-4.74-5.81-7.81-9.94-10.8-2.84-1.29-2.84-1.29-4.99-0.28-2.15 1.37-3.48 2.74-5.07 4.71-3.8 4.68-3.8 4.68-5.94 6.57h-2v2l-4 1v-2h-2c-0.31-1.1-0.62-2.19-0.94-3.32-0.64-2.24-1.32-4.47-2.06-6.68 0.28-2.01 0.6-4.01 1-6h1c0.17 0.9 0.17 0.9 0.33 1.83 0.16 0.79 0.32 1.59 0.48 2.42 0.16 0.79 0.31 1.57 0.46 2.39 0.81 2.62 2.05 4.21 3.73 6.36l1.3-1.3c1.95-1.94 3.92-3.85 5.89-5.77l2.04-2.04c0.66-0.64 1.32-1.27 2-1.93 0.61-0.59 1.21-1.18 1.83-1.79 1.94-1.17 1.94-1.17 4.49-0.99z" fill="#040403"/>
<path transform="translate(734,433)" d="m0 0c4.01 1.56 6.37 4.39 9.12 7.56 4.97 5.58 10.2 10.6 15.9 15.4l-1 4h-2v-2c-0.99-0.33-1.98-0.66-3-1v-2c-0.64-0.1-1.28-0.21-1.94-0.31-0.68-0.23-1.36-0.46-2.06-0.69l-1-3c-0.74-0.27-1.49-0.54-2.25-0.81-4.98-2.15-7.57-6.95-10.8-11.2l-6 9c-1.21-4.82-0.48-5.6 1.94-9.75 0.56-0.98 1.13-1.97 1.71-2.98 0.45-0.75 0.89-1.5 1.35-2.27z" fill="#050503"/>
<path transform="translate(585,289)" d="m0 0c1.71 4.08 3.39 8.16 5.06 12.2 0.49 1.16 0.97 2.32 1.47 3.51 0.46 1.12 0.91 2.23 1.38 3.38 0.42 1.03 0.85 2.05 1.29 3.11 0.82 2.82 0.84 4.06-0.2 6.75v-2l-2-1c-1.73-4.27-2.45-8.44-3-13h-2v-4h-2l-2-5h-2c-0.5 0.66-0.99 1.32-1.5 2-0.5 0.66-0.99 1.32-1.5 2h-2c-0.27 0.64-0.54 1.28-0.81 1.94-1.19 2.06-1.19 2.06-4.19 3.06l-2 4c-0.99 0.33-1.98 0.66-3 1l-2 4c-0.99 0.33-1.98 0.66-3 1-0.7 1.32-1.37 2.65-2 4l-3 3-1 3c-0.99-0.33-1.98-0.66-3-1 0.49-4.28 2.94-6.3 5.92-9.25 0.49-0.49 0.99-0.98 1.5-1.49 1.05-1.04 2.1-2.08 3.15-3.11 1.6-1.57 3.19-3.15 4.78-4.73 13.5-13.4 13.5-13.4 17.6-13.4z" fill="#020202"/>
<path transform="translate(867 231)" d="m0 0c2.74 1.33 4.6 3.12 6.77 5.26 0.81 0.78 1.62 1.56 2.45 2.36 1.73 2.33 1.73 2.33 1.49 4.62-0.37 0.85-0.37 0.85-0.76 1.71-2.66-2.67-5.33-5.33-8-8-1.8-1.37-1.8-1.37-4-2-2.33 0.85-2.33 0.85-4.56 2.37-4.16 2.63-4.16 2.63-7.44 2.63-0.24 0.62-0.49 1.24-0.75 1.87-1.25 2.13-1.25 2.13-3.11 3.02-2.51 1.3-3.78 2.76-5.57 4.92-2.73 3.22-5.58 6.21-8.57 9.19-4.74 5.11-7.8 10.8-11 17-1-3-1-3 0.01-5.43 7.58-13 26.2-39.9 43-39.5z" fill="#040403"/>
<path transform="translate(674,7)" d="m0 0c13-0.02 26-0.04 39.1-0.05 6.05-0.01 12.1-0.01 18.1-0.03 5.83-0.01 11.7-0.01 17.5-0.01 2.23-0.01 4.46-0.01 6.68-0.02h9.34c0.93-0.01 1.86-0.01 2.82-0.01 6.36 0.01 6.36 0.01 7.47 1.12 0.1 2.51 0.14 4.99 0.12 7.5 0.01 0.7 0.01 1.41 0.02 2.13-0.01 5.24-0.01 5.24-1.14 6.37-2.7 0.07-5.37 0.09-8.06 0.06-0.76 0-1.52-0.01-2.3-0.01-1.88-0.01-3.76-0.03-5.64-0.05 0.5-1.48 0.5-1.48 1-3h14l1-11c-3.37-0.67-5.86-1.13-9.17-1.16-1.2-0.01-1.2-0.01-2.42-0.03-0.86 0-1.72-0.01-2.61-0.02-0.91-0.01-1.83-0.02-2.78-0.03-3.02-0.03-6.05-0.05-9.07-0.08l-6.3-0.06c-5.52-0.05-11-0.1-16.6-0.15-5.64-0.05-11.3-0.11-16.9-0.16-11.1-0.11-22.1-0.21-33.2-0.31v6h-1v-7z" fill="#090908"/>
<path transform="translate(875,453)" d="m0 0c3.3 0.58 4.91 1.55 7.23 3.94 0.58 0.58 1.15 1.17 1.74 1.77 0.59 0.61 1.18 1.22 1.78 1.85 0.6 0.62 1.2 1.23 1.82 1.87 1.49 1.52 2.96 3.04 4.43 4.57l-2 4c-0.39-0.41-0.78-0.82-1.19-1.25-1.86-1.86-1.86-1.86-4.31-3.69-2.5-2.06-2.5-2.06-4.06-4.31-0.48-0.58-0.95-1.15-1.44-1.75h-4c-1.39 1.62-2.71 3.3-4 5-5.24 5-5.24 5-8 5l-1 2c-0.86-2.15-0.86-2.15-1-5 1.9-2.15 3.62-3.83 5.81-5.62 4.5-3.8 4.5-3.8 8.19-8.38z" fill="#040403"/>
<path transform="translate(1016,289)" d="m0 0c3.67 0.42 5.28 1.99 7.75 4.62 2.58 2.69 5.16 5.23 8 7.63 3.69 3.21 7.28 6.5 10.8 9.87 0.55 0.51 1.1 1.01 1.67 1.53 1.52 1.48 1.52 1.48 3.77 4.35-0.16 2.87-0.16 2.87-1 5-2.04-1.62-4.04-3.29-6-5v-2c-0.99-0.33-1.98-0.66-3-1-1.71-1.62-3.37-3.3-5-5-0.83-0.82-1.65-1.65-2.5-2.5-0.83-0.82-1.65-1.65-2.5-2.5-0.83-0.8-1.65-1.61-2.5-2.44-1.87-1.91-3.52-3.79-5.19-5.87-0.76-0.89-1.52-1.78-2.31-2.69h-2l-2 2c0.88-4.88 0.88-4.88 2-6z" fill="#060503"/>
<path transform="translate(724 453)" d="m0 0c2.74 1.09 4 2.82 5.87 5.08 2.29 2.7 4.25 4.83 7.07 7 0.66 0.56 1.32 1.11 2 1.69v4c-6.71-1.94-6.71-1.94-9-5v-2h-2c-1.39-1.63-2.72-3.3-4-5-4.93 2.01-8.1 5.64-11 10-2.13 0.68-2.13 0.68-4 1 0.34-5.31 3.2-7.84 6.81-11.4 0.53-0.56 1.07-1.11 1.62-1.69 4.01-4 4.01-4 6.63-3.7z" fill="#020201"/>
<path transform="translate(794,433)" d="m0 0c2.25 0.25 2.25 0.25 4 1-5.27 6.06-10.6 12-16 18-7.27-1.67-13-5.15-17.3-11.2-0.56-0.91-1.12-1.81-1.69-2.75 6.25 0.13 9.25 2.41 13.9 6.5 2.22 1.89 2.22 1.89 6.11 1.5 1.88-1.84 1.88-1.84 3.5-4.25 4.62-6.42 4.62-6.42 7.5-8.75z" fill="#050504"/>
<path transform="translate(965,286)" d="m0 0c2.89 1.15 4.98 2.7 7.23 4.82 0.58 0.54 1.15 1.07 1.74 1.62 0.59 0.56 1.18 1.11 1.78 1.68s1.2 1.13 1.82 1.71c1.48 1.39 2.96 2.78 4.43 4.17 3.28-2.92 3.96-5.75 5-10h1c0.51 6.07-0.96 9.77-4 15-5.8-1.99-9.44-5.1-13-10-1.65-1.69-3.31-3.36-5-5-5.55 2.17-5.55 2.17-10 6h-2l-2 5h-2l-1 6-2-1c0.91-6.68 5.13-10.6 10.2-14.8 2.54-1.93 4.98-3.77 7.83-5.19z" fill="#080807"/>
<path transform="translate(929,309)" d="m0 0c4.63 1.82 7.57 5.52 10.8 9.1 2.93 3.07 4.85 4.73 9.15 4.9 2.28-0.23 4.55-0.55 6.81-0.94 1.16-0.19 2.33-0.39 3.52-0.59 0.88-0.15 1.76-0.31 2.67-0.47v4c-2.33 0.74-4.63 1.4-7 2-0.71 0.19-1.42 0.37-2.15 0.57-4.8 0.93-7.46 0.49-11.6-2.19-3.37-2.54-6.39-5.27-9.25-8.38-0.78-0.68-1.57-1.36-2.38-2.06-0.8-0.96-0.8-0.96-1.62-1.94 0.25-2.25 0.25-2.25 1-4z" fill="#060604"/>
<path transform="translate(669,309)" d="m0 0 3 2c-1.12 3.36-2.02 4.11-4.69 6.31-2.69 2.23-4.93 4.42-7.12 7.13-2.7 2.76-4.82 2.98-8.63 3.06-10.7-0.61-10.7-0.61-14.6-4.5v-3c1.1 0.25 2.19 0.5 3.32 0.76 1.46 0.31 2.91 0.62 4.37 0.93 1.08 0.25 1.08 0.25 2.18 0.51 3.45 0.71 5.46 1.07 8.79-0.26 2.88-2.39 5.55-4.94 8.15-7.63 0.5-0.51 1.01-1.02 1.52-1.55 1.23-1.25 2.45-2.5 3.67-3.76z" fill="#010202"/>
<path transform="translate(883 263)" d="m0 0c3.76 2.07 6.52 5.64 9.39 8.78 1.41 1.48 2.91 2.85 4.43 4.22h4v2l-5 2c-3.89-3.1-6.94-6.06-10-10l-2-1v-2h-4c-1.21 1.37-2.41 2.76-3.52 4.22-2.25 2.69-4.9 4.84-7.56 7.12-3.38 2.91-6.37 5.95-9.11 9.47-0.6 0.72-1.2 1.44-1.81 2.19h-2l-1 2c0.43-4.42 3.44-6.92 6.42-9.9 0.55-0.55 1.09-1.1 1.65-1.67 1.15-1.16 2.3-2.32 3.46-3.47 1.78-1.77 3.53-3.56 5.28-5.36 1.12-1.13 2.24-2.25 3.36-3.37 0.52-0.54 1.05-1.08 1.59-1.64 3.66-3.59 3.66-3.59 6.42-3.59z" fill="#050503"/>
<path transform="translate(568 163)" d="m0 0c4.09 1.48 6.98 4.85 10.1 7.77 0.83 0.7 1.65 1.4 2.5 2.12 1.5 1.88 1.5 1.88 1.76 4.63-0.09 0.74-0.17 1.48-0.26 2.25-0.99 0.49-0.99 0.49-2 1-0.55-1.05-1.11-2.1-1.68-3.19-2.84-4.97-6.65-8.53-11.3-11.8l-3.81 2.31c-0.71 0.43-1.41 0.86-2.14 1.3-1.95 1.33-3.44 2.67-5.05 4.39-1.62 1.71-3.29 3.38-5 5h-2c-0.24 0.66-0.49 1.32-0.74 2-1.57 3.76-3.4 7.37-5.26 11h-1c0.28-6.6 2.84-10 7-15 0.92-1.23 0.92-1.23 1.85-2.48 2.36-2.77 4.81-4.67 7.78-6.77 1.44-1.03 1.44-1.03 2.91-2.08 4.02-2.73 4.02-2.73 6.34-2.44z" fill="#010101"/>
<path transform="translate(976,363)" d="m0 0c3.36 0.58 4.67 1.58 7 4 0.72 0.41 1.44 0.82 2.19 1.25 6.78 4.22 12.2 10 17.4 16.1 1.1 1.27 2.26 2.48 3.44 3.66-0.38 2.12-0.38 2.12-1 4-3-2-3-2-4-4-0.66-0.31-1.32-0.62-2-0.94-2-1.06-2-1.06-3-4.06-2-1.21-2-1.21-4-2v-3c-0.56-0.06-1.11-0.12-1.69-0.19-3.29-1.15-4.95-3.28-7.31-5.81-2.72-2.88-2.72-2.88-6-5-0.62-2.06-0.62-2.06-1-4z" fill="#000102"/>
<path transform="translate(936,242)" d="m0 0 2 1 1 3c-2.62 4.1-6.23 7.1-9.91 10.2-1.36 1.16-2.71 2.35-4.02 3.56-0.6 0.55-1.2 1.09-1.82 1.66-0.53 0.49-1.06 0.98-1.61 1.49-1.64 1.07-1.64 1.07-5.64 1.07v2l-2-1c3.62-5.88 3.62-5.88 7-7 0.68-1.33 1.35-2.66 2-4 1.77-1.75 1.77-1.75 3.81-3.44 3.23-2.73 6.25-5.53 9.19-8.56z" fill="#F4F4F3"/>
<path transform="translate(1095,334)" d="m0 0c7.49 3.48 13.4 8.93 19.2 14.6 0.68 0.65 1.36 1.3 2.06 1.96 1.74 1.74 3.32 3.38 4.69 5.42-0.08 2.96-0.08 2.96-1 5-0.06-0.62-0.12-1.24-0.19-1.88-0.27-0.7-0.53-1.4-0.81-2.12-0.83-0.33-1.65-0.66-2.5-1-0.83-0.33-1.65-0.66-2.5-1-0.81-2.12-0.81-2.12-1-4h-3v-2c-0.8-0.34-0.8-0.34-1.62-0.69-3.13-1.72-5.64-4.03-8.38-6.31-2.22-1.28-2.22-1.28-4-2v-2c-1.13-0.29-2.27-0.58-3.44-0.88-1.17-0.37-2.35-0.74-3.56-1.12l-1-2c2.74-1.37 4.07-0.79 7 0z" fill="#020201"/>
<path transform="translate(1034 163)" d="m0 0c10.7 4.46 20.5 14.4 25.3 25-0.5 1.48-0.5 1.48-1 3-0.33-0.55-0.65-1.09-0.99-1.65-0.44-0.71-0.87-1.43-1.33-2.17-0.42-0.7-0.85-1.41-1.3-2.14-1.32-1.95-2.7-3.42-4.38-5.04-0.95-1.17-1.88-2.33-2.82-3.5-2.69-3.2-5.27-4.92-9.18-6.5v-2c-5.05-0.94-5.05-0.94-10 0l-2 4c-0.99 0.33-1.98 0.66-3 1l-1 3h-2v5l-2-1c0.35-5.29 3.17-7.84 6.75-11.4 0.52-0.56 1.05-1.12 1.59-1.69 3.94-3.95 3.94-3.95 7.38-3.88z" fill="#020202"/>
<path transform="translate(986,193)" d="m0 0c1 1 1 1 1.06 4.06-0.02 0.97-0.04 1.94-0.06 2.94-0.5-1.98-0.5-1.98-1-4-2.76 0.08-4.49 0.5-6.49 2.45-1.53 1.83-3.02 3.69-4.51 5.55-4.04 4.25-8.34 8.43-13 12h-2c-0.37 0.84-0.37 0.84-0.75 1.69-2.15 3.97-4.49 6.8-8.25 9.31-0.99-0.33-1.98-0.66-3-1 4.59-4.72 9.2-9.41 13.8-14.1 1.58-1.6 3.14-3.2 4.7-4.8 2.25-2.31 4.51-4.6 6.77-6.88 0.7-0.72 1.4-1.44 2.11-2.19l2-2c0.58-0.59 1.15-1.17 1.75-1.78 2.41-1.63 3.99-1.56 6.85-1.25z" fill="#010201"/>
<path transform="translate(658,284)" d="m0 0c3.01 1.34 5 2.8 7.25 5.19 3.72 3.84 7.69 7.34 11.8 10.8l6-3c-0.19 2.31-0.19 2.31-1 5-2.55 1.67-2.55 1.67-5 3-0.57-0.58-1.14-1.16-1.72-1.76-4.6-4.65-9.27-9.04-14.3-13.2l-2-2-5 4-1-3 5-5z" fill="#000101"/>
<path transform="translate(940,284)" d="m0 0c3.4 1.01 4.76 1.65 6.81 4.62 0.39 0.79 0.79 1.57 1.19 2.38-3 0-3 0-4.69-1.5-0.43-0.5-0.86-0.99-1.31-1.5-3.21 1.4-5.24 3.07-7.62 5.62-1.79 1.92-1.79 1.92-3.38 3.38h-2c-0.27 0.64-0.54 1.28-0.81 1.94-1.19 2.06-1.19 2.06-4.19 3.06v2c-2.88-0.31-2.88-0.31-6-1l-2-3-2-2c2.25-0.69 2.25-0.69 5-1 2.17 1.48 2.17 1.48 4 3 2.08-1.92 4.17-3.83 6.25-5.75 0.59-0.54 1.17-1.08 1.78-1.63 3.05-2.82 6.06-5.65 8.97-8.62z" fill="#040403"/>
<path transform="translate(945,7)" d="m0 0h17v84h-1l-1-81-11-1c-0.99-0.33-1.98-0.66-3-1l-1 3v-4z" fill="#010204"/>
<path transform="translate(830,321)" d="m0 0c2 1.49 2 1.49 3.92 3.39 0.69 0.69 1.39 1.38 2.11 2.09 0.71 0.73 1.42 1.46 2.16 2.21 0.72 0.71 1.45 1.41 2.19 2.14 3.78 3.81 6.5 6.75 7.62 12.2h-2v-2l-4-1-1-4-4-1v-2h-2c-0.21-0.95-0.41-1.9-0.62-2.88-1.08-3.36-1.08-3.36-4.26-4.5-3.24-0.75-3.24-0.75-7.12-0.62v-4c2.75-1.38 4.08-0.86 7 0z" fill="#0E0C07"/>
<path transform="translate(596 192)" d="m0 0c2 0.75 2 0.75 4 3.75l-2 2v-2c-3.23 0.27-4.65 0.62-6.89 3.04-2.55 3.58-4.59 7.31-6.61 11.2-0.4 0.76-0.79 1.51-1.2 2.29-2.34 4.5-4.58 9.02-6.55 13.7-0.75 1.76-0.75 1.76-1.81 3.72-1 2.17-1.33 3.92-1.56 6.29-0.19 1.86-0.19 1.86-0.38 3.75h-1c-0.85-8.14 1.64-13.8 5.17-21.1 0.88-1.83 1.74-3.67 2.59-5.52 10.4-21.9 10.4-21.9 16.2-21.1z" fill="#030303"/>
<path transform="translate(761,386)" d="m0 0v2h-2c-0.28 0.82-0.28 0.82-0.57 1.66-2.09 3.43-5.05 5.4-8.24 7.78-8.77 6.4-8.77 6.4-14.2 15.6l-2 1c1.67-8.23 4.7-12.2 11.4-17.4 3.22-2.57 6.25-5.1 9.06-8.12 2.56-2.44 2.56-2.44 6.56-2.44z" fill="#040403"/>
<path transform="translate(753,244)" d="m0 0c9.92 4.46 20 18 24 28-0.38 2.25-0.38 2.25-1 4l-1-4h-2c-1.38-2.06-2.64-4.11-3.88-6.25-2.34-4.06-4.75-7.45-8.12-10.8v-2c-0.99-0.33-1.98-0.66-3-1v-2h-2v-2c-0.99-0.33-1.98-0.66-3-1v-3z" fill="#020202"/>
<path transform="translate(1070,329)" d="m0 0c0.49 0.99 0.49 0.99 1 2-1.53-0.03-1.53-0.03-3.09-0.07-14.5-0.23-28.7 1.13-42.9 4.07l1-3c1-0.13 2-0.27 3.03-0.4 1.29-0.18 2.58-0.36 3.91-0.54 1.29-0.17 2.57-0.35 3.9-0.52 3.01-0.2 3.01-0.2 4.16-1.54 9.44-1.63 19.6-1.81 29 0z" fill="#000203"/>
<path transform="translate(969,190)" d="m0 0c2.95 1.14 4.88 2.67 7 5-1.29 2.88-2.66 4.87-5 7-2.31-0.99-4.62-1.98-7-3v-5h2l1-3 2-1zm2 5 2 2v-2h-2z" fill="#0D0C08"/>
<path transform="translate(775 320)" d="m0 0c6.24 2.17 11.6 6.33 15.1 12.1l-1 3-1-2c-0.99-0.33-1.98-0.66-3-1v-2h-2l-3-3c-2.3-1.9-2.3-1.9-5-3-3.2 0.84-5.23 2.16-8 4 0-3 0-3 2.13-5.75 2.87-2.25 2.87-2.25 5.81-2.31z"/>
<path transform="translate(631,190)" d="m0 0c2.62 1.31 4.21 2.67 6 5-0.25 2.25-0.25 2.25-1 4l-2-2-2 4c-1.98-0.66-3.96-1.32-6-2-0.75-2.25-0.75-2.25-1-5 2.84-4 2.84-4 6-4z" fill="#070705"/>
<path transform="translate(817,409)" d="m0 0 2 2c-3.16 3.89-6.41 7.5-10 11-2.57 2.5-4.89 4.85-7 7.75-2.31 2.6-3.59 2.97-7 3.25 1.39-3.25 2.95-5.03 5.69-7.25 3.6-3.04 6.65-6.29 9.7-9.88 2.09-2.42 4.32-4.65 6.61-6.87z" fill="#020202"/>
<path transform="translate(660,235)" d="m0 0c5 4.22 9.82 8.55 14.5 13.1 0.64 0.61 1.29 1.22 1.95 1.84 0.61 0.6 1.21 1.19 1.83 1.8 0.55 0.53 1.1 1.05 1.66 1.6 1.06 1.64 1.06 1.64 0.73 3.84-0.22 0.6-0.44 1.19-0.67 1.8-1.5-1.38-1.5-1.38-3-3v-2c-0.57-0.25-1.14-0.5-1.73-0.75-2.62-1.44-4.42-3.13-6.52-5.25-0.71-0.7-1.41-1.4-2.14-2.12-1.61-1.88-1.61-1.88-1.61-3.88-0.99-0.33-1.98-0.66-3-1-2-3-2-3-2-6z" fill="#060503"/>
<path transform="translate(869,306)" d="m0 0c-0.85 4.54-3.51 6.85-6.75 9.94-0.53 0.51-1.05 1.02-1.59 1.55-1.05 1.02-2.09 2.03-3.14 3.04-2.2 2.13-4.36 4.3-6.52 6.47-0.72-1.74-0.72-1.74-1-4 1.42-2.01 1.42-2.01 3.55-4.11 0.76-0.75 1.52-1.51 2.31-2.28 0.81-0.78 1.62-1.56 2.45-2.36 0.8-0.79 1.6-1.59 2.42-2.4 5.98-5.85 5.98-5.85 8.27-5.85z" fill="#020202"/>
<path transform="translate(729,306)" d="m0 0c6.24 0.79 9.12 4.5 13.4 8.81 0.74 0.73 1.49 1.45 2.26 2.2 0.71 0.7 1.41 1.41 2.13 2.13l1.95 1.95c1.28 1.91 1.28 1.91 0.98 4.15-0.23 0.58-0.46 1.16-0.7 1.76v-2c-0.54-0.21-1.07-0.41-1.62-0.62-3.3-1.91-5.97-4.43-8.38-7.38v-2c-0.87-0.37-0.87-0.37-1.75-0.75-2.58-1.43-4.31-3.03-6.25-5.25v-2l-2-1z" fill="#040403"/>
<path transform="translate(1089,372)" d="m0 0 2 2-15 15-2-1c0.49-0.9 0.49-0.9 1-1.81 1.21-2.24 1.21-2.24 1-5.19h2l1-3 5-1 1-3h4v-2z" fill="#11100E"/>
<path transform="translate(987,290)" d="m0 0h1c0.51 6.07-0.96 9.77-4 15-7.42-2.81-7.42-2.81-9.19-6.44-0.81-2.56-0.81-2.56-0.81-5.56 3.96 3.46 3.96 3.46 8 7 3.35-3.35 3.89-5.49 5-10z" fill="#060605"/>
<path transform="translate(826,25)" d="m0 0h1v65h-1v-65z" fill="#040405"/>
<path transform="translate(637,320)" d="m0 0c4.62 0.99 9.24 1.98 14 3v2c2.97 0.5 2.97 0.5 6 1v1c-6.37 0.21-12 0.3-18-2l-2-2v-3z" fill="#070707"/>
<path transform="translate(566,163)" d="m0 0c5.23 0.88 8.24 4.51 12 8 0.83 0.7 1.65 1.4 2.5 2.12 1.5 1.88 1.5 1.88 1.75 4.63-0.08 0.74-0.16 1.49-0.25 2.25l-2 1c-0.56-1.05-1.11-2.1-1.69-3.19-2.47-4.32-5.52-7.52-9.56-10.4-1.75-1.38-1.75-1.38-2.75-4.38z" fill="#080805"/>
<path transform="translate(882,26)" d="m0 0h1v63h-1v-63z"/>
<path transform="translate(582,289)" d="m0 0h3c1.71 4.08 3.39 8.16 5.06 12.2 0.73 1.74 0.73 1.74 1.47 3.51 0.46 1.12 0.91 2.23 1.38 3.38 0.42 1.03 0.85 2.05 1.29 3.11 0.82 2.82 0.84 4.06-0.2 6.75v-2l-2-1c-1.73-4.27-2.45-8.44-3-13h-2v-4h-2c-0.1-0.95-0.21-1.9-0.31-2.88-0.38-3.41-0.38-3.41-3.69-5.12l1-1z" fill="#000101"/>
<path transform="translate(731,275)" d="m0 0c2.36 1.97 4.69 3.97 7 6 0.68 0.59 1.36 1.18 2.06 1.78 1.82 1.67 3.47 3.24 4.94 5.22-0.06 2.94-0.06 2.94-1 5-3.27-3.15-6.2-6.43-9-10v-2l-4-2v-4z" fill="#070705"/>
<path transform="translate(861,367)" d="m0 0 1 4c-0.62 0.25-1.24 0.5-1.88 0.75-2.24 1.05-2.24 1.05-3.01 3.1-1.32 2.56-2.86 3.92-5.05 5.77-0.69 0.6-1.38 1.19-2.09 1.79-1.97 1.59-1.97 1.59-4.97 3.59 0.58-3.55 1.83-5.18 4.38-7.67 0.67-0.67 1.35-1.33 2.04-2.01 0.71-0.69 1.41-1.37 2.14-2.07 0.71-0.7 1.42-1.39 2.16-2.11 1.75-1.72 3.51-3.43 5.28-5.14z" fill="#050504"/>
<path transform="translate(919,265)" d="m0 0c5.27 2.23 8.68 6.46 12 11 1 3.56 1 3.56 1 6-4.88-4.62-4.88-4.62-6-8l-2-1c-2-1-2-1-3-4h-2v-4z" fill="#050503"/>
<path transform="translate(615,193)" d="m0 0c3.56 0.09 4.94 0.95 7.68 3.29 1.3 1.37 1.3 1.37 2.63 2.77 0.89 0.92 1.77 1.84 2.68 2.79 0.99 1.06 0.99 1.06 2.01 2.15l-1 2c-3.84-1.56-6.1-4.1-9-7-1.63-1.05-3.29-2.07-5-3l-1 3c-0.62-1.88-0.62-1.88-1-4l2-2z" fill="#050504"/>
<path transform="translate(941,236)" d="m0 0 1 2h2c-0.61 2.96-1.25 4.38-3 7-1.94-0.31-1.94-0.31-4-1l-1-3 5-5z" fill="#F6F6F6"/>
<path transform="translate(1010 195)" d="m0 0c6.44 7.92 6.44 7.92 6.44 12h-2v-2c-0.99-0.33-1.98-0.66-3-1-0.48-1.16-0.95-2.31-1.44-3.5-1.19-3.47-1.19-3.47-3.38-4.75-3.64 0.42-5.55 2.79-8.18 5.25 0.56-3.26 1.33-5 4-7 3.57-1.5 4.46-1.42 7.56 1z" fill="#060603"/>
<path transform="translate(865,231)" d="m0 0c4.01 0.54 5.98 2.52 8.81 5.31 0.81 0.78 1.62 1.56 2.46 2.37 1.73 2.32 1.73 2.32 1.49 4.61-0.25 0.57-0.5 1.13-0.76 1.71l-8-8c-2.83-1.61-2.83-1.61-6-2l2-4z" fill="#0B0A05"/>
<path transform="translate(743,349)" d="m0 0 1 3c-1.07 1.06-1.07 1.06-2.17 2.14-2.81 2.81-5.48 5.73-8.14 8.67-0.89 0.98-1.77 1.95-2.68 2.96-0.66 0.74-1.33 1.47-2.01 2.23-0.7-1.77-0.7-1.77-1-4 1.26-1.83 1.26-1.83 3.18-3.67 0.68-0.67 1.36-1.33 2.06-2.01 0.73-0.69 1.45-1.37 2.2-2.07 0.72-0.7 1.44-1.39 2.18-2.11 1.78-1.73 3.58-3.44 5.38-5.14z" fill="#020202"/>
<path transform="translate(945,7)" d="m0 0h17v27h-1l-1-24-11-1c-0.99-0.33-1.98-0.66-3-1l-1 3v-4z" fill="#010203"/>
<path transform="translate(839,250)" d="m0 0c0.99 0.33 1.98 0.66 3 1-0.76 0.72-1.53 1.44-2.31 2.19-2.43 2.53-3.93 4.82-5.69 7.81-0.93 0.89-0.93 0.89-1.89 1.79-2.37 2.48-3.77 4.93-5.36 7.96-0.52 0.98-1.04 1.97-1.58 2.98-0.38 0.75-0.77 1.5-1.17 2.27-1-3-1-3 0.12-5.53 4.39-7.43 9.23-14 14.9-20.5z" fill="#060606"/>
<path transform="translate(594,231)" d="m0 0h1l2 6c4.58 1.21 4.58 1.21 8.81-0.19 1.24-1.88 2.27-3.76 3.19-5.81 0.31 3.46 0.38 5.4-1.5 8.38-3.68 2.38-6.15 1.97-10.5 1.62l-2-1v-2h-2l1-7z" fill="#010202"/>
<path transform="translate(1013,295)" d="m0 0c1.52 3.9 0.39 6.19-1.19 9.94-2.67 6.58-4.81 13.2-6.81 20.1h-1c0.17-10.6 4.31-20.6 9-30z" fill="#080807"/>
<path transform="translate(612,287)" d="m0 0h1c0.16 0.9 0.16 0.9 0.33 1.83 1.15 6.13 1.15 6.13 4.67 11.2l2 1v3l-4 1v-2h-2c-0.31-1.09-0.62-2.19-0.94-3.31-0.64-2.24-1.32-4.48-2.06-6.69 0.28-2.01 0.6-4.01 1-6z" fill="#040403"/>
<path transform="translate(627,249)" d="m0 0c3 0.6 4.06 1.05 6.5 3.12 0.83 0.62 1.65 1.24 2.5 1.88 1.34-0.32 2.67-0.66 4-1 2.25 1.94 2.25 1.94 4 4l-1 3c-0.35-0.5-0.7-0.99-1.06-1.5-1.97-1.88-1.97-1.88-5.25-1.19-3.69-0.31-3.69-0.31-5.48-2.08-1.5-2.03-2.9-4.07-4.21-6.23z" fill="#040403"/>
<path transform="translate(655,66)" d="m0 0h1v9c-2.12 0.03-4.25 0.05-6.38 0.06-1.18 0.01-2.36 0.03-3.58 0.04-3.04-0.1-3.04-0.1-5.04-1.1v-6h3l1 4 10 1v-7z" fill="#282213"/>
<path transform="translate(650,41)" d="m0 0h2c2.8 2.95 3.37 4.97 3.29 8.98-0.01 0.94-0.02 1.87-0.03 2.84-0.02 0.96-0.05 1.93-0.07 2.93-0.02 0.98-0.03 1.97-0.04 2.98-0.04 2.42-0.09 4.85-0.15 7.27h-1l-4-25z" fill="#746F63"/>
<path transform="translate(1076,328)" d="m0 0c5.45 0.57 9.91 1.95 15 4l-1 2c-5.27-0.45-10-1.08-15-3l1-3z" fill="#010101"/>
<path transform="translate(873,271)" d="m0 0c0.99 0.33 1.98 0.66 3 1-2.37 2.43-4.67 4.75-7.38 6.81-3.05 2.55-5.45 5.41-7.97 8.48-1.65 1.71-1.65 1.71-4.65 2.71l-1 2c0.57-3.77 2.12-5.48 4.82-8.11 0.76-0.75 1.52-1.51 2.31-2.28 0.8-0.78 1.61-1.56 2.43-2.36 0.81-0.79 1.62-1.59 2.45-2.4 1.99-1.96 3.99-3.91 5.99-5.85z" fill="#0A0A07"/>
<path transform="translate(995,43)" d="m0 0c1.98 1.33 1.98 1.33 4 4 0.52 3.59 0.38 7.13 0.25 10.8-0.02 0.98-0.04 1.97-0.05 2.98-0.05 2.42-0.12 4.85-0.2 7.27h-1c-0.51-3.04-1-6.08-1.5-9.12-0.14-0.86-0.29-1.72-0.43-2.6-0.73-4.48-1.25-8.73-1.07-13.3z" fill="#7D7461"/>
<path transform="translate(984 192)" d="m0 0c2.12 0.5 2.12 0.5 3.12 1.5 0.05 2 0.05 4 0 6-0.33-1.32-0.65-2.64-1-4-2.89 0.09-4.54 0.54-6.59 2.62-1.05 1.28-2.07 2.57-3.07 3.88-0.44 0.5-0.88 0.99-1.34 1.5h-2c0.94-5.54 5.3-10.5 10.9-11.5z" fill="#0A0908"/>
<path transform="translate(914,7)" d="m0 0h17c1.65 3.31 1.1 6.99 1.06 10.6 0 0.81-0.01 1.61-0.01 2.43-0.01 1.99-0.03 3.97-0.05 5.95h-1v-9l-2-1h2v-2l-2-1h2v-3c-5.67-1.23-11.2-1.09-17-1v-2z" fill="#11100A"/>
<path transform="translate(614,371)" d="m0 0 2 2-10 9-2-3-2-1c1.43-0.98 2.87-1.96 4.31-2.94 0.8-0.54 1.6-1.09 2.43-1.65 2.26-1.41 2.26-1.41 5.26-2.41z" fill="#161511"/>
<path transform="translate(965,352)" d="m0 0c2.5 1.38 2.5 1.38 5 3v2c0.64 0.1 1.28 0.21 1.94 0.31 0.68 0.23 1.36 0.46 2.06 0.69l1 3h2v5c-0.41-0.45-0.83-0.91-1.25-1.38-1.67-1.72-1.67-1.72-3.87-2.56-1.88-1.06-1.88-1.06-2.63-3.18-0.12-0.93-0.12-0.93-0.25-1.88h-2v-2h-2v-3z" fill="#E9DCC3"/>
<path transform="translate(867,462)" d="m0 0c0.99 0.33 1.98 0.66 3 1-0.69 2.38-0.69 2.38-2 5-2.56 1.19-2.56 1.19-5 2l-1 2-1-5c4.39-4 4.39-4 6-5z" fill="#020303"/>
<path transform="translate(538,418)" d="m0 0 2 1c0 3 0 3-2.38 5.69-2.62 2.31-2.62 2.31-4.62 2.31l-1 5h-2c0.1-5.08 0.91-7.33 4.56-10.9 1.13-1.03 2.28-2.06 3.44-3.06z" fill="#010101"/>
<path transform="translate(977,222)" d="m0 0 1 2c-0.99-0.33-1.98-0.66-3-1l2-1zm-10 9 2 1c-1.02 3.05-1.83 3.83-4 6v2l-5 1c0.58-3.35 1.59-4.94 4.06-7.25 0.55-0.52 1.1-1.04 1.66-1.58 0.63-0.58 0.63-0.58 1.28-1.17z" fill="#F6F5F3"/>
<path transform="translate(794,433)" d="m0 0c2.06 0.44 2.06 0.44 4 1-1.08 1.3-2.16 2.59-3.25 3.88-0.6 0.71-1.21 1.43-1.83 2.17-1.89 1.92-3.46 2.91-5.92 3.95l-1-2c1.15-1.31 2.29-2.63 3.44-3.94 0.64-0.73 1.27-1.46 1.93-2.21 0.86-0.97 1.72-1.94 2.63-2.85z" fill="#040403"/>
<path transform="translate(1088,379)" d="m0 0v2c-2.38 1.69-2.38 1.69-5 3l-2-1c3.62-4 3.62-4 7-4zm-11 8 2 1v2c-1.96 1.71-3.96 3.38-6 5l-2-2 6-6zm-8 8c0.99 0.5 0.99 0.5 2 1v2h-2v-3z" fill="#F9F9F8"/>
<path transform="translate(648,31)" d="m0 0h3v9h-1l-2 12h-1c-0.03-3.31-0.05-6.62-0.06-9.94-0.01-0.94-0.02-1.89-0.03-2.86 0-0.9 0-1.8-0.01-2.73 0-0.83-0.01-1.66-0.01-2.52 0.11-1.95 0.11-1.95 1.11-2.95z" fill="#362F19"/>
<path transform="translate(1060,419)" d="M0 0 C4.35 0.73 6.08 2.77 8.8 6.08 C10.48 8.78 10.45 10.91 10 14 C9.76 13.41 9.51 12.83 9.26 12.22 C7.39 8.92 4.61 7.03 1.68 4.68 C0 3 0 3 0 0 Z " fill="#010101"/>
<path transform="translate(645,294)" d="m0 0c4.22 1.51 5.94 4.12 8 8-0.12 2.81-0.12 2.81-1 5-0.99 0.5-0.99 0.5-2 1l-1-3c-0.5-1.13-0.99-2.27-1.5-3.44-1.09-2.58-1.96-4.84-2.5-7.56z" fill="#0A0A07"/>
<path transform="translate(681,266)" d="m0 0v3c-0.62 0.08-1.24 0.17-1.88 0.25-2.3 0.56-2.3 0.56-3.37 2.81-0.25 0.64-0.5 1.28-0.75 1.94h-2c-0.08 0.58-0.16 1.15-0.25 1.75-0.96 2.87-2.53 4.25-4.75 6.25 0.54-4.12 1.78-6.46 4.38-9.69 0.6-0.76 1.21-1.53 1.83-2.32 2.05-2.27 3.6-3.99 6.79-3.99z" fill="#030303"/>
<path transform="translate(708,21)" d="m0 0h14l1 3h-16l1-3z" fill="#2F2A15"/>
<path transform="translate(936,242)" d="m0 0 2 1 1 3c-1.94 2.69-1.94 2.69-4 5l-5-1c1.44-3.37 3.33-5.51 6-8z" fill="#F2EEE8"/>
<path transform="translate(992,234)" d="m0 0c0.54 0.66 1.07 1.32 1.62 2 2.26 2.24 2.26 2.24 5.38 2.5 3.59-0.6 4.74-1.72 7-4.5-0.75 4.75-0.75 4.75-3 7-7.05 0.57-7.05 0.57-10.5-1.5l-1.5-1.5 1-4z" fill="#020302"/>
<path transform="translate(644,88)" d="m0 0h13l2 4h-18v-2h3v-2z" fill="#1C1A12"/>
<path transform="translate(759,21)" d="m0 0h14l1 3h-16l1-3z" fill="#2D2814"/>
<path transform="translate(849,6)" d="m0 0h16l-1 3h-14l-1-3z" fill="#CCC5B8"/>
<path transform="translate(777,373)" d="m0 0c0 3 0 3-2.19 5.38-0.93 0.86-1.85 1.73-2.81 2.62l-5 5-2-1c6.12-12 6.12-12 12-12z" fill="#F6F4EF"/>
<path transform="translate(1111,368)" d="M0 0 C4.54 2.33 7.11 4.87 10 9 C10.31 11.88 10.31 11.88 10 14 C7.48 11.57 5.08 9.05 2.75 6.44 C1.97 5.57 1.97 5.57 1.17 4.68 C0 3 0 3 0 0 Z " fill="#0A0A06"/>
<path transform="translate(976,363)" d="m0 0c3.35 0.58 4.68 1.59 7 4 1.05 0.46 1.05 0.46 2.12 0.94 1.88 1.06 1.88 1.06 2.63 3.18 0.12 0.93 0.12 0.93 0.25 1.88-4.36-0.48-6.09-1.79-9-5l-2-1c-0.62-2.06-0.62-2.06-1-4z" fill="#2A2615"/>
<path transform="translate(1095,334)" d="m0 0c2.81 1.31 2.81 1.31 5 3v4l-4-1v-2c-1.13-0.29-2.27-0.58-3.44-0.88-1.17-0.37-2.35-0.74-3.56-1.12l-1-2c2.75-1.38 4.06-0.82 7 0z" fill="#030303"/>
<path transform="translate(970,250)" d="m0 0h2c-1.28 3.85-2.56 4.88-6 7-2.76 0.33-5.2 0.19-8 0l-1 3-1-3c1.62-2.06 1.62-2.06 4-4 2 0.33 4 0.67 6 1 2.27-1.85 2.27-1.85 4-4z" fill="#060504"/>
<path transform="translate(1030,164)" d="m0 0 1 3c-0.99 0.33-1.98 0.66-3 1l-2 4c-0.99 0.33-1.98 0.66-3 1l-1 3h-2v5l-2-1c0.36-5.05 3.04-7.52 6.56-10.8 0.52-0.5 1.04-1.01 1.58-1.52 1.28-1.24 2.57-2.45 3.86-3.67z" fill="#0B0B09"/>
<path transform="translate(675,500)" d="m0 0c1.14 3.68 1.14 3.68-0.12 6.56-2.05 2.66-3.92 3.92-6.88 5.44 1.56-4.67 4.08-8.09 7-12z" fill="#010202"/>
<path transform="translate(489,368)" d="m0 0c-0.57 3.87-2.39 6.15-5 9h-2l-2 4c-1-2-1-2-0.44-4.25 1.85-3.53 5.09-8.75 9.44-8.75z" fill="#040403"/>
<path transform="translate(612,21)" d="m0 0c1.96-0.08 3.92-0.14 5.88-0.19 1.63-0.05 1.63-0.05 3.3-0.1 0.93 0.09 1.86 0.19 2.82 0.29l2 3h-15l1-3z" fill="#2F2A15"/>
<path transform="translate(846,338)" d="m0 0c1.13 0.96 2.25 1.92 3.38 2.88 0.62 0.53 1.25 1.06 1.89 1.61 3.2 2.8 4.07 4.31 4.73 8.51-5.5-2.75-6.53-4.12-9-10l-2-2 1-1z" fill="#080704"/>
<path transform="translate(795,6)" d="m0 0h14v3h-14v-3z" fill="#D0CABE"/>
<path transform="translate(986,370)" d="m0 0c3.44 1.53 6.12 3.6 9 6l-2 4c-3.55-1.87-5.67-3.13-7-7v-3z" fill="#050606"/>
<path transform="translate(599,196)" d="m0 0c3.9 1.59 6.34 4.13 9.25 7.12 0.89 0.92 1.78 1.83 2.7 2.76 0.68 0.7 1.35 1.4 2.05 2.12-0.99 0.33-1.98 0.66-3 1-1.84-1.79-3.67-3.58-5.5-5.38-0.79-0.76-0.79-0.76-1.59-1.53-1.34-1.33-2.63-2.71-3.91-4.09v-2z" fill="#000001"/>
<path transform="translate(967,194)" d="m0 0c2.06 0.44 2.06 0.44 4 1l1 5c-1.81 0.62-1.81 0.62-4 1l-3-2c0.88-3.88 0.88-3.88 2-5z" fill="#FAFBFD"/>
<path transform="translate(628,194)" d="m0 0 5 1 1 4-4 2-3-2 1-5z" fill="#CEA24B"/>
<path transform="translate(892,91)" d="m0 0c1.79-0.05 3.58-0.09 5.38-0.12 0.99-0.03 1.99-0.05 3.02-0.08 2.6 0.2 2.6 0.2 4.6 2.2 0.2 2.82 0.2 2.82 0.12 6.12-0.01 1.1-0.03 2.2-0.05 3.33-0.02 0.84-0.05 1.68-0.07 2.55-0.99 0.5-0.99 0.5-2 1v-11c-3.93-1.57-6.9-2.43-11-3v-1z" fill="#F6F7F9"/>
<path transform="translate(577,409)" d="m0 0c-1.56 3.82-3.96 6.26-7 9h-2l-2 5-2-3c1.79-1.84 3.58-3.67 5.38-5.5 0.5-0.52 1.01-1.05 1.53-1.59 3.86-3.91 3.86-3.91 6.09-3.91z" fill="#050403"/>
<path transform="translate(1046,330)" d="m0 0c-3.54 2.04-7.08 2.8-11.1 3.62-1.85 0.4-1.85 0.4-3.73 0.79-3.21 0.59-3.21 0.59-6.21 0.59l1-3c2.21-0.34 4.42-0.67 6.62-1 1.23-0.19 2.46-0.37 3.73-0.56 3.27-0.39 6.37-0.52 9.65-0.44z" fill="#0A0A07"/>
<path transform="translate(898 88.9)" d="m0 0c1.17-0 2.33-0.01 3.53-0.01 2.97 0.13 2.97 0.13 4.97 1.13-0.33 0.99-0.66 1.99-1 3-0.66-0.32-1.32-0.65-2-1-2.2-0.22-4.41-0.41-6.62-0.56-1.19-0.08-2.38-0.17-3.61-0.25-0.91-0.06-1.83-0.12-2.77-0.19l-1 2v-3c2.85-1.42 5.32-1.13 8.5-1.12z" fill="#020202"/>
<path transform="translate(915,297)" d="m0 0c3.78 0.41 6.25 1.35 9 4v3c-2.88-0.31-2.88-0.31-6-1l-2-3-2-2 1-1z" fill="#282111"/>
<path transform="translate(989,44)" d="m0 0h1l-1 18c-0.99 0.33-1.98 0.66-3 1l1-14h2v-5z" fill="#DCD5C5"/>
<path transform="translate(711,476)" d="m0 0 2 1c0.74 4.74-1.25 7.5-3.71 11.3-1.29 1.67-1.29 1.67-3.29 2.67 0.5-2.62 1.27-4.54 2.5-6.94 1.36-2.78 2.05-5.02 2.5-8.06z" fill="#13120A"/>
<path transform="translate(844,383)" d="m0 0 1 3c-2.81 2.96-5.18 5.44-9 7 1.65-4.29 4.74-6.88 8-10z" fill="#020201"/>
<path transform="translate(658,284)" d="m0 0 4 2v3c-0.99-0.33-1.98-0.66-3-1-2.69 1.87-2.69 1.87-5 4l-1-3 5-5z" fill="#050403"/>
<path transform="translate(728,235)" d="m0 0 3 2-1 2c-0.99 0.33-1.98 0.66-3 1l-1 2h-2v2h-2c0.47-4.25 2.97-6.2 6-9z" fill="#050503"/>
<path transform="translate(972,202)" d="m0 0 1 3c-2.64 4.12-5.86 6.46-10 9 0.55-3.88 2.28-5.6 5.06-8.25 0.74-0.71 1.47-1.41 2.23-2.14 0.56-0.53 1.13-1.06 1.71-1.61z" fill="#040404"/>
<path transform="translate(1e3 73)" d="m0 0h2v4h-14v-2h12v-2z" fill="#F8F9FB"/>
<path transform="translate(604,379)" d="m0 0 2 1c-1.83 3.14-3.64 6.23-6 9h-2l-1-3 7-7z" fill="#040506"/>
<path transform="translate(769,378)" d="m0 0c-0.81 1.94-0.81 1.94-2 4-0.99 0.33-1.98 0.66-3 1-1.21 2-1.21 2-2 4l-3-2c1.09-1.18 2.2-2.34 3.31-3.5 0.62-0.65 1.23-1.3 1.87-1.97 1.82-1.53 1.82-1.53 4.82-1.53z" fill="#020202"/>
<path transform="translate(940,284)" d="m0 0c3.4 1.01 4.76 1.65 6.81 4.62 0.39 0.79 0.79 1.57 1.19 2.38h-3c-0.47-0.5-0.95-0.99-1.44-1.5-1.68-1.96-1.68-1.96-5.56-1.5l2-4z" fill="#080706"/>
<path transform="translate(715,264)" d="m0 0c0.81 1.69 0.81 1.69 1 4-2.31 2.75-2.31 2.75-5 5h-2v2l-4 1c1.27-2.04 2.61-4.04 4-6h2l1-3h2l1-3z"/>
<path transform="translate(929,309)" d="M0 0 C1.88 0.62 1.88 0.62 4 2 C5.25 5.12 5.25 5.12 6 8 C3 8 3 8 0.75 6.25 C-1 4 -1 4 -0.75 1.75 C-0.5 1.17 -0.25 0.6 0 0 Z " fill="#0E0D09"/>
<path transform="translate(757,24)" d="m0 0h1v30h-1v-30z" fill="#141310"/>
<path transform="translate(1073,387)" d="m0 0 2 1c-1.29 2.87-2.57 4.98-5 7h-2l-1 2c0.41-4.83 2.46-6.83 6-10z" fill="#030404"/>
<path transform="translate(965,230)" d="m0 0c0.99 0.33 1.98 0.66 3 1-0.48 0.47-0.96 0.94-1.46 1.43-0.95 0.93-0.95 0.93-1.92 1.88-0.62 0.62-1.25 1.23-1.89 1.87-1.91 1.91-1.91 1.91-3.73 4.82-0.71-1.77-0.71-1.77-1-4 1.43-1.92 1.43-1.92 3.44-3.75 0.66-0.61 1.31-1.23 1.99-1.86 0.52-0.46 1.04-0.92 1.57-1.39z" fill="#050504"/>
<path transform="translate(576,185)" d="m0 0c6.86 5.09 6.86 5.09 7.44 8.88-0.15 0.7-0.29 1.4-0.44 2.12l-1-3c-2-1.21-2-1.21-4-2v-2c-0.99-0.33-1.98-0.66-3-1l1-3z" fill="#0B0B08"/>
<path transform="translate(1030 331)" d="m0 0c0.49 0.37 0.99 0.74 1.5 1.12-0.95 0.11-1.9 0.21-2.88 0.32-3.41 0.37-3.41 0.37-5.12 3.68-1.32-0.32-2.64-0.66-4-1v-3c7.38-2.21 7.38-2.21 10.5-1.12z" fill="#020303"/>
<path transform="translate(953,295)" d="m0 0c0.99 0.33 1.98 0.66 3 1h-2l-2 5h-2l-1 6-2-1c0.44-5.04 2.71-7.38 6-11z" fill="#0C0B08"/>
<path transform="translate(994,329)" d="m0 0c0.31 0.64 0.62 1.28 0.94 1.94 0.89 2 0.89 2 2.06 3.06 1.35 0.23 2.7 0.41 4.06 0.56 1.3 0.15 2.6 0.29 3.94 0.44v1l-10 1c-2-4-2-4-1.62-6.25 0.2-0.58 0.41-1.15 0.62-1.75z"/>
<path transform="translate(669,309)" d="m0 0 3 2-1 3c-2.56 1.19-2.56 1.19-5 2 0-4 0-4 1.5-5.75 0.5-0.41 0.99-0.82 1.5-1.25z" fill="#030403"/>
<path transform="translate(907,267)" d="m0 0 1 3c-4.82 5.22-4.82 5.22-9 6 0.96-1.13 1.92-2.25 2.88-3.38 0.53-0.62 1.06-1.25 1.61-1.89 1.12-1.29 2.3-2.52 3.51-3.73z" fill="#030302"/>
<path transform="translate(771,265)" d="m0 0h2c4.06 6.4 4.06 6.4 3.75 9.44-0.25 0.51-0.5 1.03-0.75 1.56l-1-4h-2l-3-6 1-1z" fill="#0C0B06"/>
<path transform="translate(1009,197)" d="m0 0c3.21 1.11 3.99 1.99 5.75 5 1.25 3 1.25 3 1.25 5h-2v-2c-0.99-0.33-1.98-0.66-3-1-1.19-3.56-1.19-3.56-2-7z" fill="#0E0D07"/>
<path transform="translate(626,78)" d="m0 0h3v10h-2c-1.16-3.47-1.07-6.36-1-10z" fill="#DAD1C0"/>
<path transform="translate(945,7)" d="m0 0h16l-1 3c-1.77-0.14-3.54-0.29-5.31-0.44-0.99-0.08-1.97-0.16-2.99-0.24-2.7-0.32-2.7-0.32-5.7-1.32l-1 3v-4z" fill="#242111"/>
<path transform="translate(858,355)" d="m0 0c2.5 1.38 2.5 1.38 5 3v2c0.62 0.25 1.24 0.5 1.88 0.75 2.47 1.46 3.07 2.63 4.12 5.25h-3c-0.1-0.64-0.21-1.28-0.31-1.94-0.23-0.68-0.46-1.36-0.69-2.06-0.99-0.33-1.98-0.66-3-1v-2h-2v-2h-2v-2z" fill="#F3F2F1"/>
<path transform="translate(1111,351)" d="m0 0h2c0.08 0.62 0.16 1.24 0.25 1.88 0.56 2.3 0.56 2.3 2.81 3.37 0.64 0.25 1.28 0.5 1.94 0.75v5h-3l1-3-3-2c-1.19-3.12-1.19-3.12-2-6z" fill="#F5F6F8"/>
<path transform="translate(722,266)" d="M0 0 C1.13 0.91 2.26 1.83 3.38 2.75 C4 3.26 4.63 3.77 5.27 4.3 C7.08 6.08 8 7.68 9 10 C8.01 10 7.02 10 6 10 C4.39 8.32 4.39 8.32 2.81 6.12 C2.02 5.05 2.02 5.05 1.21 3.95 C0 2 0 2 0 0 Z " fill="#000001"/>
<path transform="translate(991,32)" d="m0 0 4 3c0.25 3.69 0.25 3.69 0 7-0.99 0.33-1.98 0.66-3 1l-1-11z" fill="#2B2614"/>
<path transform="translate(850,29)" d="m0 0h1v26h-1v-26z" fill="#151411"/>
<path transform="translate(1017,72)" d="m0 0h1c0.34 1.87 0.67 3.75 1 5.62 0.19 1.05 0.37 2.09 0.56 3.17 0.43 3.12 0.52 6.07 0.44 9.21h-1c-1.23-6.07-2.28-11.8-2-18z" fill="#040403"/>
<path transform="translate(850,64)" d="m0 0h1v20h-1v-20z" fill="#0D0D0C"/>
<path transform="translate(1021,97)" d="m0 0h1l1 10h-3l1-3c0.04-2.33 0.04-4.67 0-7z" fill="#080706"/>
<path transform="translate(1012,40)" d="m0 0h1l1 13h-1c-1.1-4.41-1.08-8.48-1-13z" fill="#080806"/>
<path transform="translate(595,318)" d="m0 0c2.15 3.23 2.2 4.28 2 8-2-2-2-2-2.12-5.12 0.04-0.95 0.08-1.9 0.12-2.88z"/>
<path transform="translate(757,101)" d="m0 0h1v7c-0.99-0.33-1.98-0.66-3-1h2v-6z" fill="#080907"/>
<path transform="translate(678,101)" d="m0 0h1v7c-0.99-0.33-1.98-0.66-3-1h2v-6z" fill="#070604"/>
<path transform="translate(677,94)" d="m0 0h1v7h-1v-7z"/>
<path transform="translate(640,92)" d="m0 0h1v7h-1v-7z" fill="#030404"/>
<path transform="translate(990,50)" d="m0 0h1v7h-1v-7z" fill="#1C1A12"/>
<path transform="translate(646,52)" d="m0 0h1v7h-1v-7z" fill="#0F0F0E"/>
<path transform="translate(991,43)" d="m0 0h1v7h-1v-7z" fill="#232013"/>
<path transform="translate(978,269)" d="m0 0 1 3c-0.99 0.5-0.99 0.5-2 1l1-4z" fill="#14120C"/>
<path transform="translate(905,105)" d="m0 0 1 3-4-1h3v-2z" fill="#1E1C11"/>
<path transform="translate(984,91)" d="m0 0h1v6h-1v-6z" fill="#000102"/>
<path transform="translate(1020,91)" d="m0 0h1v6h-1v-6z" fill="#000001"/>
<path transform="translate(676,88)" d="m0 0h1v6h-1v-6z"/>
<path transform="translate(672,63)" d="m0 0h1v6h-1v-6z"/>
<path transform="translate(1011,34)" d="m0 0h1v6h-1v-6z" fill="#000001"/>
<path transform="translate(667,32)" d="m0 0h1v6h-1v-6z" fill="#000102"/>
<path transform="translate(1008,17)" d="m0 0h1v6h-1v-6z" fill="#000001"/>
<path transform="translate(1016,66)" d="m0 0h1v5h-1v-5z" fill="#000001"/>
<path transform="translate(645,60)" d="m0 0h1v5h-1v-5z" fill="#050607"/>
<path transform="translate(671,57)" d="m0 0h1v5h-1v-5z" fill="#000101"/>
<path transform="translate(612,278)" d="m0 0 1 4z" fill="#010204"/>
<path transform="translate(935,108)" d="m0 0 4 1z" fill="#2F2A15"/>
<path transform="translate(638,106)" d="m0 0 1 2c-0.99-0.33-1.98-0.66-3-1l2-1z" fill="#18160D"/>
<path transform="translate(983,99)" d="m0 0 1 4z" fill="#010204"/>
<path transform="translate(878,98)" d="m0 0v3z" fill="#18150B"/>
<path transform="translate(959,96)" d="m0 0v3z" fill="#11100B"/>
<path transform="translate(825,90)" d="m0 0 1 4z" fill="#060707"/>
<path transform="translate(881,89)" d="m0 0 1 4z" fill="#050606"/>
<path transform="translate(1015,59)" d="m0 0 1 4z"/>
<path transform="translate(1014,53)" d="m0 0 1 4z" fill="#010204"/>
<path transform="translate(666,27)" d="m0 0 1 4z" fill="#000102"/>
<path transform="translate(851,25)" d="m0 0 1 4z" fill="#000102"/>
<path transform="translate(881,22)" d="m0 0 1 4z" fill="#000101"/>
<path transform="translate(825,21)" d="m0 0 1 4z" fill="#000001"/>
<path transform="translate(1007,11)" d="m0 0 1 4z" fill="#000002"/>
<path transform="translate(613,273)" d="m0 0 1 2-2-1 1-1z" fill="#2F2A15"/>
<path transform="translate(661,106)" d="m0 0 2 2h-2v-2z" fill="#16140D"/>
<path transform="translate(1024,208)" d="m0 0 2 1z" fill="#221F13"/>
<path transform="translate(574,208)" d="m0 0 2 1z" fill="#151412"/>
<path transform="translate(968,202)" d="m0 0 2 1z" fill="#2F2A15"/>
<path transform="translate(630,202)" d="m0 0 2 1z" fill="#221F13"/>
<path transform="translate(580,197)" d="m0 0 2 1z" fill="#2F2A15"/>
<path transform="translate(1e3 107)" d="m0 0 2 1z" fill="#0A0B0A"/>
<path transform="translate(980,107)" d="m0 0 2 1z" fill="#221F13"/>
<path transform="translate(866,107)" d="m0 0 2 1z" fill="#221F13"/>
<path transform="translate(810,107)" d="m0 0 2 1z" fill="#221F13"/>
<path transform="translate(741,107)" d="m0 0 2 1z" fill="#0A0A0A"/>
<path transform="translate(691,107)" d="m0 0 2 1z" fill="#18160D"/>
</svg>
