<svg width="257" height="49" viewBox="0 0 257 49" fill="none" xmlns="http://www.w3.org/2000/svg">
<path d="M171.935 29.0064V0.601166H176.944V24.4977H191.873V29.0565H171.935V29.0064Z" fill="white"/>
<path d="M245.177 29.5074C240.768 29.5074 237.262 28.1047 234.506 25.3493C231.801 22.5939 230.448 19.0871 230.448 14.8288C230.448 10.7709 231.851 7.31421 234.606 4.45865C237.362 1.6031 240.869 0.150269 245.077 0.150269C247.481 0.150269 249.485 0.450858 251.189 1.10212C252.892 1.75339 254.495 2.70525 255.998 4.00778L252.842 7.76509C251.64 6.71304 250.437 5.96158 249.235 5.4606C248.033 4.95963 246.58 4.70914 244.876 4.70914C242.271 4.70914 240.067 5.71109 238.314 7.66489C236.56 9.61869 235.658 12.0234 235.658 14.8288C235.658 17.7846 236.56 20.1893 238.314 22.093C240.117 23.9967 242.422 24.9485 245.277 24.9485C247.932 24.9485 250.237 24.2472 252.141 22.7943V16.983H244.876V12.6245H257V25.0487C253.593 28.0546 249.636 29.5074 245.177 29.5074Z" fill="white"/>
<path d="M221.381 25.199C218.575 28.0546 215.018 29.5074 210.71 29.5074C206.402 29.5074 202.845 28.1047 200.089 25.2491C197.284 22.3935 195.931 18.9368 195.931 14.8288C195.931 10.7709 197.334 7.31421 200.139 4.45865C202.945 1.6031 206.502 0.150269 210.81 0.150269C215.119 0.150269 218.675 1.553 221.431 4.40855C224.236 7.26411 225.589 10.7208 225.589 14.8288C225.589 18.8867 224.186 22.3434 221.381 25.199ZM203.847 21.9928C205.65 23.9466 208.005 24.9485 210.76 24.9485C213.566 24.9485 215.82 23.9967 217.623 22.0429C219.427 20.0891 220.329 17.6844 220.329 14.8789C220.329 12.0735 219.427 9.66879 217.573 7.71499C215.77 5.76119 213.415 4.75924 210.66 4.75924C207.854 4.75924 205.6 5.71109 203.797 7.66489C201.993 9.61869 201.091 12.0234 201.091 14.8288C201.141 17.6343 202.043 20.039 203.847 21.9928Z" fill="white"/>
<path d="M224.537 12.6245H196.983V16.983H224.537V12.6245Z" fill="white"/>
<path d="M140.473 25.4495C137.618 22.644 136.165 19.0871 136.165 14.7788C136.165 10.4704 137.568 6.91344 140.423 4.15808C143.279 1.35263 146.735 0 150.843 0C154.901 0 158.358 1.40273 161.214 4.20818C164.069 7.01364 165.522 10.5706 165.522 14.8789C165.522 19.1873 164.119 22.7442 161.264 25.4996C158.408 28.3051 154.951 29.6577 150.843 29.6577C146.836 29.6577 143.379 28.255 140.473 25.4495ZM143.73 7.91539C141.776 9.7189 140.774 12.0735 140.774 14.8289C140.774 17.6343 141.726 19.8887 143.68 21.6922C145.633 23.4957 148.038 24.3975 150.843 24.3975C153.649 24.3975 156.054 23.4957 158.007 21.6421C159.961 19.8386 160.963 17.484 160.963 14.7287C160.963 11.9232 160.011 9.66881 158.058 7.8653C156.104 6.06179 153.699 5.16003 150.894 5.16003C148.088 5.21013 145.683 6.11188 143.73 7.91539Z" fill="white"/>
<path d="M153.079 28.6086V1.05496L148.721 1.05496V28.6086H153.079Z" fill="white"/>
<path d="M105.856 4.4086C108.661 1.55304 112.218 0.10022 116.527 0.10022C120.835 0.10022 124.392 1.50295 127.147 4.3585C129.953 7.21406 131.305 10.6708 131.305 14.7788C131.305 18.8367 129.903 22.2934 127.097 25.1489C124.292 28.0045 120.735 29.4573 116.427 29.4573C112.118 29.4573 108.561 28.0546 105.806 25.199C103 22.3435 101.648 18.8868 101.648 14.7788C101.648 10.771 103.051 7.31425 105.856 4.4086ZM123.39 7.66493C121.587 5.71113 119.232 4.70919 116.477 4.70919C113.671 4.70919 111.417 5.66104 109.613 7.61484C107.81 9.56864 106.908 11.9733 106.908 14.7788C106.908 17.5842 107.81 19.9889 109.663 21.9427C111.467 23.8965 113.821 24.8985 116.577 24.8985C119.382 24.8985 121.637 23.9466 123.44 21.9928C125.244 20.039 126.145 17.6343 126.145 14.8289C126.145 12.0234 125.244 9.61873 123.39 7.66493Z" fill="white"/>
<path d="M102.733 17.0172L130.286 17.0172V12.6587L102.733 12.6587V17.0172Z" fill="white"/>
<path d="M83.5626 29.0064V5.21013H74.545V0.601166H97.5899V5.21013H88.5723V29.0064H83.5626Z" fill="white"/>
<path d="M9.01754 29.0064V5.21013H0V0.601166H23.0448V5.21013H14.0273V29.0064H9.01754Z" fill="white"/>
<path d="M57.061 29.0064V5.21013H48.0435V0.601166H71.0883V5.21013H62.0707V29.0064H57.061Z" fill="white"/>
<path d="M42.9335 29.0064H48.0434L35.5692 0.400757L23.0949 29.0064H28.2048H42.9335ZM30.1587 24.3974L31.1105 22.1431L32.914 17.7345L35.5692 11.5725L38.2243 17.7345L40.0279 22.1431L40.9797 24.3974H30.1587Z" fill="white"/>
<path d="M12.9418 41.5391C13.4807 41.8385 13.8998 42.2576 14.1991 42.7964C14.4985 43.3353 14.6781 43.934 14.6781 44.6524C14.6781 45.3709 14.4985 45.9696 14.1991 46.5085C13.8998 47.0473 13.4807 47.4664 12.9418 47.7658C12.403 48.0652 11.8042 48.2448 11.0858 48.2448H9.40935C9.2896 48.2448 9.22973 48.1849 9.16986 48.125C9.10999 48.0652 9.05011 47.9454 9.05011 47.8855V41.4194C9.05011 41.2996 9.10999 41.2397 9.16986 41.1799C9.22973 41.12 9.34947 41.0601 9.40935 41.0601H11.0858C11.7444 41.12 12.403 41.2397 12.9418 41.5391ZM12.5826 47.2868C13.0017 47.0473 13.3609 46.6881 13.6004 46.2091C13.8399 45.79 13.9596 45.2512 13.9596 44.7123C13.9596 44.1735 13.8399 43.6346 13.6004 43.2155C13.3609 42.7964 13.0017 42.4372 12.5826 42.1378C12.1635 41.8983 11.6246 41.7786 11.0858 41.7786H9.76858V47.7059H11.0858C11.6246 47.6461 12.1036 47.5263 12.5826 47.2868Z" fill="white"/>
<path d="M21.743 41.1796C21.8029 41.1198 21.9227 41.0599 21.9825 41.0599C22.1023 41.0599 22.1621 41.1198 22.222 41.1796C22.2819 41.2395 22.3418 41.3592 22.3418 41.4191V47.8853C22.3418 48.005 22.2819 48.0649 22.222 48.1248C22.1621 48.1847 22.0424 48.2445 21.9825 48.2445C21.8628 48.2445 21.8029 48.1847 21.743 48.1248C21.6832 48.0649 21.6233 47.9452 21.6233 47.8853V41.4191C21.6832 41.3592 21.6832 41.2395 21.743 41.1796Z" fill="white"/>
<path d="M33.2385 41.2994C33.5978 41.5389 33.8972 41.7784 34.0768 42.1376C34.1366 42.1975 34.1366 42.2573 34.1366 42.3771C34.1366 42.4968 34.0768 42.5567 33.957 42.6764C33.8971 42.6764 33.8373 42.7363 33.7774 42.7363C33.7175 42.7363 33.6577 42.7363 33.5978 42.6764C33.5379 42.6166 33.478 42.6166 33.478 42.5567C33.1188 42.0178 32.6398 41.7185 31.9214 41.7185C31.4424 41.7185 31.0233 41.8382 30.7239 42.0179C30.4246 42.1975 30.3048 42.4968 30.3048 42.9159C30.3048 43.6344 30.9035 44.0535 32.0411 44.2331C32.8194 44.3529 33.3583 44.5924 33.7175 44.9516C34.0768 45.3108 34.2564 45.7898 34.2564 46.3885C34.2564 46.8076 34.1366 47.1669 33.957 47.5261C33.7774 47.8255 33.478 48.0649 33.1188 48.2446C32.7596 48.4242 32.3405 48.484 31.9214 48.484C31.3226 48.484 30.8437 48.3643 30.3647 48.1248C29.8857 47.8853 29.5863 47.5261 29.4067 47.107C29.4067 47.0471 29.3469 46.9872 29.3469 46.9872C29.3469 46.9274 29.4067 46.8076 29.4666 46.7477C29.5265 46.6879 29.6462 46.6879 29.7061 46.6879C29.766 46.6879 29.8258 46.6879 29.8857 46.7477C29.9456 46.8076 30.0055 46.8675 30.0055 46.9274C30.1252 47.2267 30.3647 47.4063 30.7239 47.586C31.0233 47.7656 31.4424 47.8255 31.8615 47.8255C32.3405 47.8255 32.7596 47.7057 33.0589 47.4662C33.3583 47.2267 33.5379 46.8675 33.5379 46.4484C33.5379 46.0892 33.4182 45.7299 33.1188 45.4904C32.8195 45.2509 32.4003 45.0713 31.8615 45.0115C31.143 44.9516 30.6042 44.7121 30.1851 44.3529C29.766 43.9936 29.5863 43.5745 29.5863 43.0357C29.5863 42.6765 29.7061 42.3172 29.8857 42.0777C30.0653 41.7784 30.3647 41.5987 30.7239 41.4191C31.0832 41.2395 31.5023 41.1796 31.9214 41.1796C32.4602 41 32.8793 41.1198 33.2385 41.2994Z" fill="white"/>
<path d="M45.8117 41.1796C46.1709 41.2994 46.5301 41.5389 46.8894 41.7784C46.9492 41.8382 47.0091 41.8981 47.0091 42.0179C47.0091 42.0777 47.0091 42.1376 46.9493 42.1376C46.9493 42.1975 46.8894 42.1975 46.8295 42.1975C46.8295 42.2573 46.7696 42.2573 46.7696 42.3172C46.7098 42.3172 46.7098 42.3771 46.6499 42.3771C46.5301 42.3771 46.4703 42.3771 46.4104 42.3172C46.1709 42.0777 45.9314 41.958 45.6321 41.8382C45.3327 41.7185 45.0333 41.7185 44.6741 41.7185C44.1353 41.7185 43.6563 41.8382 43.2372 42.1376C42.8181 42.437 42.4588 42.7962 42.1595 43.2153C41.8601 43.6344 41.7404 44.1733 41.7404 44.7121C41.7404 45.2509 41.8601 45.7898 42.0996 46.2089C42.3391 46.6879 42.6983 47.0471 43.1773 47.2866C43.5964 47.586 44.0754 47.7057 44.6142 47.7057C45.2728 47.7057 45.8715 47.4662 46.4104 47.0471C46.4703 46.9872 46.5301 46.9872 46.59 46.9872C46.7098 46.9872 46.7696 47.0471 46.8295 47.107C46.8894 47.1669 46.9493 47.2267 46.9493 47.3465C46.9493 47.4662 46.8894 47.5261 46.8295 47.586C46.2308 48.1248 45.5123 48.3643 44.5544 48.3643C43.8958 48.3643 43.2971 48.1847 42.7582 47.8853C42.2194 47.586 41.8002 47.107 41.441 46.5681C41.0818 46.0293 40.962 45.3707 40.962 44.7121C40.962 44.0535 41.1416 43.4548 41.441 42.8561C41.7404 42.2573 42.2194 41.8382 42.7582 41.5389C43.2971 41.1796 43.8958 41.0599 44.5544 41.0599C45.0333 41 45.4524 41.0599 45.8117 41.1796Z" fill="white"/>
<path d="M59.2231 41.479C59.7619 41.7783 60.2409 42.2573 60.5403 42.7962C60.8396 43.335 61.0193 43.9936 61.0193 44.7121C61.0193 45.4305 60.8396 46.0293 60.5403 46.628C60.2409 47.2267 59.7619 47.6458 59.2231 47.9452C58.6842 48.2445 58.0256 48.4242 57.367 48.4242C56.6486 48.4242 56.0499 48.2445 55.4511 47.9452C54.8524 47.6458 54.4333 47.1668 54.134 46.628C53.8346 46.0891 53.655 45.4305 53.655 44.7121C53.655 43.9936 53.8346 43.3949 54.134 42.7962C54.4333 42.1974 54.9123 41.7783 55.4511 41.479C55.99 41.1796 56.6486 41 57.367 41C58.0256 41 58.6244 41.1796 59.2231 41.479ZM55.8104 42.0777C55.3314 42.3172 55.032 42.6764 54.7327 43.1554C54.4333 43.6344 54.3734 44.1134 54.3734 44.6522C54.3734 45.1911 54.4932 45.7299 54.7327 46.2089C54.9722 46.6879 55.3314 47.0471 55.8104 47.2866C56.2893 47.5261 56.7683 47.7057 57.3072 47.7057C57.846 47.7057 58.3849 47.5859 58.804 47.2866C59.283 47.0471 59.5823 46.6879 59.8817 46.2089C60.181 45.7299 60.2409 45.2509 60.2409 44.6522C60.2409 44.1134 60.1212 43.5745 59.8817 43.1554C59.6422 42.7363 59.283 42.3172 58.804 42.0777C58.325 41.8382 57.846 41.6586 57.3072 41.6586C56.7683 41.6586 56.2295 41.8382 55.8104 42.0777Z" fill="white"/>
<path d="M73.293 41.1796C73.3529 41.2395 73.3529 41.2994 73.3529 41.4191C73.3529 41.479 73.3529 41.5388 73.293 41.5987L70.5389 48.0051C70.479 48.1847 70.3593 48.2445 70.2395 48.2445C70.1796 48.2445 70.1198 48.2445 70.0599 48.1847C70 48.1248 69.9402 48.0649 69.9402 48.0051L67.186 41.5987C67.1262 41.479 67.1262 41.4191 67.1262 41.3592C67.1262 41.2395 67.186 41.1796 67.2459 41.1198C67.3058 41.0599 67.3657 41.0599 67.4854 41.0599C67.665 41.0599 67.7848 41.1197 67.8446 41.2994L70.2994 47.107L72.7541 41.2994C72.814 41.1796 72.814 41.1198 72.8739 41.1198C72.9338 41.0599 72.9936 41.0599 73.1134 41.0599C73.1732 41.1197 73.2331 41.1198 73.293 41.1796Z" fill="white"/>
<path d="M84.9681 47.7057C85.028 47.7656 85.0879 47.8255 85.0879 47.9452C85.0879 48.0649 85.028 48.1248 84.9681 48.1847C84.9082 48.2446 84.7885 48.3044 84.7286 48.3044H80.4178C80.2981 48.3044 80.2382 48.2446 80.1783 48.1847C80.1185 48.1248 80.0586 48.0051 80.0586 47.9452V41.479C80.0586 41.3593 80.1185 41.2994 80.1783 41.2395C80.2382 41.1797 80.358 41.1198 80.4178 41.1198H84.7286C84.8484 41.1198 84.9082 41.1797 84.9681 41.2395C85.028 41.2994 85.0879 41.4191 85.0879 41.479C85.0879 41.5389 85.028 41.6586 84.9681 41.7185C84.9082 41.7784 84.7885 41.8383 84.7286 41.8383H80.7771V44.3529H83.6509C83.7707 44.3529 83.8305 44.4128 83.8904 44.4726C83.9503 44.5325 84.0102 44.6522 84.0102 44.7121C84.0102 44.8319 83.9503 44.8917 83.8904 44.9516C83.8305 45.0115 83.7108 45.0713 83.6509 45.0713H80.7771V47.6458H84.7286C84.7885 47.586 84.9082 47.6458 84.9681 47.7057Z" fill="white"/>
<path d="M96.4635 48.0051C96.4635 48.1248 96.4036 48.1847 96.3438 48.2446C96.2839 48.3044 96.1641 48.3044 96.1043 48.3044C96.0444 48.3044 95.9845 48.3044 95.9247 48.2446C95.8648 48.1847 95.8049 48.1847 95.8049 48.1248L94.1285 45.4904H93.9489H92.6317V47.9452C92.6317 48.0649 92.5718 48.1248 92.5119 48.1847C92.4521 48.2446 92.3323 48.3044 92.2724 48.3044C92.1527 48.3044 92.0928 48.2446 92.033 48.1847C91.9731 48.1248 91.9132 48.0051 91.9132 47.9452V41.479C91.9132 41.3593 91.9731 41.2994 92.033 41.2395C92.0928 41.1797 92.2126 41.1198 92.2724 41.1198H94.0087C94.4278 41.1198 94.8469 41.2395 95.2062 41.4191C95.5654 41.5988 95.8049 41.8981 96.0444 42.1975C96.224 42.5567 96.3438 42.916 96.3438 43.3351C96.3438 43.814 96.224 44.2331 95.9845 44.5924C95.745 44.9516 95.3858 45.1911 94.9667 45.3707L96.4635 47.7656C96.4635 47.8255 96.4635 47.8853 96.4635 48.0051ZM94.0087 44.772C94.3081 44.772 94.6075 44.7121 94.847 44.5924C95.0864 44.4726 95.2661 44.293 95.4457 44.0535C95.5654 43.814 95.6253 43.5745 95.6253 43.2752C95.6253 42.9758 95.5654 42.7363 95.4457 42.4968C95.3259 42.2573 95.0864 42.0777 94.847 41.958C94.6075 41.8382 94.3081 41.7784 94.0087 41.7784H92.6317V44.772H94.0087Z" fill="white"/>
<path d="M116.221 41.1796C116.281 41.2395 116.341 41.2994 116.341 41.4191C116.341 41.5389 116.281 41.5987 116.221 41.6586C116.161 41.7185 116.102 41.7783 115.982 41.7783H113.767V47.9452C113.767 48.0649 113.707 48.1248 113.647 48.1847C113.587 48.2445 113.467 48.3044 113.407 48.3044C113.288 48.3044 113.228 48.2445 113.168 48.1847C113.108 48.1248 113.048 48.005 113.048 47.9452V41.7783H110.893C110.773 41.7783 110.713 41.7185 110.653 41.6586C110.593 41.5987 110.533 41.5389 110.533 41.4191C110.533 41.2994 110.593 41.2395 110.653 41.1796C110.713 41.1198 110.773 41.0599 110.893 41.0599H115.982C116.102 41.1197 116.161 41.1198 116.221 41.1796Z" fill="white"/>
<path d="M127.597 47.9452C127.597 48.0649 127.537 48.1248 127.477 48.1847C127.417 48.2446 127.298 48.3044 127.238 48.3044C127.058 48.3044 126.938 48.2446 126.879 48.065L126.28 46.5682H122.687L122.089 48.065C122.029 48.1847 121.909 48.3044 121.73 48.3044C121.61 48.3044 121.55 48.2446 121.49 48.1847C121.43 48.1248 121.37 48.0051 121.37 47.9452C121.37 47.8853 121.37 47.8255 121.37 47.7656L124.065 41.3593C124.124 41.1797 124.244 41.1198 124.424 41.1198C124.603 41.1198 124.723 41.1797 124.783 41.3593L127.477 47.7656C127.597 47.8255 127.597 47.8853 127.597 47.9452ZM126.04 45.9694L124.484 42.2573L122.927 45.9694H126.04Z" fill="white"/>
<path d="M138.314 41.1796C138.374 41.2395 138.434 41.2994 138.434 41.4191C138.434 41.5389 138.374 41.5987 138.314 41.6586C138.254 41.7185 138.194 41.7783 138.075 41.7783H135.859V47.9452C135.859 48.0649 135.8 48.1248 135.74 48.1847C135.68 48.2445 135.56 48.3044 135.5 48.3044C135.38 48.3044 135.321 48.2445 135.261 48.1847C135.201 48.1248 135.141 48.005 135.141 47.9452V41.7783H132.986C132.866 41.7783 132.806 41.7185 132.746 41.6586C132.686 41.5987 132.626 41.5389 132.626 41.4191C132.626 41.2994 132.686 41.2395 132.746 41.1796C132.806 41.1198 132.866 41.0599 132.986 41.0599H138.075C138.135 41.1197 138.254 41.1198 138.314 41.1796Z" fill="white"/>
<path d="M149.869 41.1796C149.929 41.2395 149.989 41.2994 149.989 41.4191C149.989 41.5389 149.929 41.5987 149.869 41.6586C149.81 41.7185 149.75 41.7783 149.63 41.7783H147.415V47.9452C147.415 48.0649 147.355 48.1248 147.295 48.1847C147.235 48.2445 147.115 48.3044 147.055 48.3044C146.936 48.3044 146.876 48.2445 146.816 48.1847C146.756 48.1248 146.696 48.005 146.696 47.9452V41.7783H144.541C144.421 41.7783 144.361 41.7185 144.301 41.6586C144.242 41.5987 144.182 41.5389 144.182 41.4191C144.182 41.2994 144.242 41.2395 144.301 41.1796C144.361 41.1198 144.421 41.0599 144.541 41.0599H149.63C149.69 41.1197 149.81 41.1198 149.869 41.1796Z" fill="white"/>
<path d="M161.305 41.479C161.844 41.7783 162.323 42.2573 162.622 42.7962C162.922 43.335 163.101 43.9936 163.101 44.7121C163.101 45.4305 162.922 46.0293 162.622 46.628C162.323 47.2267 161.844 47.6458 161.305 47.9452C160.766 48.2445 160.108 48.4242 159.449 48.4242C158.731 48.4242 158.132 48.2445 157.533 47.9452C156.934 47.6458 156.515 47.1668 156.216 46.628C155.917 46.0891 155.737 45.4305 155.737 44.7121C155.737 43.9936 155.917 43.3949 156.216 42.7962C156.515 42.1974 156.994 41.7783 157.533 41.479C158.072 41.1796 158.731 41 159.449 41C160.108 41 160.706 41.1796 161.305 41.479ZM157.892 42.0777C157.413 42.3172 157.114 42.6764 156.815 43.1554C156.515 43.6344 156.455 44.1134 156.455 44.6522C156.455 45.1911 156.575 45.7299 156.815 46.2089C157.054 46.6879 157.413 47.0471 157.892 47.2866C158.371 47.5261 158.85 47.7057 159.389 47.7057C159.928 47.7057 160.467 47.5859 160.886 47.2866C161.365 47.0471 161.664 46.6879 161.964 46.2089C162.263 45.7299 162.323 45.2509 162.323 44.6522C162.323 44.1134 162.203 43.5745 161.964 43.1554C161.724 42.7363 161.365 42.3172 160.886 42.0777C160.407 41.8382 159.928 41.6586 159.389 41.6586C158.85 41.6586 158.311 41.8382 157.892 42.0777Z" fill="white"/>
<path d="M175.076 41.479C175.615 41.7783 176.093 42.2573 176.393 42.7962C176.692 43.335 176.872 43.9936 176.872 44.7121C176.872 45.4305 176.692 46.0293 176.393 46.628C176.093 47.2267 175.615 47.6458 175.076 47.9452C174.537 48.2445 173.878 48.4242 173.22 48.4242C172.501 48.4242 171.902 48.2445 171.304 47.9452C170.705 47.6458 170.286 47.1668 169.987 46.628C169.687 46.0891 169.508 45.4305 169.508 44.7121C169.508 43.9936 169.687 43.3949 169.987 42.7962C170.286 42.1974 170.765 41.7783 171.304 41.479C171.843 41.1796 172.501 41 173.22 41C173.938 41 174.537 41.1796 175.076 41.479ZM171.663 42.0777C171.184 42.3172 170.885 42.6764 170.585 43.1554C170.286 43.6344 170.226 44.1134 170.226 44.6522C170.226 45.1911 170.346 45.7299 170.585 46.2089C170.825 46.6879 171.184 47.0471 171.663 47.2866C172.142 47.5261 172.621 47.7057 173.16 47.7057C173.699 47.7057 174.237 47.5859 174.657 47.2866C175.136 47.0471 175.435 46.6879 175.734 46.2089C176.034 45.7299 176.093 45.2509 176.093 44.6522C176.093 44.1134 175.974 43.5745 175.734 43.1554C175.495 42.7363 175.136 42.3172 174.657 42.0777C174.178 41.8382 173.699 41.6586 173.16 41.6586C172.681 41.6586 172.142 41.8382 171.663 42.0777Z" fill="white"/>
<path d="M199.563 41.1796C199.623 41.2395 199.623 41.2994 199.623 41.4191C199.623 41.479 199.623 41.5388 199.623 41.5987L197.767 47.9452C197.707 48.0649 197.707 48.1248 197.647 48.1847C197.588 48.2445 197.528 48.2445 197.408 48.2445C197.288 48.2445 197.228 48.2445 197.168 48.1847C197.109 48.1248 197.049 48.0649 197.049 47.9452L195.552 42.4968L194.055 47.9452C193.995 48.0649 193.995 48.1248 193.935 48.1847C193.876 48.2445 193.816 48.2445 193.696 48.2445C193.576 48.2445 193.516 48.2445 193.456 48.1847C193.397 48.1248 193.337 48.0649 193.337 47.9452L191.421 41.5389C191.421 41.479 191.421 41.4191 191.421 41.3592C191.421 41.2395 191.481 41.1796 191.541 41.1198C191.6 41.0599 191.66 41 191.78 41C191.96 41 192.079 41.1197 192.139 41.2994L193.756 46.8675L195.253 41.479C195.253 41.4191 195.312 41.3592 195.372 41.2994C195.432 41.2395 195.492 41.2395 195.612 41.2395C195.672 41.2395 195.791 41.2395 195.851 41.2994C195.911 41.3592 195.971 41.4191 195.971 41.479L197.468 46.8675L199.084 41.2994C199.144 41.1197 199.264 41.0599 199.444 41.0599C199.444 41.1197 199.504 41.1198 199.563 41.1796Z" fill="white"/>
<path d="M210.999 41.479C211.538 41.7783 212.017 42.2573 212.316 42.7962C212.616 43.335 212.795 43.9936 212.795 44.7121C212.795 45.4305 212.616 46.0293 212.316 46.628C212.017 47.2267 211.538 47.6458 210.999 47.9452C210.46 48.2445 209.802 48.4242 209.143 48.4242C208.424 48.4242 207.826 48.2445 207.227 47.9452C206.628 47.6458 206.209 47.1668 205.91 46.628C205.611 46.0891 205.431 45.4305 205.431 44.7121C205.431 43.9936 205.611 43.3949 205.91 42.7962C206.209 42.1974 206.688 41.7783 207.227 41.479C207.766 41.1796 208.424 41 209.143 41C209.861 41 210.46 41.1796 210.999 41.479ZM207.646 42.0777C207.167 42.3172 206.868 42.6764 206.568 43.1554C206.269 43.6344 206.209 44.1134 206.209 44.6522C206.209 45.1911 206.329 45.7299 206.568 46.2089C206.808 46.6879 207.167 47.0471 207.646 47.2866C208.125 47.5261 208.604 47.7057 209.143 47.7057C209.682 47.7057 210.221 47.5859 210.64 47.2866C211.119 47.0471 211.418 46.6879 211.717 46.2089C212.017 45.7299 212.077 45.2509 212.077 44.6522C212.077 44.1134 211.957 43.5745 211.717 43.1554C211.478 42.7363 211.119 42.3172 210.64 42.0777C210.161 41.8382 209.682 41.6586 209.143 41.6586C208.604 41.6586 208.065 41.8382 207.646 42.0777Z" fill="white"/>
<path d="M224.41 48.0051C224.41 48.1248 224.35 48.1847 224.291 48.2446C224.231 48.3044 224.111 48.3044 224.051 48.3044C223.991 48.3044 223.931 48.3044 223.872 48.2446C223.812 48.1847 223.752 48.1847 223.752 48.1248L222.075 45.4904H221.896H220.519V47.9452C220.519 48.0649 220.459 48.1248 220.399 48.1847C220.339 48.2446 220.219 48.3044 220.159 48.3044C220.04 48.3044 219.98 48.2446 219.92 48.1847C219.86 48.1248 219.8 48.0051 219.8 47.9452V41.479C219.8 41.3593 219.86 41.2994 219.92 41.2395C219.98 41.1797 220.1 41.1198 220.159 41.1198H221.896C222.315 41.1198 222.734 41.2395 223.093 41.4191C223.452 41.5988 223.692 41.8981 223.931 42.1975C224.111 42.5567 224.231 42.916 224.231 43.3351C224.231 43.814 224.111 44.2331 223.872 44.5924C223.632 44.9516 223.273 45.1911 222.854 45.3707L224.35 47.7656C224.35 47.8255 224.41 47.8853 224.41 48.0051ZM221.896 44.772C222.195 44.772 222.494 44.7121 222.734 44.5924C222.973 44.4726 223.153 44.293 223.333 44.0535C223.452 43.814 223.512 43.5745 223.512 43.2752C223.512 42.9758 223.452 42.7363 223.333 42.4968C223.213 42.2573 222.973 42.0777 222.734 41.958C222.494 41.8382 222.195 41.7784 221.896 41.7784H220.519V44.772H221.896Z" fill="white"/>
<path d="M235.606 47.7057C235.666 47.7656 235.726 47.8255 235.726 47.9452C235.726 48.0649 235.666 48.1248 235.606 48.1847C235.547 48.2446 235.427 48.3044 235.367 48.3044H231.415C231.296 48.3044 231.236 48.2446 231.176 48.1847C231.116 48.1248 231.056 48.0051 231.056 47.9452V41.479C231.056 41.3593 231.116 41.2994 231.176 41.2395C231.236 41.1797 231.356 41.1198 231.415 41.1198C231.535 41.1198 231.595 41.1797 231.655 41.2395C231.715 41.2994 231.775 41.4191 231.775 41.479V47.6458H235.367C235.487 47.586 235.547 47.6458 235.606 47.7057Z" fill="white"/>
<path d="M246.264 41.5389C246.803 41.8382 247.222 42.2573 247.521 42.7962C247.82 43.335 248 43.9337 248 44.6522C248 45.3707 247.82 45.9694 247.521 46.5082C247.222 47.0471 246.803 47.4662 246.264 47.7656C245.725 48.0649 245.126 48.2445 244.408 48.2445H242.731C242.611 48.2445 242.552 48.1847 242.492 48.1248C242.432 48.0649 242.372 47.9452 242.372 47.8853V41.4191C242.372 41.2994 242.432 41.2395 242.492 41.1796C242.552 41.1198 242.671 41.0599 242.731 41.0599H244.408C245.126 41.1197 245.725 41.2395 246.264 41.5389ZM245.904 47.2866C246.324 47.0471 246.683 46.6879 246.922 46.2089C247.162 45.7898 247.282 45.2509 247.282 44.7121C247.282 44.1732 247.162 43.6344 246.922 43.2153C246.683 42.7962 246.324 42.4369 245.904 42.1376C245.485 41.8981 244.946 41.7783 244.408 41.7783H243.09V47.7057H244.408C244.946 47.6458 245.485 47.5261 245.904 47.2866Z" fill="white"/>
</svg>
