<svg width="52" height="51" viewBox="0 0 52 51" fill="none" xmlns="http://www.w3.org/2000/svg">
<path id="Vector" d="M44.7027 7.39748C39.8156 2.46004 33.6075 -0.00578493 26.0782 1.01907e-05C18.5489 0.00580532 12.3203 2.49481 7.39233 7.46702C2.66316 12.309 0.0131324 18.781 4.86779e-05 25.5207C-0.013035 32.2605 2.61183 38.7425 7.32217 43.6025C12.1975 48.54 18.4027 51.0058 25.9379 51C33.473 50.9942 39.7016 48.5052 44.6237 43.533C49.3419 38.6858 51.9852 32.2169 51.9999 25.481C52.0147 18.7451 49.3997 12.2648 44.7027 7.39748ZM25.9554 7.95381C28.2268 7.89513 30.4844 8.32117 32.5752 9.20304C34.666 10.0849 36.5412 11.402 38.0736 13.0651C40.3703 15.4757 41.9117 18.4955 42.5105 21.7578H9.51432C10.0988 18.5015 11.6215 15.4824 13.8986 13.0651C15.4173 11.4013 17.2813 10.083 19.3624 9.20067C21.4436 8.31838 23.6928 7.89303 25.9554 7.95381ZM26.0957 43.0375C23.8249 43.0978 21.5675 42.6734 19.4767 41.793C17.3859 40.9126 15.5104 39.5969 13.9775 37.9349C11.6842 35.522 10.1433 32.5032 9.54065 29.2422H42.5281C41.9427 32.4982 40.4201 35.517 38.1438 37.9349C36.624 39.5992 34.7584 40.9172 32.6755 41.7981C30.5926 42.679 28.3418 43.1018 26.0782 43.0375H26.0957Z" fill="white"/>
</svg>
