<svg width="156" height="115" viewBox="0 0 156 115" fill="none" xmlns="http://www.w3.org/2000/svg">
<g id="Group 48095753">
<path id="Vector" d="M106.135 18.1947C104.503 14.6957 102.403 11.43 99.604 8.6308C96.8048 6.06489 93.5391 3.9655 89.8068 2.33265C86.0746 0.699794 82.1091 0 77.9103 0C76.9773 0 76.0442 0 75.1112 0.233265C74.4114 0.233265 73.7116 0.46653 72.7785 0.46653C71.6122 0.699794 70.4459 0.933059 69.2795 1.16632C69.2795 1.16632 69.5128 1.16632 69.5128 1.39959V1.63285C69.5128 1.63285 69.5128 1.63285 69.2795 1.63285C69.2795 1.63285 69.2795 1.63285 69.0463 1.39959L68.813 1.16632C68.813 1.16632 68.813 0.933059 69.0463 0.933059C67.88 1.63285 66.9469 1.86612 65.7806 2.33265C62.0483 3.9655 58.7826 6.06489 55.9834 8.6308C54.5839 10.0304 53.4175 11.43 52.2512 13.0628C52.0179 13.2961 51.7847 13.7626 51.5514 13.9959C50.8516 15.1622 49.9186 16.5618 49.452 17.9614C47.8192 21.4604 47.1194 25.4259 47.1194 29.3914C47.1194 32.8903 47.5859 36.156 48.7522 39.4217L48.9855 39.655C49.2188 40.1215 49.452 40.5881 49.6853 41.0546C51.0849 44.3203 53.1843 47.3528 55.5169 49.9187L55.7502 49.6854C55.7502 49.6854 55.7502 49.9187 55.7502 50.1519C55.9834 50.3852 56.2167 50.6185 56.2167 50.8517C57.1498 51.7848 58.3161 52.7178 59.2492 53.4176H59.4824C60.882 54.584 62.5149 55.517 64.1477 56.2168C64.6142 56.4501 65.314 56.6833 65.7806 57.1499C69.5128 58.7827 73.4783 59.4825 77.6771 59.4825C81.8758 59.4825 85.8413 58.7827 89.5736 57.1499C92.3728 55.9836 94.7054 54.584 97.0381 52.7178H97.2713C97.9711 52.0181 98.9042 51.3183 99.604 50.6185C102.403 47.8193 104.503 44.5536 106.135 41.0546C107.768 37.3224 108.468 33.5901 108.468 29.3914C108.468 25.6591 107.768 21.6936 106.135 18.1947ZM93.5391 44.7868C93.3058 44.7868 93.0726 45.0201 92.8393 45.2534C91.9062 46.1864 91.2064 46.8862 90.2734 47.586C90.2734 47.586 90.5066 47.8193 90.5066 48.0526C90.2734 48.0526 90.0401 48.0526 89.8068 48.0526C88.6405 48.9856 87.2409 49.6854 85.8413 50.1519C83.2754 51.3183 80.4763 51.7848 77.6771 51.7848C75.5777 51.7848 73.245 51.3183 71.1457 50.6185C70.6791 50.3852 69.9793 50.1519 69.5128 49.9187C66.9469 48.7523 64.6142 47.3528 62.7481 45.2534C60.882 43.3873 59.2492 41.0546 58.0828 38.2554C58.0828 38.0222 58.0828 38.0222 57.8496 37.7889V37.5556C57.383 36.156 56.9165 34.7565 56.6832 33.3569C56.45 33.1236 56.45 32.8903 56.45 32.6571C56.45 32.6571 56.45 32.4238 56.6832 32.4238C56.2167 31.724 56.2167 30.5577 56.2167 29.6246C56.2167 26.5922 56.6832 24.0263 57.8496 21.4604C59.0159 18.8944 60.4155 16.5618 62.5149 14.6957C64.381 12.8296 66.7136 11.1967 69.5128 10.0304C72.0787 8.86406 74.8779 8.39753 77.9103 8.39753C80.9428 8.39753 83.742 8.86406 86.3079 10.0304C88.8738 11.1967 91.2064 12.5963 93.3058 14.6957C95.1719 16.5618 96.8048 18.8944 97.9711 21.4604C99.1374 24.0263 99.604 26.8255 99.604 29.6246C99.604 30.791 99.604 31.724 99.3707 32.6571C99.3707 32.8903 99.604 32.8903 99.604 33.1236C99.604 33.3569 99.604 33.3569 99.604 33.5901H99.3707C99.1374 34.5232 98.9042 35.6895 98.6709 36.6226C98.9042 36.6226 98.9042 36.8558 98.9042 37.0891C98.9042 37.3224 98.6709 37.3224 98.4376 37.3224C98.2044 37.7889 98.2044 38.0222 97.9711 38.4887C97.2713 40.1215 96.3383 41.5211 95.4052 42.9207C94.7054 43.3873 94.2389 43.8538 93.5391 44.7868C93.7723 44.5536 93.5391 44.5536 93.5391 44.7868Z" fill="white"/>
<path id="Vector_2" d="M148.59 24.4927V43.6205C148.59 44.3203 148.356 45.2533 148.123 45.9531C147.89 46.6529 147.423 47.3527 146.957 47.8192C146.49 48.2858 145.79 48.7523 145.091 48.9856C143.691 49.4521 142.058 49.4521 140.659 48.9856C139.959 48.7523 139.492 48.519 139.026 48.0525C139.026 48.0525 138.793 48.0525 138.793 47.8192C138.326 47.3527 137.859 46.6529 137.626 45.9531C137.393 45.2533 137.16 44.5535 137.16 43.6205V41.7543C137.16 41.7543 137.16 41.7543 137.16 41.5211V35.6895H136.926L134.36 34.9897L133.661 34.7564C133.427 34.9897 133.427 35.2229 133.427 35.2229H133.194C133.194 34.9897 133.194 34.9897 133.427 34.5231L132.261 34.2899L131.795 34.0566L130.862 33.8233V35.4562V36.6225V42.9207C130.862 43.6205 130.628 44.5535 130.395 45.2533C130.162 45.9531 129.695 46.6529 129.229 47.1194C128.762 47.586 128.062 48.0525 127.363 48.2858C125.963 48.7523 124.33 48.7523 122.93 48.2858C122.231 48.0525 121.531 47.586 121.064 47.1194C120.598 46.6529 120.131 45.9531 119.898 45.2533C119.665 44.5535 119.432 43.8537 119.432 42.9207V31.4907C119.432 31.4907 119.198 31.4907 119.198 31.2574C119.198 31.2574 119.198 31.2574 119.198 31.0242C119.198 31.0242 119.198 31.0242 119.432 31.0242V26.1256V17.7281L112.2 16.0952V43.1539C112.2 44.7868 112.434 46.4196 113.133 48.0525C113.833 49.4521 114.766 50.8517 115.933 52.018C117.099 53.1843 118.498 54.1174 119.898 54.8172C122.231 55.7502 124.797 56.2168 127.596 55.517C128.529 55.2837 129.462 54.8172 130.395 54.3506C131.328 53.8841 132.028 53.4176 132.728 52.7178C133.194 52.2513 133.661 52.018 133.894 51.5515C134.127 52.018 134.594 52.4845 135.06 52.7178C135.76 53.4176 136.46 53.8841 137.393 54.3506C138.326 54.8172 139.259 55.0504 140.192 55.517C141.125 55.7502 142.291 55.9835 143.225 55.9835C144.857 55.9835 146.49 55.7502 148.123 55.0504C149.523 54.3506 150.922 53.6508 152.089 52.4845C153.255 51.3182 154.188 50.1519 154.888 48.519C155.588 47.1194 155.821 45.4866 155.821 43.8537V26.3589L148.59 24.4927Z" fill="white"/>
<path id="Vector_3" d="M0.233215 25.8923V43.3872C0.233215 45.0201 0.46648 46.6529 1.16627 48.0525C1.86607 49.4521 2.79913 50.8517 3.96545 52.018C5.13178 53.1843 6.53136 53.8841 7.93095 54.5839C9.56381 55.2837 10.9634 55.517 12.8295 55.517C13.7626 55.517 14.9289 55.2837 15.862 55.0504C16.795 54.8172 17.7281 54.3506 18.6611 53.8841C19.5942 53.4176 20.294 52.951 20.9938 52.2513C21.227 52.2513 21.6936 51.7847 21.9268 51.3182C22.3934 51.7847 22.6266 52.2513 23.0932 52.4845C23.793 53.1843 24.4928 53.6508 25.4258 54.1174C26.3589 54.5839 27.2919 54.8172 28.225 55.2837C31.0242 55.9835 33.5901 55.7502 35.9227 54.5839C37.3223 53.8841 38.7219 52.9511 39.8882 51.7847C41.0546 50.6184 41.9876 49.2188 42.6874 47.8192C43.3872 46.4196 43.6205 44.7868 43.6205 42.9207V16.0952L36.8558 17.7281V26.8254V31.724C36.8558 31.724 36.8558 31.724 37.0891 31.724C37.0891 31.724 37.0891 31.724 37.0891 31.9572C37.0891 31.9572 37.0891 32.1905 36.8558 32.1905V43.6205C36.8558 44.3203 36.6225 45.2533 36.3893 45.9531C36.156 46.6529 35.6895 47.3527 35.2229 47.8192C34.7564 48.2858 34.0566 48.7523 33.3568 48.9855C31.9572 49.4521 30.3244 49.4521 28.9248 48.9855C28.225 48.7523 27.5252 48.2858 27.0587 47.8192C26.5921 47.3527 26.1256 46.6529 25.8923 45.9531C25.6591 45.2533 25.4258 44.5535 25.4258 43.6205V37.3223V36.156V34.5231L24.4928 34.7564L23.5597 34.5231L22.3934 34.7564C22.6266 34.9897 22.6266 35.2229 22.6266 35.4562H22.3934C22.3934 35.4562 22.3934 35.2229 22.1601 34.9897H21.4603L18.8944 35.6895H18.6611V41.5211C18.6611 41.5211 18.6611 41.5211 18.6611 41.7543V43.6205C18.6611 44.3203 18.4279 45.2533 18.1946 45.9531C17.9613 46.6529 17.4948 47.3527 17.0283 47.8192L16.795 48.0525C16.3285 48.519 15.862 48.7523 15.1622 48.9855C13.7626 49.4521 12.1297 49.4521 10.7301 48.9855C10.0303 48.7523 9.56381 48.2858 8.86401 47.8192C8.39748 47.3527 7.93095 46.6529 7.69769 45.9531C7.46442 45.2533 7.23116 44.5535 7.23116 43.6205V24.4927L0.233215 25.8923Z" fill="white"/>
<path id="Vector_4" d="M53.1844 65.0814C53.1844 62.5155 53.1844 59.9496 53.1844 57.6169C60.8821 57.6169 68.3466 57.6169 76.0443 57.6169C76.0443 60.1829 76.0443 62.5155 76.0443 65.0814C73.4784 65.0814 70.9125 65.0814 68.5798 65.0814V65.3147C68.5798 65.3147 68.5798 65.3147 68.5798 65.5479V65.7812C68.5798 66.2477 68.5798 66.7143 68.5798 67.1808C68.5798 68.1139 68.5798 69.2802 68.5798 70.2132C68.5798 71.1463 68.5798 71.8461 68.5798 72.7792C68.5798 73.479 68.5798 73.9455 68.5798 74.6453C68.5798 75.5783 68.5798 76.7447 68.5798 77.6777C68.5798 78.1442 68.5798 78.6108 68.5798 79.0773C68.5798 80.4769 68.5798 82.1097 68.5798 83.5093C68.5798 84.9089 68.5798 86.5418 68.5798 87.9414C68.5798 89.341 68.5798 90.9738 68.5798 92.3734C68.5798 93.773 68.5798 95.4058 68.5798 96.8054C68.5798 98.205 68.5798 99.8379 68.5798 101.237C68.5798 102.637 68.5798 104.27 68.5798 105.669C68.5798 107.069 68.5798 108.702 68.5798 110.102V110.335V115L60.8821 113.134C60.8821 97.9718 60.8821 80.2436 60.8821 65.0814C58.3162 65.0814 55.7503 65.0814 53.1844 65.0814Z" fill="white"/>
<path id="Vector_5" d="M79.7766 65.0814C79.7766 62.5155 79.7766 59.9496 79.7766 57.6169C87.4743 57.6169 94.9388 57.6169 102.637 57.6169C102.637 60.1829 102.637 62.5155 102.637 65.0814C100.071 65.0814 97.5047 65.0814 95.1721 65.0814V65.3147C95.1721 65.3147 95.1721 65.3147 95.1721 65.5479V65.7812C95.1721 66.2477 95.1721 66.7143 95.1721 67.1808C95.1721 68.1139 95.1721 69.2802 95.1721 70.2132C95.1721 71.1463 95.1721 71.8461 95.1721 72.7792C95.1721 73.479 95.1721 73.9455 95.1721 74.6453C95.1721 75.5783 95.1721 76.7447 95.1721 77.6777C95.1721 78.1442 95.1721 78.6108 95.1721 79.0773C95.1721 80.4769 95.1721 82.1097 95.1721 83.5093C95.1721 84.9089 95.1721 86.5418 95.1721 87.9414C95.1721 89.341 95.1721 90.9738 95.1721 92.3734C95.1721 93.773 95.1721 95.4058 95.1721 96.8054C95.1721 98.205 95.1721 99.8379 95.1721 101.237C95.1721 102.637 95.1721 104.27 95.1721 105.669C95.1721 107.069 95.1721 108.702 95.1721 110.102V110.335V113.134L87.4743 114.767C87.4743 99.6046 87.4743 80.2436 87.4743 65.0814C84.6751 65.0814 82.1092 65.0814 79.7766 65.0814Z" fill="white"/>
<path id="Vector_6" d="M128.995 88.1745C128.995 91.9067 128.995 92.8398 128.995 96.3388C128.995 97.9716 128.762 99.6045 128.062 101.004C127.363 102.404 126.429 103.803 125.263 104.736C123.63 106.136 121.764 107.069 119.665 107.535C119.198 107.769 118.498 107.769 118.032 107.769C116.399 107.769 114.999 107.535 113.6 106.836C111.967 106.136 110.567 105.203 109.401 104.037C108.002 102.404 107.068 100.771 106.602 98.6714C106.369 97.9716 106.369 97.2718 106.369 96.3388C106.369 92.3733 106.369 90.9737 106.369 87.0082C106.369 85.6086 106.369 84.4423 106.369 83.2759C106.369 81.4098 106.369 79.5437 106.369 77.6776C106.369 76.7445 106.369 75.8115 106.369 74.8784C106.369 72.5458 106.369 70.4464 106.369 68.1137C106.369 65.7811 107.068 63.915 108.468 62.0488C109.634 60.416 111.034 59.2497 112.9 58.3166C114.066 57.8501 114.999 57.3835 116.166 57.3835C116.166 57.3835 116.166 57.3835 116.399 57.3835C117.099 57.3835 118.032 57.3835 118.732 57.3835C120.365 57.6168 121.997 58.0833 123.63 59.0164C124.563 59.4829 125.496 60.1827 126.196 61.1158C127.129 62.0488 127.829 63.4484 128.529 64.6148C128.995 65.7811 129.229 66.9474 129.229 68.1137C129.229 68.347 129.229 68.5803 129.229 68.8135C129.229 69.0468 129.229 69.28 129.229 69.5133C129.229 73.2455 129.229 76.9778 129.229 80.9433C129.229 81.8764 129.229 83.0427 129.229 83.9757C128.995 85.3753 128.995 86.7749 128.995 88.1745ZM121.298 80.0102C121.298 76.278 121.298 72.779 121.298 69.0468C121.298 67.6472 120.831 66.7141 119.898 65.7811C118.965 65.0813 118.032 64.848 116.866 65.0813C114.999 65.5478 114.066 66.9474 113.833 69.0468C113.833 74.6451 113.833 80.0102 113.833 85.6086C113.833 89.8074 113.833 91.4402 113.833 95.639C113.833 96.1055 113.833 96.572 113.833 97.0386C113.833 97.9716 114.3 98.6714 114.999 99.1379C115.933 100.071 116.866 100.304 118.265 100.071C119.432 99.8377 120.365 99.1379 121.064 98.2049C121.298 97.7383 121.531 97.0386 121.531 96.572C121.531 92.6065 121.531 91.4402 121.531 87.4747C121.531 86.3084 121.531 85.1421 121.531 83.9757C121.298 82.8094 121.298 81.4098 121.298 80.0102Z" fill="white"/>
<path id="Vector_7" d="M155.588 88.1746C155.588 91.9069 155.588 86.5418 155.588 90.274C155.588 91.9069 155.354 93.5397 154.655 94.9393C153.955 96.3389 153.022 97.7385 151.855 98.6715C150.223 100.071 148.356 101.004 146.257 101.471C145.79 101.704 145.091 101.704 144.624 101.704C142.991 101.704 141.592 101.471 140.192 100.771C138.559 100.071 137.16 99.1381 135.993 97.9717C134.594 96.3389 133.661 94.706 133.194 92.6067C132.961 91.9069 132.961 91.2071 132.961 90.274C132.961 86.3085 132.961 91.2071 132.961 87.2416C132.961 85.842 132.961 84.6757 132.961 83.5093C132.961 81.6432 132.961 79.7771 132.961 77.911C132.961 76.9779 132.961 76.0449 132.961 75.1118C132.961 72.7792 132.961 70.6798 132.961 68.3471C132.961 66.0145 133.661 64.1484 135.06 62.2822C136.227 60.6494 137.626 59.4831 139.492 58.55C140.659 58.0835 141.592 57.6169 142.758 57.6169C142.758 57.6169 142.758 57.6169 142.991 57.6169C143.691 57.6169 144.624 57.6169 145.324 57.6169C146.957 57.8502 148.59 58.3167 150.223 59.2498C151.156 59.7163 152.089 60.4161 152.788 61.3492C153.722 62.2822 154.421 63.6818 155.121 64.8481C155.588 66.0145 155.821 67.1808 155.821 68.3471C155.821 68.5804 155.821 68.8137 155.821 69.0469C155.821 69.2802 155.821 69.5134 155.821 69.7467C155.821 73.4789 155.821 77.2112 155.821 81.1767C155.821 82.1097 155.821 83.2761 155.821 84.2091C155.588 85.3754 155.588 86.775 155.588 88.1746ZM147.89 80.0104C147.89 76.2781 147.89 72.7792 147.89 69.0469C147.89 67.6473 147.423 66.7143 146.49 65.7812C145.557 65.0814 144.624 64.8481 143.458 65.0814C141.592 65.5479 140.659 66.9475 140.425 69.0469C140.425 74.6453 140.425 80.0104 140.425 85.6087C140.425 89.8075 140.425 85.1422 140.425 89.5742C140.425 90.0407 140.425 90.5073 140.425 90.9738C140.425 91.9069 140.892 92.6067 141.592 93.0732C142.525 94.0063 143.458 94.2395 144.857 94.0062C146.024 93.773 146.957 93.0732 147.657 92.1401C147.89 91.6736 148.123 90.9738 148.123 90.5073C148.123 86.5418 148.123 91.6736 148.123 87.7081C148.123 86.5418 148.123 85.3754 148.123 84.2091C147.89 82.8095 147.89 81.4099 147.89 80.0104Z" fill="white"/>
<path id="Vector_8" d="M34.29 107.068V87.7072H41.7545V108.701L49.2189 110.334H49.4522V87.7072C49.4522 86.0743 49.4522 84.6747 49.4522 83.0419C49.4522 78.3766 49.4522 73.9445 49.4522 69.2792C49.4522 69.046 49.4522 68.8127 49.4522 68.3462C49.4522 68.1129 49.4522 67.8796 49.4522 67.6464C49.4522 66.4801 49.2189 65.3137 48.7524 64.1474C48.2859 62.7478 47.5861 61.5815 46.4198 60.4152C45.72 59.7154 45.0202 59.0156 44.0871 58.5491C42.4543 57.616 40.8214 57.1495 39.1886 56.9162C38.0222 56.6829 36.8559 56.9162 35.6896 57.1495C33.5902 57.616 31.7241 58.5491 30.0912 59.9486C28.9249 61.115 27.9918 62.5146 27.292 63.9141C26.8255 65.0805 26.5923 66.2468 26.5923 67.6464C26.5923 69.2792 26.5923 71.1454 26.5923 72.7782C26.5923 75.5774 26.5923 78.1433 26.5923 80.9425C26.5923 81.6423 26.5923 82.1088 26.5923 82.8086C26.5923 83.5084 26.5923 83.9749 26.5923 84.6747C26.5923 91.2061 26.5923 97.9708 26.5923 104.502L34.29 107.068ZM34.29 79.0764C34.29 78.3766 34.29 77.4435 34.29 76.7437C34.29 74.4111 34.29 72.0784 34.29 69.7458C34.29 69.2792 34.29 68.5794 34.5233 68.1129C34.7565 66.7133 35.6896 65.7803 37.0892 65.3137C38.2555 64.8472 39.4218 65.0805 40.3549 66.0135C41.2879 66.9466 41.7545 67.8797 41.7545 69.2792C41.7545 71.8452 41.7545 74.4111 41.7545 76.977C41.7545 77.91 41.7545 78.8431 41.7545 80.0094V80.4759H34.29V79.0764Z" fill="white"/>
<path id="Vector_9" d="M7.69774 101.004L15.3955 102.87C15.3955 102.404 15.3955 101.704 15.3955 101.237C15.3955 99.8379 15.3955 98.205 15.3955 96.8054C15.3955 95.4058 15.3955 93.773 15.3955 92.3734C15.3955 90.9738 15.3955 89.341 15.3955 87.9414C15.3955 86.5418 15.3955 84.9089 15.3955 83.5093C15.3955 82.1097 15.3955 80.4769 15.3955 79.0773C15.3955 78.6108 15.3955 78.1442 15.3955 77.6777C15.3955 76.7447 15.3955 75.5783 15.3955 74.6453C15.3955 73.9455 15.3955 73.479 15.3955 72.7792C15.3955 71.8461 15.3955 71.1463 15.3955 70.2132C15.3955 69.2802 15.3955 68.1139 15.3955 67.1808C15.3955 66.7143 15.3955 66.2477 15.3955 65.7812C15.3955 65.7812 15.3955 65.7812 15.3955 65.5479V65.3147V65.0814C17.9614 65.0814 20.5273 65.0814 22.86 65.0814C22.86 62.5155 22.86 59.9496 22.86 57.6169C15.1622 57.6169 7.69774 57.6169 0 57.6169C0 60.1829 0 62.7488 0 65.0814C2.56591 65.0814 5.13183 65.0814 7.46447 65.0814C7.69774 77.2112 7.69774 89.1077 7.69774 101.004Z" fill="white"/>
</g>
</svg>
