<svg width="181" height="91" viewBox="0 0 181 91" fill="none" xmlns="http://www.w3.org/2000/svg">
<g id="craftsman logo 1" clip-path="url(#clip0_10_282)">
<g id="Group">
<g id="Group_2">
<path id="Vector" d="M151.696 48.6021H32.3261V50.45H151.696V48.6021Z" fill="white"/>
<path id="Vector_2" d="M103.601 47.9421L106.545 45.0909L101.42 47.3349L106.177 42.2397L99.4225 46.7013L101.078 43.1373L97.3726 45.9093L99.4751 40.5238L95.2963 45.6189L95.0072 42.1078L93.1413 45.6189L92.0112 39.0718L90.9073 45.6189L89.0414 42.1078L88.7523 45.6189L84.5735 40.5238L86.6498 45.9093L82.9704 43.1373L84.5998 46.7013L77.8718 42.2397L82.6024 47.3349L77.5038 45.0909L80.4211 47.9421L73.22 45.5133L78.7916 48.6021H92.0112H105.231L110.829 45.5133L103.601 47.9421Z" fill="white"/>
<g id="Group_3">
<path id="Vector_3" d="M93.0887 29.6206H92.4054H91.5907H91.3804H86.203L90.6183 34.0822H91.3804H91.5907H92.4054H93.0887H93.3778L97.7931 29.6206H93.0887ZM92.5368 33.5278H92.458H92.2477H92.0112H91.9849H91.5118L90.2766 30.175H91.9849H92.0375H92.274H92.458H93.772L92.5368 33.5278Z" fill="white"/>
<path id="Vector_4" d="M96.8207 27.0071H87.3331C86.86 27.0071 86.4658 27.4031 86.4658 27.8783C86.4658 28.3535 86.86 28.7495 87.3331 28.7495H96.8207C97.2938 28.7495 97.688 28.3535 97.688 27.8783C97.688 27.4031 97.2938 27.0071 96.8207 27.0071Z" fill="white"/>
<g id="Group_4">
<g id="Group_5">
<path id="Vector_5" d="M96.7681 26.0565L98.2924 23.6013H89.6196L89.9349 26.0565H96.7681Z" fill="white"/>
<path id="Vector_6" d="M87.2806 26.0565L85.7562 23.6013H88.253L89.4619 26.0565H87.2806Z" fill="white"/>
</g>
</g>
<path id="Vector_7" d="M103.128 0H80.8942V1.76878H103.128V0Z" fill="white"/>
<path id="Vector_8" d="M87.228 9.92627H84.9152V22.2814H87.228V9.92627Z" fill="white"/>
<path id="Vector_9" d="M97.7931 9.92627H88.6209V22.2814H97.7931V9.92627Z" fill="white"/>
<path id="Vector_10" d="M99.0021 1.7688H98.3976V22.2814H99.0021V1.7688Z" fill="white"/>
<path id="Vector_11" d="M100.421 1.7688H83.496C82.9178 1.7688 82.4448 2.24399 82.4448 2.82479V10.6655C82.4448 11.2463 82.9178 11.7215 83.496 11.7215H100.421C100.999 11.7215 101.472 11.2463 101.472 10.6655V2.82479C101.472 2.24399 100.999 1.7688 100.421 1.7688ZM100.658 10.1639C100.658 10.4543 100.421 10.6919 100.132 10.6919H99.5277C99.2386 10.6919 99.002 10.4543 99.002 10.1639V3.32639C99.002 3.03599 99.2386 2.79839 99.5277 2.79839H100.132C100.421 2.79839 100.658 3.03599 100.658 3.32639V10.1639Z" fill="white"/>
</g>
</g>
<g id="Group_6">
<path id="Vector_12" d="M16.347 75.8465C14.7964 74.0777 12.9042 73.1273 10.5914 73.1273C6.80688 73.1273 3.88965 76.5065 3.88965 80.2288C3.88965 84.3736 6.7806 87.4096 10.8542 87.4096C13.0881 87.4096 14.9016 86.38 16.3733 84.7168V89.68C14.6125 90.6303 12.8516 91.0263 10.8279 91.0263C4.86206 90.9999 0 86.4328 0 80.3872C0 74.1305 4.8095 69.4841 11.0119 69.4841C12.8253 69.4841 14.7964 69.9065 16.347 70.8305V75.8465Z" fill="white"/>
<path id="Vector_13" d="M25.7295 73.3649H25.8609C26.8071 70.9889 28.7782 69.4841 31.38 69.4841C32.5101 69.4841 33.6139 69.8801 34.5601 70.4873L32.7992 74.0249C32.1159 73.4177 31.3275 73.2065 30.4339 73.2065C26.2551 73.2065 25.7295 77.0873 25.7295 80.3872V90.3399H21.8661V70.1177H25.7295V73.3649Z" fill="white"/>
<path id="Vector_14" d="M56.689 90.3135H52.8256V87.1456H52.7467C51.1961 89.4424 48.7783 90.9999 45.9136 90.9999C39.7637 90.9999 36.2683 85.852 36.2683 80.0704C36.2683 74.5265 39.9214 69.4841 45.7822 69.4841C48.752 69.4841 51.1699 71.0417 52.7467 73.4705H52.8256V70.0913H56.689V90.3135ZM53.0358 80.2024C53.0358 76.2689 50.6705 72.9425 46.4918 72.9425C42.497 72.9425 40.1317 76.4537 40.1317 80.2024C40.1317 84.004 42.4182 87.5416 46.4918 87.5416C50.6968 87.5416 53.0358 84.1888 53.0358 80.2024Z" fill="white"/>
<path id="Vector_15" d="M72.7995 58.6075C72.0373 58.2643 71.0386 57.7891 70.2239 57.7891C67.4644 57.7891 67.4644 59.3995 67.4644 61.4059V70.0914H72.7995V73.7346H67.4644V90.34H63.601V73.7346H61.8401V70.0914H63.601V62.1187C63.601 57.7099 65.099 54.1724 70.0925 54.1724C71.0386 54.1724 71.9322 54.3572 72.7995 54.7004V58.6075Z" fill="white"/>
<path id="Vector_16" d="M80.1583 90.3136H76.2949V73.7081H74.1924V70.065H76.2949V62.3298H80.1583V70.065H83.9428V73.7081H80.1583V90.3136Z" fill="white"/>
<path id="Vector_17" d="M95.2175 74.7113C94.7444 73.7081 93.7457 72.9425 92.6419 72.9425C91.5644 72.9425 90.5394 73.8137 90.5394 74.9225C90.5394 76.6913 92.8522 77.4833 95.2175 78.5656C97.5828 79.648 99.8693 81.1264 99.8693 84.3208C99.8693 88.1752 96.6892 91.0263 92.931 91.0263C90.0138 91.0263 87.044 89.3368 85.9664 86.4856L89.2779 84.9808C90.0926 86.4856 91.0913 87.568 92.931 87.568C94.5604 87.568 95.9796 86.4328 95.9796 84.7168C95.9796 83.6344 95.454 83.1064 94.5604 82.4992L90.7759 80.4664C88.542 79.252 86.9126 78.1433 86.9126 75.3713C86.9126 72.0977 89.5933 69.4841 92.8522 69.4841C95.2963 69.4841 97.2937 70.8305 98.3712 73.0217L95.2175 74.7113Z" fill="white"/>
<path id="Vector_18" d="M108.463 72.6257H108.542C109.672 70.857 111.696 69.4578 113.877 69.4578C116.505 69.4578 118.398 70.8042 119.685 73.0481C120.921 70.8834 123.339 69.4578 125.888 69.4578C131.17 69.4578 132.563 73.6025 132.563 78.1961V90.3136H128.7V78.8561C128.7 76.2689 128.358 72.9425 124.968 72.9425C120.842 72.9425 120.527 77.2721 120.527 80.3873V90.34H116.663V79.6217C116.663 76.9817 116.532 72.9689 112.957 72.9689C108.831 72.9689 108.49 77.2457 108.49 80.4137V90.3664H104.6V70.1442H108.463V72.6257Z" fill="white"/>
<path id="Vector_19" d="M157.715 90.3135H153.851V87.1456H153.746C152.196 89.4424 149.778 90.9999 146.913 90.9999C140.763 90.9999 137.268 85.852 137.268 80.0704C137.268 74.5265 140.921 69.4841 146.782 69.4841C149.751 69.4841 152.169 71.0417 153.746 73.4705H153.825V70.0913H157.688V90.3135H157.715ZM154.062 80.2024C154.062 76.2689 151.696 72.9425 147.518 72.9425C143.523 72.9425 141.157 76.4537 141.157 80.2024C141.157 84.004 143.444 87.5416 147.518 87.5416C151.749 87.5416 154.062 84.1888 154.062 80.2024Z" fill="white"/>
<path id="Vector_20" d="M167.702 72.8105H167.78C168.989 70.6457 171.407 69.4841 173.851 69.4841C179.528 69.4841 181 73.3385 181 78.2488V90.3135H177.137V78.724C177.137 75.2657 176.664 72.9425 172.695 72.9425C167.702 72.9425 167.702 77.3513 167.702 81.0208V90.3135H163.838V70.0913H167.702V72.8105Z" fill="white"/>
</g>
</g>
</g>
<defs>
<clipPath id="clip0_10_282">
<rect width="181" height="91" fill="white"/>
</clipPath>
</defs>
</svg>
