<svg width="173" height="115" viewBox="0 0 173 115" fill="none" xmlns="http://www.w3.org/2000/svg">
<g id="logo  1" clip-path="url(#clip0_207_854)">
<g id="Group">
<g id="Group_2">
<g id="Clip path group">
<mask id="mask0_207_854" style="mask-type:luminance" maskUnits="userSpaceOnUse" x="77" y="15" width="18" height="17">
<g id="SVGID_00000024692046906824693840000005981941598311554688_">
<path id="Vector" d="M86.2344 29.0324L80.99 31.7562L81.9857 25.9099L77.8035 21.8573L83.6454 20.9937L86.2344 15.6788L88.8234 20.9937L94.6653 21.8573L90.4167 25.9099L91.4124 31.7562L86.2344 29.0324Z" fill="white"/>
</g>
</mask>
<g mask="url(#mask0_207_854)">
<path id="Vector_2" d="M80.6581 9.36743L100.706 18.4027L91.8108 38.0676L71.7625 29.0324L80.6581 9.36743Z" fill="white"/>
</g>
</g>
</g>
<g id="Group_3">
<g id="Clip path group_2">
<mask id="mask1_207_854" style="mask-type:luminance" maskUnits="userSpaceOnUse" x="65" y="22" width="11" height="10">
<g id="SVGID_00000018958797492089293780000015111465416448298679_">
<path id="Vector_3" d="M70.3019 30.1618L67.2482 31.7562L67.8456 28.368L65.323 25.9099L68.775 25.4449L70.3019 22.3224L71.8288 25.4449L75.2144 25.9099L72.7581 28.368L73.3556 31.7562L70.3019 30.1618Z" fill="white"/>
</g>
</mask>
<g mask="url(#mask1_207_854)">
<path id="Vector_4" d="M67.0491 18.6021L78.7329 23.9169L73.5549 35.4767L61.8047 30.1618L67.0491 18.6021Z" fill="white"/>
</g>
</g>
</g>
<g id="Group_4">
<g id="Clip path group_3">
<mask id="mask2_207_854" style="mask-type:luminance" maskUnits="userSpaceOnUse" x="97" y="22" width="11" height="10">
<g id="SVGID_00000150799001570110658280000011519973820359135935_">
<path id="Vector_5" d="M102.167 30.1618L99.1132 31.7562L99.7106 28.368L97.188 25.9099L100.64 25.4449L102.167 22.3224L103.694 25.4449L107.079 25.9099L104.623 28.368L105.221 31.7562L102.167 30.1618Z" fill="white"/>
</g>
</mask>
<g mask="url(#mask2_207_854)">
<path id="Vector_6" d="M98.9141 18.6021L110.598 23.9169L105.42 35.4767L93.6697 30.1618L98.9141 18.6021Z" fill="white"/>
</g>
</g>
</g>
<g id="Group_5">
<g id="Clip path group_4">
<mask id="mask3_207_854" style="mask-type:luminance" maskUnits="userSpaceOnUse" x="55" y="25" width="7" height="7">
<g id="SVGID_00000034081525745213197160000016261983606127933586_">
<path id="Vector_7" d="M58.4855 30.6932L56.4276 31.7562L56.8259 29.431L55.1663 27.8365L57.4234 27.5043L58.4855 25.4448L59.4813 27.5043L61.8048 27.8365L60.1452 29.431L60.4771 31.7562L58.4855 30.6932Z" fill="white"/>
</g>
</mask>
<g mask="url(#mask3_207_854)">
<path id="Vector_8" d="M56.2948 22.9203L64.1282 26.5078L60.6762 34.2143L52.7764 30.6933L56.2948 22.9203Z" fill="white"/>
</g>
</g>
</g>
<g id="Group_6">
<g id="Clip path group_5">
<mask id="mask4_207_854" style="mask-type:luminance" maskUnits="userSpaceOnUse" x="110" y="25" width="8" height="7">
<g id="SVGID_00000126306791345584418360000013623544968316988292_">
<path id="Vector_9" d="M113.984 30.6932L111.926 31.7562L112.324 29.431L110.664 27.8365L112.988 27.5043L113.984 25.4448L114.979 27.5043L117.303 27.8365L115.643 29.431L116.042 31.7562L113.984 30.6932Z" fill="white"/>
</g>
</mask>
<g mask="url(#mask4_207_854)">
<path id="Vector_10" d="M111.793 22.9203L119.693 26.5078L116.174 34.2143L108.274 30.6933L111.793 22.9203Z" fill="white"/>
</g>
</g>
</g>
<path id="Vector_11" d="M51.8469 114.801C55.7637 112.01 60.4106 111.213 64.8584 109.951C67.0491 109.353 69.1735 108.755 71.165 107.692C71.7625 107.36 72.4264 107.028 72.9574 106.563C74.3515 105.433 74.4843 104.57 73.6213 103.108C73.2894 102.51 72.8911 101.912 72.5591 101.248C72.1608 100.318 71.4306 100.052 70.5012 100.118C69.7046 100.185 68.9743 100.318 68.2441 100.65C61.4728 103.772 56.162 108.689 51.8469 114.801Z" fill="white"/>
<path id="Vector_12" d="M73.1565 100.251C73.2229 100.384 73.2893 100.517 73.3557 100.65C73.5548 100.982 73.754 101.314 73.9531 101.713C75.1481 103.772 75.1481 103.772 77.206 102.51C79.9942 100.849 81.7202 99.8526 84.5084 98.2582C85.1058 97.926 85.5705 97.1952 84.7739 96.7966C81.1891 94.87 82.1849 94.8035 79.4631 96.398C76.8077 97.9924 76.5421 98.1253 73.8203 99.7198C73.5548 99.8526 73.2893 99.9191 73.1565 100.251Z" fill="white"/>
<path id="Vector_13" d="M111.726 105.566C111.328 105.699 111.063 106.031 111.063 106.496C111.063 106.961 111.328 107.227 111.594 107.559C112.656 109.087 112.457 110.947 111.063 112.143C109.934 113.14 108.208 113.14 107.013 112.21C105.486 111.014 105.154 109.353 106.017 107.626C106.814 106.098 106.748 105.965 105.42 105.168C95.1966 99.2548 84.9068 93.2756 74.6835 87.3628H70.5676C81.3884 93.6742 92.2092 99.9191 103.096 106.164C103.827 106.563 104.026 106.961 103.76 107.759C103.03 110.017 103.76 112.21 105.685 113.738C107.544 115.199 109.536 115.332 111.594 114.336C114.581 112.808 115.378 108.622 113.187 106.164C112.722 105.699 112.258 105.367 111.726 105.566Z" fill="white"/>
<path id="Vector_14" d="M92.2755 87.2299C90.284 88.625 88.226 90.1531 86.6992 91.4818C86.1681 91.9468 85.9026 92.4119 86.5664 92.8105C87.8277 93.6077 88.1597 93.8735 89.8193 94.5378C90.4168 94.8035 90.9478 95.1357 91.9436 94.6707C95.0637 93.2091 96.657 92.5447 99.6443 90.8174C100.175 90.4852 102.499 89.0901 105.619 87.1635L92.2755 87.2299Z" fill="white"/>
<path id="Vector_15" d="M172.867 43.7811C168.486 45.8406 164.237 48.033 159.922 50.2253V53.0156C163.905 50.4247 167.822 47.8337 171.606 45.0434C171.938 44.7776 172.535 44.3126 172.867 43.9804C173.133 43.8475 173 43.7147 172.867 43.7811Z" fill="white"/>
<path id="Vector_16" d="M3.65119 44.9769L3.31926 44.7776L2.2571 44.1797L2.98734 45.0434L1.92517 44.844L2.65541 45.7077L1.59325 45.5084L2.32348 46.3721L1.26132 46.1728L1.99156 47.0364L0.929394 46.8371L1.65963 47.7008L0.597467 47.5015L1.32771 48.3651L0 47.9665L1.32771 48.7637C5.37721 51.1554 9.49309 53.5471 13.5426 55.9388L15.0031 51.554C11.2191 49.3617 7.43515 47.1693 3.65119 44.9769Z" fill="white"/>
<path id="Vector_17" d="M39.3664 63.6453H35.9808L35.3833 60.4564H31.2674L30.6699 63.6453H27.6162L31.0019 46.1063H35.9144L39.3664 63.6453ZM31.7321 58.0647H34.985L33.3253 49.1624L31.7321 58.0647Z" fill="white"/>
<path id="Vector_18" d="M45.4076 45.8406C48.6605 45.8406 50.3201 47.435 50.3201 50.2918V50.8232H47.1336V50.0925C47.1336 48.8302 46.5362 48.3651 45.474 48.3651C44.4118 48.3651 43.8144 48.8302 43.8144 50.0925C43.8144 53.68 50.3865 54.4108 50.3865 59.3934C50.3865 62.1837 48.6605 63.8446 45.4076 63.8446C42.1547 63.8446 40.4287 62.2502 40.4287 59.3934V58.3305H43.6152V59.5927C43.6152 60.855 44.2791 61.3201 45.3412 61.3201C46.4034 61.3201 47.0672 60.855 47.0672 59.5927C47.0672 56.0052 40.4951 55.2744 40.4951 50.2918C40.4951 47.435 42.1547 45.8406 45.4076 45.8406Z" fill="white"/>
<path id="Vector_19" d="M56.8258 45.8406C60.0787 45.8406 61.7383 47.435 61.7383 50.2918V50.8232H58.5518V50.0925C58.5518 48.8302 57.9544 48.3651 56.8922 48.3651C55.83 48.3651 55.2326 48.8302 55.2326 50.0925C55.2326 53.68 61.8047 54.4108 61.8047 59.3934C61.8047 62.1837 60.0787 63.8446 56.8258 63.8446C53.5729 63.8446 51.8469 62.2502 51.8469 59.3934V58.3305H55.0334V59.5927C55.0334 60.855 55.6973 61.3201 56.7594 61.3201C57.8216 61.3201 58.4855 60.855 58.4855 59.5927C58.4855 56.0052 51.9133 55.2744 51.9133 50.2918C51.8469 47.435 53.5729 45.8406 56.8258 45.8406Z" fill="white"/>
<path id="Vector_20" d="M63.3979 50.2918C63.3979 47.5015 65.1903 45.8406 68.5096 45.8406C71.8289 45.8406 73.6213 47.435 73.6213 50.2918V59.4599C73.6213 62.2502 71.8289 63.9111 68.5096 63.9111C65.2567 63.9111 63.3979 62.3166 63.3979 59.4599V50.2918ZM66.7172 59.5927C66.7172 60.855 67.3811 61.3201 68.4432 61.3201C69.5054 61.3201 70.1692 60.855 70.1692 59.5927V50.0925C70.1692 48.8302 69.5054 48.3651 68.4432 48.3651C67.3811 48.3651 66.7172 48.8302 66.7172 50.0925V59.5927Z" fill="white"/>
<path id="Vector_21" d="M85.4378 57.0682V59.3934C85.4378 62.1837 83.7118 63.7782 80.4589 63.7782C77.1396 63.7782 75.48 62.1837 75.48 59.3934V50.2918C75.48 47.5015 77.206 45.8406 80.4589 45.8406C83.7118 45.8406 85.4378 47.435 85.4378 50.2918V52.0191H82.2513V50.1589C82.2513 48.8966 81.5874 48.4316 80.5253 48.4316C79.4631 48.4316 78.7992 48.8966 78.7992 50.1589V59.6592C78.7992 60.9215 79.4631 61.3865 80.5253 61.3865C81.5874 61.3865 82.2513 60.9215 82.2513 59.6592V57.1346H85.4378V57.0682Z" fill="white"/>
<path id="Vector_22" d="M90.8151 46.0399H87.4958V63.5789H90.8151V46.0399Z" fill="white"/>
<path id="Vector_23" d="M104.092 63.6453H100.706L100.109 60.4564H95.993L95.3955 63.6453H92.3418L95.7274 46.1063H100.64L104.092 63.6453ZM96.4577 58.0647H99.7106L98.0509 49.1624L96.4577 58.0647Z" fill="white"/>
<path id="Vector_24" d="M104.689 46.0399H114.979V48.5645H111.527V63.6453H108.141V48.5645H104.689V46.0399Z" fill="white"/>
<path id="Vector_25" d="M119.759 46.0399H116.44V63.5789H119.759V46.0399Z" fill="white"/>
<path id="Vector_26" d="M121.95 50.2918C121.95 47.5015 123.742 45.8406 127.061 45.8406C130.381 45.8406 132.173 47.435 132.173 50.2918V59.4599C132.173 62.2502 130.381 63.9111 127.061 63.9111C123.808 63.9111 121.95 62.3166 121.95 59.4599V50.2918ZM125.335 59.5927C125.335 60.855 125.999 61.3201 127.061 61.3201C128.124 61.3201 128.787 60.855 128.787 59.5927V50.0925C128.787 48.8302 128.124 48.3651 127.061 48.3651C125.999 48.3651 125.335 48.8302 125.335 50.0925V59.5927Z" fill="white"/>
<path id="Vector_27" d="M137.285 50.8897V63.6453H134.297V46.0399H138.48L141.932 56.6032V46.0399H144.919V63.6453H141.467L137.285 50.8897Z" fill="white"/>
<path id="Vector_28" d="M37.1758 68.7609H40.7606V69.5581H39.4993V74.4743H38.3707V69.5581H37.1758V68.7609Z" fill="white"/>
<path id="Vector_29" d="M44.6108 74.4743H43.4158L43.2167 73.4114H41.8226L41.6234 74.4743H40.5613L41.7562 68.7609H43.4822L44.6108 74.4743ZM41.9554 72.6806H43.0839L42.5528 69.7574L41.9554 72.6806Z" fill="white"/>
<path id="Vector_30" d="M44.8101 68.7609H48.3949V69.5581H47.1999V74.4743H46.005V69.5581H44.8101V68.7609Z" fill="white"/>
<path id="Vector_31" d="M48.594 68.7609H52.1788V69.5581H50.9839V74.4743H49.7889V69.5581H48.594V68.7609Z" fill="white"/>
<path id="Vector_32" d="M52.5771 70.0895C52.5771 69.1594 53.1746 68.6279 54.3696 68.6279C55.5645 68.6279 56.162 69.1594 56.162 70.0895V73.0791C56.162 74.0092 55.5645 74.5407 54.3696 74.5407C53.1746 74.5407 52.5771 74.0092 52.5771 73.0791V70.0895ZM53.7721 73.1455C53.7721 73.5442 53.9712 73.7435 54.3696 73.7435C54.7679 73.7435 54.967 73.6106 54.967 73.1455V70.0231C54.967 69.6245 54.7679 69.4252 54.3696 69.4252C53.9712 69.4252 53.7721 69.558 53.7721 70.0231V73.1455Z" fill="white"/>
<path id="Vector_33" d="M56.7595 70.0895C56.7595 69.1594 57.357 68.6279 58.5519 68.6279C59.6805 68.6279 60.3443 69.1594 60.3443 70.0895V73.0791C60.3443 74.0092 59.7469 74.5407 58.5519 74.5407C57.4234 74.5407 56.7595 74.0092 56.7595 73.0791V70.0895ZM57.9545 73.1455C57.9545 73.5442 58.1536 73.7435 58.5519 73.7435C58.9502 73.7435 59.1494 73.6106 59.1494 73.1455V70.0231C59.1494 69.6245 58.9502 69.4252 58.5519 69.4252C58.1536 69.4252 57.9545 69.558 57.9545 70.0231V73.1455Z" fill="white"/>
<path id="Vector_34" d="M60.9417 74.4743V73.6106H62.0702V74.4078L61.6055 75.2715H61.1408L61.4063 74.4743H60.9417Z" fill="white"/>
<path id="Vector_35" d="M68.0448 70.1559V70.8867C68.0448 71.8168 67.4473 72.2819 66.3188 72.2819H65.7213V74.4078H64.5264V68.6943H66.2524C67.4473 68.7608 68.0448 69.2258 68.0448 70.1559ZM65.7213 69.558V71.4846H66.2524C66.6507 71.4846 66.8499 71.3518 66.8499 70.9531V70.0895C66.8499 69.6909 66.6507 69.558 66.2524 69.558H65.7213Z" fill="white"/>
<path id="Vector_36" d="M69.7709 71.1525H71.3641V71.9498H69.7709V73.6771H71.8288V74.4743H68.6423V68.7609H71.8288V69.5581H69.7709V71.1525Z" fill="white"/>
<path id="Vector_37" d="M74.9489 74.4742C74.8825 74.3414 74.8162 74.2085 74.8162 73.7434V72.8133C74.8162 72.2819 74.617 72.0825 74.0859 72.0825H73.6876V74.4078H72.4927V68.6943H74.2187C75.4136 68.6943 75.9447 69.1594 75.9447 70.023V70.4881C75.9447 71.086 75.6792 71.4846 75.2145 71.6839C75.8119 71.8832 76.0111 72.2819 76.0111 72.8798V73.7434C76.0111 74.0092 76.0111 74.2085 76.1439 74.4078H74.9489V74.4742ZM73.6876 69.558V71.3518H74.1523C74.617 71.3518 74.8825 71.2189 74.8825 70.7538V70.1559C74.8825 69.7573 74.6834 69.558 74.2851 69.558H73.6876Z" fill="white"/>
<path id="Vector_38" d="M79.2641 72.8134L80.0607 68.7609H81.654V74.4743H80.5254V70.3553L79.7288 74.4743H78.6666L77.8036 70.4218V74.4743H76.7415V68.7609H78.4011L79.2641 72.8134Z" fill="white"/>
<path id="Vector_39" d="M86.2345 74.4743H85.0396L84.8405 73.4114H83.38L83.1808 74.4743H82.1187L83.3136 68.7609H85.0396L86.2345 74.4743ZM83.5791 72.6806H84.7077L84.1766 69.7574L83.5791 72.6806Z" fill="white"/>
<path id="Vector_40" d="M87.8278 70.2889V74.4743H86.7656V68.7609H88.2261L89.421 72.1491V68.7609H90.4832V74.4743H89.2883L87.8278 70.2889Z" fill="white"/>
<path id="Vector_41" d="M92.4747 71.1525H94.068V71.9498H92.4747V73.6771H94.5327V74.4743H91.3462V68.7609H94.5327V69.5581H92.4747V71.1525Z" fill="white"/>
<path id="Vector_42" d="M96.2587 70.2889V74.4743H95.1965V68.7609H96.657L97.8519 72.1491V68.7609H98.9141V74.4743H97.7192L96.2587 70.2889Z" fill="white"/>
<path id="Vector_43" d="M99.3787 68.7609H103.03V69.5581H101.769V74.4743H100.64V69.5581H99.3787V68.7609Z" fill="white"/>
<path id="Vector_44" d="M107.611 72.8134L108.407 68.7609H110V74.4743H108.938V70.3553L108.142 74.4743H107.013L106.15 70.4218V74.4743H105.154V68.7609H106.748L107.611 72.8134Z" fill="white"/>
<path id="Vector_45" d="M114.647 74.4743H113.452L113.253 73.4114H111.793L111.594 74.4743H110.531L111.726 68.7609H113.452L114.647 74.4743ZM111.992 72.6806H113.121L112.589 69.7574L111.992 72.6806Z" fill="white"/>
<path id="Vector_46" d="M116.705 72.2155L116.373 72.747V74.4743H115.178V68.7609H116.373V71.219L117.9 68.7609H119.029L117.436 71.2854L119.029 74.4743H117.834L116.705 72.2155Z" fill="white"/>
<path id="Vector_47" d="M120.755 71.1525H122.348V71.9498H120.755V73.6771H122.746V74.4743H119.56V68.7609H122.746V69.5581H120.755V71.1525Z" fill="white"/>
<path id="Vector_48" d="M125.534 71.219H123.41V72.0162H125.534V71.219Z" fill="white"/>
<path id="Vector_49" d="M127.393 68.7609V73.212C127.393 73.6107 127.659 73.7435 127.991 73.7435C128.389 73.7435 128.588 73.6107 128.588 73.212V68.7609H129.717V73.1456C129.717 74.0757 129.119 74.6072 127.991 74.6072C126.862 74.6072 126.265 74.0757 126.265 73.1456V68.7609H127.393Z" fill="white"/>
<path id="Vector_50" d="M133.965 70.1559V70.8867C133.965 71.8168 133.368 72.2819 132.239 72.2819H131.708V74.4078H130.513V68.6943H132.239C133.434 68.7608 133.965 69.2258 133.965 70.1559ZM131.708 69.558V71.4846H132.239C132.638 71.4846 132.837 71.3518 132.837 70.9531V70.0895C132.837 69.6909 132.638 69.558 132.239 69.558H131.708Z" fill="white"/>
<path id="Vector_51" d="M54.1039 84.3067H52.909L52.7098 83.2438H51.2494L51.0502 84.3067H49.988L51.183 78.5933H52.909L54.1039 84.3067ZM51.4485 82.513H52.5771L52.046 79.5898L51.4485 82.513Z" fill="white"/>
<path id="Vector_52" d="M55.6972 80.1877V84.3067H54.635V78.5933H56.0955L57.2904 81.9815V78.5933H58.2862V84.3067H57.0913L55.6972 80.1877Z" fill="white"/>
<path id="Vector_53" d="M59.1492 78.5933H61.008C62.2029 78.5933 62.734 79.1247 62.734 79.9884V82.9116C62.734 83.8417 62.1365 84.3067 61.008 84.3067H59.1492V78.5933ZM60.3441 79.3905V83.5095H61.008C61.4063 83.5095 61.6054 83.3766 61.6054 82.978V79.9884C61.6054 79.5898 61.4063 79.4569 61.008 79.4569H60.3441V79.3905Z" fill="white"/>
<path id="Vector_54" d="M68.5761 79.9884V80.7192C68.5761 81.6493 67.9786 82.1144 66.85 82.1144H66.319V84.2403H65.124V78.5269H66.85C67.9786 78.5933 68.5761 79.0583 68.5761 79.9884ZM66.2526 79.3905V81.3172H66.7837C67.182 81.3172 67.3811 81.1843 67.3811 80.7857V79.922C67.3811 79.5234 67.182 79.3905 66.7837 79.3905H66.2526Z" fill="white"/>
<path id="Vector_55" d="M70.3683 78.5933H69.1733V84.3067H70.3683V78.5933Z" fill="white"/>
<path id="Vector_56" d="M72.36 80.9849H73.9532V81.7822H72.36V83.5095H74.3515V84.3067H71.165V78.5933H74.3515V79.3905H72.36V80.9849Z" fill="white"/>
<path id="Vector_57" d="M77.4716 84.3068C77.4052 84.1739 77.3389 84.041 77.3389 83.576V82.6459C77.3389 82.1144 77.1397 81.9151 76.6086 81.9151H76.2103V84.2403H75.0154V78.5269H76.7414C77.9363 78.5269 78.4674 78.9919 78.4674 79.8556V80.3206C78.4674 80.9185 78.2019 81.3171 77.7372 81.5165C78.3346 81.7158 78.5338 82.1144 78.5338 82.7123V83.576C78.5338 83.8417 78.5338 84.041 78.6666 84.2403H77.4716V84.3068ZM76.2103 79.3905V81.1843H76.675C77.1397 81.1843 77.4052 81.0514 77.4052 80.5864V79.9884C77.4052 79.5898 77.2061 79.3905 76.8078 79.3905H76.2103Z" fill="white"/>
<path id="Vector_58" d="M82.7159 82.1808V82.9116C82.7159 83.8417 82.1185 84.3732 80.9899 84.3732C79.8614 84.3732 79.2639 83.8417 79.2639 82.9116V79.922C79.2639 78.9919 79.8614 78.4604 80.9899 78.4604C82.1185 78.4604 82.7159 78.9919 82.7159 79.922V80.4535H81.5874V79.8556C81.5874 79.457 81.3219 79.2577 80.9899 79.2577C80.5916 79.2577 80.3925 79.3905 80.3925 79.8556V82.9781C80.3925 83.3767 80.5916 83.5096 80.9899 83.5096C81.3882 83.5096 81.5874 83.3767 81.5874 82.9781V82.1808H82.7159Z" fill="white"/>
<path id="Vector_59" d="M84.5748 78.5933H83.3799V84.3067H84.5748V78.5933Z" fill="white"/>
<path id="Vector_60" d="M86.4335 80.1877V84.3067H85.3713V78.5933H86.8318L88.0931 81.9815V78.5933H89.0889V84.3067H87.894L86.4335 80.1877Z" fill="white"/>
<path id="Vector_61" d="M91.6782 81.1179H93.3378V82.9116C93.3378 83.8417 92.7403 84.3732 91.6118 84.3732C90.4832 84.3732 89.8857 83.8417 89.8857 82.9116V79.922C89.8857 78.9919 90.4832 78.4604 91.6118 78.4604C92.7403 78.4604 93.3378 78.9919 93.3378 79.922V80.4535H92.2092V79.8556C92.2092 79.457 91.9437 79.2577 91.6118 79.2577C91.2135 79.2577 91.0143 79.3905 91.0143 79.8556V82.9781C91.0143 83.3767 91.2135 83.5096 91.6118 83.5096C92.0101 83.5096 92.2092 83.3767 92.2092 82.9781V81.9151H91.6782V81.1179Z" fill="white"/>
<path id="Vector_62" d="M99.4452 84.3067H98.2503L98.0511 83.2438H96.5907L96.3915 84.3067H95.3293L96.5243 78.5933H98.2503L99.4452 84.3067ZM96.7898 82.513H97.9184L97.3873 79.5898L96.7898 82.513Z" fill="white"/>
<path id="Vector_63" d="M102.433 84.3068C102.366 84.1739 102.3 84.041 102.3 83.576V82.6459C102.3 82.1144 102.101 81.9151 101.57 81.9151H101.171V84.2403H99.9763V78.5269H101.702C102.897 78.5269 103.428 78.9919 103.428 79.8556V80.3206C103.428 80.9185 103.163 81.3171 102.698 81.5165C103.296 81.7158 103.495 82.1144 103.495 82.7123V83.576C103.495 83.8417 103.495 84.041 103.628 84.2403H102.433V84.3068ZM101.171 79.3905V81.1843H101.636C102.101 81.1843 102.366 81.0514 102.366 80.5864V79.9884C102.366 79.5898 102.167 79.3905 101.769 79.3905H101.171Z" fill="white"/>
<path id="Vector_64" d="M103.893 78.5933H107.544V79.3905H106.283V84.3067H105.154V79.3905H103.893V78.5933Z" fill="white"/>
<path id="Vector_65" d="M109.204 78.5933H108.009V84.3067H109.204V78.5933Z" fill="white"/>
<path id="Vector_66" d="M111.594 78.5269C112.722 78.5269 113.32 79.0583 113.32 79.9884V80.1877H112.191V79.922C112.191 79.5234 111.992 79.3241 111.594 79.3241C111.195 79.3241 110.996 79.457 110.996 79.922C110.996 81.1178 113.253 81.3172 113.253 82.978C113.253 83.9081 112.656 84.4396 111.527 84.4396C110.399 84.4396 109.801 83.9081 109.801 82.978V82.6459H110.93V83.0445C110.93 83.4431 111.195 83.576 111.527 83.576C111.926 83.576 112.125 83.4431 112.125 83.0445C112.125 81.8486 109.868 81.6493 109.868 79.9884C109.868 79.0583 110.465 78.5269 111.594 78.5269Z" fill="white"/>
<path id="Vector_67" d="M113.652 78.5933H117.236V79.3905H116.041V84.3067H114.847V79.3905H113.652V78.5933Z" fill="white"/>
<path id="Vector_68" d="M119.361 78.5269C120.489 78.5269 121.087 79.0583 121.087 79.9884V80.1877H119.958V79.922C119.958 79.5234 119.759 79.3241 119.361 79.3241C118.962 79.3241 118.763 79.457 118.763 79.922C118.763 81.1178 121.02 81.3172 121.02 82.978C121.02 83.9081 120.423 84.4396 119.294 84.4396C118.166 84.4396 117.568 83.9081 117.568 82.978V82.6459H118.697V83.0445C118.697 83.4431 118.962 83.576 119.294 83.576C119.693 83.576 119.892 83.4431 119.892 83.0445C119.892 81.8486 117.635 81.6493 117.635 79.9884C117.635 79.0583 118.232 78.5269 119.361 78.5269Z" fill="white"/>
<path id="Vector_69" d="M49.8552 37.204H53.0417V37.8683H49.8552V37.204ZM51.0502 37.204H51.8468V41.3894H51.0502V37.204Z" fill="white"/>
<path id="Vector_70" d="M53.8384 41.3894L55.0997 37.204H56.0291L57.224 41.3894H56.361L55.5644 38.2005H55.498L54.7014 41.3894H53.8384ZM54.4358 39.8614H56.5602V40.5922H54.4358V39.8614Z" fill="white"/>
<path id="Vector_71" d="M58.0872 37.204H61.2737V37.8683H58.0872V37.204ZM59.2821 37.204H60.0787V41.3894H59.2821V37.204Z" fill="white"/>
<path id="Vector_72" d="M62.2029 37.204H65.3894V37.8683H62.2029V37.204ZM63.3978 37.204H64.1944V41.3894H63.3978V37.204Z" fill="white"/>
<path id="Vector_73" d="M67.9121 41.4558C66.8499 41.4558 66.3188 40.725 66.3188 39.3298C66.3188 37.8682 66.8499 37.1375 67.9121 37.1375C68.9743 37.1375 69.5053 37.8682 69.5053 39.3298C69.5053 40.725 68.9743 41.4558 67.9121 41.4558ZM67.9121 40.6585C68.4432 40.6585 68.7087 40.1935 68.7087 39.2634C68.7087 38.3333 68.4432 37.8018 67.9121 37.8018C67.381 37.8018 67.1155 38.2669 67.1155 39.2634C67.1155 40.2599 67.381 40.6585 67.9121 40.6585Z" fill="white"/>
<path id="Vector_74" d="M72.0281 41.4558C70.9659 41.4558 70.4348 40.725 70.4348 39.3298C70.4348 37.8682 70.9659 37.1375 72.0281 37.1375C73.0902 37.1375 73.6213 37.8682 73.6213 39.3298C73.6213 40.725 73.0902 41.4558 72.0281 41.4558ZM72.0281 40.6585C72.5591 40.6585 72.8247 40.1935 72.8247 39.2634C72.8247 38.3333 72.5591 37.8018 72.0281 37.8018C71.497 37.8018 71.2314 38.2669 71.2314 39.2634C71.2314 40.2599 71.497 40.6585 72.0281 40.6585Z" fill="white"/>
<path id="Vector_75" d="M77.6043 38.9313H74.5505V39.6621H77.6043V38.9313Z" fill="white"/>
<path id="Vector_76" d="M78.5337 41.3894L79.7286 37.204H80.658L81.853 41.3894H80.9899L80.1933 38.2005H80.1269L79.3303 41.3894H78.5337ZM79.1312 39.8614H81.2555V40.5922H79.1312V39.8614Z" fill="white"/>
<path id="Vector_77" d="M84.1766 41.4558C83.9111 41.4558 83.7119 41.4558 83.5128 41.3894C83.3136 41.323 83.1144 41.323 82.9153 41.1901L83.0481 40.3929C83.2472 40.4593 83.5127 40.5257 83.7119 40.5922C83.9111 40.6586 84.1102 40.6586 84.3094 40.6586C84.5085 40.6586 84.7077 40.5922 84.7741 40.5257C84.9068 40.4593 84.9732 40.3264 84.9732 40.1935C84.9732 39.9942 84.8405 39.8614 84.6413 39.7285L84.0438 39.4628C83.7783 39.3299 83.5127 39.1306 83.38 38.9313C83.2472 38.732 83.1144 38.4662 83.1144 38.2005C83.1144 37.8019 83.2472 37.5361 83.4464 37.3368C83.7119 37.1375 84.0438 37.0046 84.4421 37.0046C84.7077 37.0046 84.9732 37.0711 85.1724 37.1375C85.3715 37.2039 85.6371 37.3368 85.7698 37.5361L85.2388 38.134C85.106 38.0012 84.9732 37.9347 84.8405 37.8019C84.7077 37.7354 84.5749 37.669 84.4421 37.669C84.243 37.669 84.1102 37.7354 84.0438 37.8019C83.9774 37.8683 83.9111 38.0012 83.9111 38.134C83.9111 38.2005 83.9774 38.3333 84.0438 38.3998C84.1102 38.4662 84.1766 38.5327 84.3094 38.5991L84.9068 38.8648C85.1724 38.9977 85.4379 39.197 85.5707 39.3963C85.7035 39.5956 85.8362 39.7949 85.8362 40.0607C85.8362 40.4593 85.7035 40.725 85.4379 40.9243C85.0396 41.323 84.7077 41.4558 84.1766 41.4558Z" fill="white"/>
<path id="Vector_78" d="M88.2923 41.4558C88.0268 41.4558 87.8276 41.4558 87.6285 41.3894C87.4293 41.323 87.2302 41.323 87.031 41.1901L87.1638 40.3929C87.3629 40.4593 87.6285 40.5257 87.8276 40.5922C88.0268 40.6586 88.2259 40.6586 88.4251 40.6586C88.6242 40.6586 88.8234 40.5922 88.8898 40.5257C89.0226 40.4593 89.0889 40.3264 89.0889 40.1935C89.0889 39.9942 88.9562 39.8614 88.757 39.7285L88.1596 39.4628C87.894 39.3299 87.6285 39.1306 87.4957 38.9313C87.3629 38.732 87.2302 38.4662 87.2302 38.2005C87.2302 37.8019 87.3629 37.5361 87.5621 37.3368C87.8276 37.1375 88.1595 37.0046 88.5579 37.0046C88.8234 37.0046 89.0889 37.0711 89.2881 37.1375C89.4873 37.2039 89.7528 37.3368 89.8856 37.5361L89.3545 38.134C89.2217 38.0012 89.0889 37.9347 88.9562 37.8019C88.8234 37.7354 88.6906 37.669 88.5579 37.669C88.3587 37.669 88.2259 37.7354 88.1596 37.8019C88.0932 37.8683 88.0268 38.0012 88.0268 38.134C88.0268 38.2005 88.0932 38.3333 88.1596 38.3998C88.2259 38.4662 88.2923 38.5327 88.4251 38.5991L89.0226 38.8648C89.2881 38.9977 89.5536 39.197 89.6864 39.3963C89.8192 39.5956 89.952 39.7949 89.952 40.0607C89.952 40.4593 89.8192 40.725 89.5536 40.9243C89.1553 41.323 88.8234 41.4558 88.2923 41.4558Z" fill="white"/>
<path id="Vector_79" d="M92.541 41.4558C91.4788 41.4558 90.9478 40.725 90.9478 39.3298C90.9478 37.8682 91.4788 37.1375 92.541 37.1375C93.6032 37.1375 94.1342 37.8682 94.1342 39.3298C94.1342 40.725 93.6032 41.4558 92.541 41.4558ZM92.541 40.6585C93.0721 40.6585 93.3376 40.1935 93.3376 39.2634C93.3376 38.3333 93.0721 37.8018 92.541 37.8018C92.0099 37.8018 91.7444 38.2669 91.7444 39.2634C91.8108 40.2599 92.0099 40.6585 92.541 40.6585Z" fill="white"/>
<path id="Vector_80" d="M97.1217 41.4558C95.794 41.4558 95.1301 40.725 95.1301 39.2634C95.1301 38.599 95.3293 38.0675 95.6612 37.6689C95.9931 37.2703 96.4578 37.1375 97.1217 37.1375C97.3872 37.1375 97.6528 37.2039 97.8519 37.2703C98.0511 37.3368 98.2502 37.4696 98.3166 37.6689L97.8519 38.2669C97.7855 38.134 97.6528 38.0675 97.52 38.0011C97.3872 37.9347 97.2545 37.9347 97.0553 37.9347C96.7234 37.9347 96.4578 38.0675 96.2587 38.2669C96.0595 38.5326 95.9267 38.8648 95.9267 39.2634C95.9267 40.2599 96.3251 40.725 97.1881 40.725C97.4536 40.725 97.7855 40.6585 98.0511 40.5257L98.1838 41.2565C97.8519 41.3893 97.4536 41.4558 97.1217 41.4558Z" fill="white"/>
<path id="Vector_81" d="M99.4451 37.204H102.1V37.8683H99.4451V37.204ZM99.4451 40.6586H102.1V41.3894H99.4451V40.6586ZM100.374 37.204H101.171V41.3894H100.374V37.204Z" fill="white"/>
<path id="Vector_82" d="M103.229 41.3894L104.424 37.204H105.353L106.548 41.3894H105.685L104.889 38.2005L104.092 41.3894H103.229ZM103.826 39.8614H105.951V40.5922H103.826V39.8614Z" fill="white"/>
<path id="Vector_83" d="M107.411 37.204H110.598V37.8683H107.411V37.204ZM108.606 37.204H109.403V41.3894H108.606V37.204Z" fill="white"/>
<path id="Vector_84" d="M111.793 37.204H114.448V37.8683H111.793V37.204ZM111.793 40.6586H114.448V41.3894H111.793V40.6586ZM112.722 37.204H113.519V41.3894H112.722V37.204Z" fill="white"/>
<path id="Vector_85" d="M117.236 41.4558C116.174 41.4558 115.643 40.725 115.643 39.3298C115.643 37.8682 116.174 37.1375 117.236 37.1375C118.298 37.1375 118.83 37.8682 118.83 39.3298C118.83 40.725 118.298 41.4558 117.236 41.4558ZM117.236 40.6585C117.767 40.6585 118.033 40.1935 118.033 39.2634C118.033 38.3333 117.767 37.8018 117.236 37.8018C116.705 37.8018 116.44 38.2669 116.44 39.2634C116.44 40.2599 116.705 40.6585 117.236 40.6585Z" fill="white"/>
<path id="Vector_86" d="M119.958 37.204H120.688V41.3894H119.958V37.204ZM121.552 41.3894L120.821 38.1341H120.489V37.204H121.153L121.883 40.4593H122.083V41.3894H121.552ZM121.95 37.204H122.68V41.3894H121.95V37.204Z" fill="white"/>
<path id="Vector_87" d="M56.2283 4.05261L59.6139 15.0809L57.4232 15.7453L50.8511 9.6332C50.9175 9.83251 50.9839 9.96538 50.9839 10.0318C51.0502 10.2311 51.1166 10.364 51.183 10.4969L53.241 17.074L51.2494 17.6719L47.7974 6.71004L50.5855 5.84637L56.3611 11.1612C56.2283 10.829 56.1619 10.6297 56.0955 10.4304L54.3031 4.65053L56.2283 4.05261Z" fill="white"/>
<path id="Vector_88" d="M64.8585 2.19238L70.7004 12.7556L67.8458 13.3536L66.6509 11.1612L63.0661 11.892L62.8005 14.3501L60.4771 14.8151L61.8048 2.7903L64.8585 2.19238ZM63.2652 9.63317L65.6551 9.16812L63.6635 5.44773L63.2652 9.63317Z" fill="white"/>
<path id="Vector_89" d="M76.7415 0.531494L77.007 2.7903L74.1524 3.12248L75.281 12.2906L72.5592 12.6228L71.4307 3.45466L68.5761 3.78684L68.3105 1.52803L76.7415 0.531494Z" fill="white"/>
<path id="Vector_90" d="M81.1161 0.262014L78.3989 0.420166L79.0657 11.894L81.7829 11.7358L81.1161 0.262014Z" fill="white"/>
<path id="Vector_91" d="M88.1596 11.892C86.6327 11.892 85.4378 11.294 84.5747 10.0982C83.7781 8.90237 83.3134 7.50722 83.3798 5.84633C83.3798 4.18544 83.8445 2.79029 84.7075 1.66089C85.5705 0.531485 86.8318 0 88.4251 0C90.0183 0 91.2133 0.664356 92.0099 1.8602C92.8065 3.05604 93.2048 4.45118 93.1384 5.9792C93.1384 7.64009 92.6737 9.03524 91.8107 10.1646C91.0141 11.3605 89.7528 11.892 88.1596 11.892ZM88.4251 2.19237C87.031 2.19237 86.3008 3.38821 86.2344 5.91277C86.168 8.37088 86.8982 9.63316 88.2923 9.6996C89.6864 9.6996 90.3503 8.50376 90.4166 5.9792C90.4166 3.45465 89.7528 2.19237 88.4251 2.19237Z" fill="white"/>
<path id="Vector_92" d="M104.756 1.46162L103.428 12.8885L101.171 12.6228L97.5863 4.38479C97.5863 4.58409 97.5863 4.71697 97.5863 4.7834C97.5863 4.98271 97.5863 5.11558 97.5863 5.31489L96.7896 12.1577L94.7317 11.892L96.0594 0.465088L98.914 0.797266L102.034 7.97231C102.034 7.64013 102.034 7.37439 102.1 7.17508L102.764 1.19588L104.756 1.46162Z" fill="white"/>
<path id="Vector_93" d="M113.386 3.25539L114.448 15.2802L111.594 14.6823L111.394 12.2242L107.743 11.427L106.548 13.6193L104.225 13.0879L110.332 2.65747L113.386 3.25539ZM108.872 9.4339L111.262 9.96538L110.93 5.77994L108.872 9.4339Z" fill="white"/>
<path id="Vector_94" d="M118.697 14.2173L123.012 15.6124L122.348 17.8048L115.378 15.6124L118.83 4.58411L121.419 5.44777L118.697 14.2173Z" fill="white"/>
<path id="Vector_95" d="M162.976 42.5852C152.753 30.2282 139.675 20.3957 124.672 14.1508" stroke="white" stroke-width="2" stroke-miterlimit="10"/>
<path id="Vector_96" d="M47.7975 14.1508C32.7944 20.4621 19.7165 30.2946 9.49316 42.5852" stroke="white" stroke-width="2" stroke-miterlimit="10"/>
</g>
</g>
<defs>
<clipPath id="clip0_207_854">
<rect width="173" height="115" fill="white"/>
</clipPath>
</defs>
</svg>
