<svg width="40" height="115" viewBox="0 0 40 115" fill="none" xmlns="http://www.w3.org/2000/svg">
<g id="Group 48095754">
<g id="Capa_1">
<g id="Group">
<g id="Group_2">
<g id="Group_3">
<g id="Group_4">
<g id="Group_5">
<g id="Group_6">
<g id="Group_7">
<path id="Vector" d="M16.7585 0C11.5786 0 6.50027 0 1.32037 0C0.609401 0 0 0.6094 0 1.32037C0 3.85954 0 6.50028 0 9.03945C0 10.7661 2.64074 10.7661 2.64074 9.03945C2.64074 6.90654 2.64074 4.77364 2.64074 2.64074C6.90654 2.64074 11.1723 2.64074 15.3366 2.64074C15.3366 9.85198 15.3366 17.0632 15.3366 24.2745C15.3366 26.0011 17.9773 26.0011 17.9773 24.2745C17.9773 16.657 17.9773 8.93788 17.9773 1.32037C18.0789 0.6094 17.4695 0 16.7585 0Z" fill="white"/>
<path id="Vector_2" d="M38.2907 0C33.1108 0 28.0325 0 22.8526 0C22.1416 0 21.5322 0.6094 21.5322 1.32037C21.5322 8.93788 21.5322 16.657 21.5322 24.2745C21.5322 26.0011 24.173 26.0011 24.173 24.2745C24.173 17.0632 24.173 9.85198 24.173 2.64074C28.4388 2.64074 32.7046 2.64074 36.8688 2.64074C36.8688 4.77364 36.8688 6.90654 36.8688 9.03945C36.8688 10.7661 39.5096 10.7661 39.5096 9.03945C39.5096 6.50028 39.5096 3.85954 39.5096 1.32037C39.7127 0.6094 39.1033 0 38.2907 0Z" fill="white"/>
</g>
<path id="Vector_3" d="M15.4382 32.9078C15.4382 53.5258 15.4382 74.1439 15.4382 94.6604C15.4382 97.6058 15.4382 100.551 15.4382 103.497C15.4382 105.223 18.079 105.223 18.079 103.497C18.079 82.8786 18.079 62.2606 18.079 41.7441C18.079 38.7986 18.079 35.8532 18.079 32.9078C18.079 31.1811 15.4382 31.1811 15.4382 32.9078Z" fill="white"/>
<path id="Vector_4" d="M33.6187 31.4857C30.0638 31.4857 26.509 31.4857 22.9541 31.4857C22.2432 31.4857 21.6338 32.0951 21.6338 32.8061C21.6338 42.7596 21.6338 52.7132 21.6338 62.6667C21.6338 75.5657 21.6338 88.4647 21.6338 101.262C21.6338 102.379 21.6338 103.497 21.6338 104.512C21.6338 107.051 21.8369 109.591 19.6024 111.317C16.1492 113.958 11.5787 111.317 11.3755 107.255C11.274 105.528 8.63322 105.528 8.73479 107.255C9.03949 112.638 14.321 116.599 19.6024 114.364C24.2745 112.333 24.3761 107.864 24.3761 103.497C24.3761 100.043 24.3761 96.6916 24.3761 93.2383C24.3761 77.3939 24.3761 61.5495 24.3761 45.7051C24.3761 41.8455 24.3761 37.8844 24.3761 34.0249C27.0168 34.0249 29.6575 34.0249 32.3999 34.0249C32.3999 35.65 32.3999 37.1735 32.3999 38.7985C32.3999 40.5252 35.0406 40.5252 35.0406 38.7985C35.0406 36.7672 35.0406 34.7359 35.0406 32.7045C34.939 32.0951 34.3296 31.4857 33.6187 31.4857Z" fill="white"/>
</g>
</g>
<g id="Group_8">
<g id="Group_9">
<path id="Vector_5" d="M11.477 91.1055L11.2739 91.3087C11.477 91.7149 11.477 92.1212 11.477 92.5275C11.477 93.0353 11.3755 93.5431 11.1723 93.9494C10.9692 94.3557 10.6645 94.6604 10.2582 94.9651C9.85196 95.1682 9.34413 95.3713 8.83629 95.3713C8.32846 95.3713 7.82063 95.2698 7.41436 94.9651C7.00809 94.7619 6.70339 94.3557 6.50026 93.9494C6.29712 93.5431 6.19556 93.0353 6.19556 92.5275C6.19556 92.0196 6.29712 91.5118 6.50026 91.1055C6.70339 90.6993 7.00809 90.3946 7.41436 90.0899C7.82063 89.8867 8.32846 89.6836 8.83629 89.6836C9.24256 89.6836 9.54726 89.7852 9.85196 89.8867C10.1567 89.9883 10.4614 90.1914 10.6645 90.3946L11.477 89.582V91.1055ZM10.2582 92.2228L9.34413 93.0353V91.6134L9.64883 91.3087C9.34413 91.1055 9.03943 91.004 8.73473 91.004C8.43003 91.004 8.12533 91.1055 7.92219 91.2071C7.71906 91.3087 7.51593 91.5118 7.41436 91.7149C7.31279 91.9181 7.21122 92.2228 7.21122 92.5275C7.21122 92.8322 7.31279 93.0353 7.41436 93.34C7.51593 93.5431 7.71906 93.7463 7.92219 93.8478C8.12533 93.9494 8.43003 94.051 8.73473 94.051C9.03943 94.051 9.34413 93.9494 9.54726 93.8478C9.7504 93.7463 9.95353 93.5431 10.0551 93.34C10.1567 93.1369 10.2582 92.8322 10.2582 92.5275C10.2582 92.4259 10.2582 92.3243 10.2582 92.2228Z" fill="white"/>
<path id="Vector_6" d="M11.2739 81.9644C11.0708 82.2691 10.8676 82.5738 10.5629 82.7769C10.2582 82.98 9.85197 83.0816 9.4457 83.0816H6.09399V81.8628H9.24256C9.54726 81.8628 9.85197 81.7612 9.95353 81.5581C10.1567 81.355 10.2582 81.1518 10.2582 80.8471C10.2582 80.5424 10.1567 80.3393 9.95353 80.1362C9.7504 79.933 9.54726 79.8315 9.24256 79.8315H6.09399V78.6127H9.4457C9.85197 78.6127 10.2582 78.7142 10.5629 78.9174C10.8676 79.1205 11.0708 79.3236 11.2739 79.7299C11.477 80.0346 11.477 80.4409 11.477 80.9487C11.477 81.2534 11.3755 81.5581 11.2739 81.9644Z" fill="white"/>
<path id="Vector_7" d="M10.0551 68.5577V70.2843L11.3755 70.6906V71.9094L6.09399 69.9796V68.6593L11.3755 66.7295V68.0499L10.0551 68.5577ZM9.03943 68.8624L7.41436 69.3702L9.03943 69.8781V68.8624Z" fill="white"/>
<path id="Vector_8" d="M10.2582 56.979H11.3755V60.2291H6.09399V59.0103H10.2582V56.979Z" fill="white"/>
<path id="Vector_9" d="M6.09399 50.2753V49.0565H11.3755V50.2753H6.09399Z" fill="white"/>
<path id="Vector_10" d="M7.21123 38.3921V39.814H11.3755V41.0328H7.21123V42.3532H6.09399V38.3921H7.21123Z" fill="white"/>
<path id="Vector_11" d="M9.34413 29.4543H11.3755V30.6731H9.34413L6.09399 32.3997V31.0794L8.2269 30.0637L6.09399 29.048V27.8292L9.34413 29.4543Z" fill="white"/>
</g>
</g>
</g>
</g>
</g>
</g>
</g>
</g>
</svg>
