<svg width="156" height="115" viewBox="0 0 156 115" fill="none" xmlns="http://www.w3.org/2000/svg">
<g id="Group 48095753">
<path id="Vector" d="M106.135 18.1947C104.503 14.6957 102.403 11.43 99.604 8.6308C96.8048 6.06489 93.5391 3.9655 89.8068 2.33265C86.0746 0.699794 82.1091 0 77.9103 0C76.9773 0 76.0442 0 75.1112 0.233265C74.4114 0.233265 73.7116 0.46653 72.7785 0.46653C71.6122 0.699794 70.4459 0.933059 69.2795 1.16632C69.2795 1.16632 69.5128 1.16632 69.5128 1.39959V1.63285C69.5128 1.63285 69.5128 1.63285 69.2795 1.63285C69.2795 1.63285 69.2795 1.63285 69.0463 1.39959L68.813 1.16632C68.813 1.16632 68.813 0.933059 69.0463 0.933059C67.88 1.63285 66.9469 1.86612 65.7806 2.33265C62.0483 3.9655 58.7826 6.06489 55.9834 8.6308C54.5839 10.0304 53.4175 11.43 52.2512 13.0628C52.0179 13.2961 51.7847 13.7626 51.5514 13.9959C50.8516 15.1622 49.9186 16.5618 49.452 17.9614C47.8192 21.4604 47.1194 25.4259 47.1194 29.3914C47.1194 32.8903 47.5859 36.156 48.7522 39.4217L48.9855 39.655C49.2188 40.1215 49.452 40.5881 49.6853 41.0546C51.0849 44.3203 53.1843 47.3528 55.5169 49.9187L55.7502 49.6854C55.7502 49.6854 55.7502 49.9187 55.7502 50.1519C55.9834 50.3852 56.2167 50.6185 56.2167 50.8517C57.1498 51.7848 58.3161 52.7178 59.2492 53.4176H59.4824C60.882 54.584 62.5149 55.517 64.1477 56.2168C64.6142 56.4501 65.314 56.6833 65.7806 57.1499C69.5128 58.7827 73.4783 59.4825 77.6771 59.4825C81.8758 59.4825 85.8413 58.7827 89.5736 57.1499C92.3728 55.9836 94.7054 54.584 97.0381 52.7178H97.2713C97.9711 52.0181 98.9042 51.3183 99.604 50.6185C102.403 47.8193 104.503 44.5536 106.135 41.0546C107.768 37.3224 108.468 33.5901 108.468 29.3914C108.468 25.6591 107.768 21.6936 106.135 18.1947ZM93.5391 44.7868C93.3058 44.7868 93.0726 45.0201 92.8393 45.2534C91.9062 46.1864 91.2064 46.8862 90.2734 47.586C90.2734 47.586 90.5066 47.8193 90.5066 48.0526C90.2734 48.0526 90.0401 48.0526 89.8068 48.0526C88.6405 48.9856 87.2409 49.6854 85.8413 50.1519C83.2754 51.3183 80.4763 51.7848 77.6771 51.7848C75.5777 51.7848 73.245 51.3183 71.1457 50.6185C70.6791 50.3852 69.9793 50.1519 69.5128 49.9187C66.9469 48.7523 64.6142 47.3528 62.7481 45.2534C60.882 43.3873 59.2492 41.0546 58.0828 38.2554C58.0828 38.0222 58.0828 38.0222 57.8496 37.7889V37.5556C57.383 36.156 56.9165 34.7565 56.6832 33.3569C56.45 33.1236 56.45 32.8903 56.45 32.6571C56.45 32.6571 56.45 32.4238 56.6832 32.4238C56.2167 31.724 56.2167 30.5577 56.2167 29.6246C56.2167 26.5922 56.6832 24.0263 57.8496 21.4604C59.0159 18.8944 60.4155 16.5618 62.5149 14.6957C64.381 12.8296 66.7136 11.1967 69.5128 10.0304C72.0787 8.86406 74.8779 8.39753 77.9103 8.39753C80.9428 8.39753 83.742 8.86406 86.3079 10.0304C88.8738 11.1967 91.2064 12.5963 93.3058 14.6957C95.1719 16.5618 96.8048 18.8944 97.9711 21.4604C99.1374 24.0263 99.604 26.8255 99.604 29.6246C99.604 30.791 99.604 31.724 99.3707 32.6571C99.3707 32.8903 99.604 32.8903 99.604 33.1236C99.604 33.3569 99.604 33.3569 99.604 33.5901H99.3707C99.1374 34.5232 98.9042 35.6895 98.6709 36.6226C98.9042 36.6226 98.9042 36.8558 98.9042 37.0891C98.9042 37.3224 98.6709 37.3224 98.4376 37.3224C98.2044 37.7889 98.2044 38.0222 97.9711 38.4887C97.2713 40.1215 96.3383 41.5211 95.4052 42.9207C94.7054 43.3873 94.2389 43.8538 93.5391 44.7868C93.7723 44.5536 93.5391 44.5536 93.5391 44.7868Z" fill="white"/>
<path id="Vector_2" d="M148.59 24.4926V43.6203C148.59 44.3201 148.356 45.2532 148.123 45.953C147.89 46.6528 147.423 47.3526 146.957 47.8191C146.49 48.2856 145.79 48.7522 145.091 48.9854C143.691 49.452 142.058 49.452 140.659 48.9854C139.959 48.7522 139.492 48.5189 139.026 48.0524C139.026 48.0524 138.793 48.0524 138.793 47.8191C138.326 47.3526 137.859 46.6528 137.626 45.953C137.393 45.2532 137.16 44.5534 137.16 43.6203V41.7542C137.16 41.7542 137.16 41.7542 137.16 41.521V35.6893H136.926L134.36 34.9895L133.661 34.7563C133.427 34.9895 133.427 35.2228 133.427 35.2228H133.194C133.194 34.9895 133.194 34.9895 133.427 34.523L132.261 34.2897L131.795 34.0565L130.862 33.8232V35.4561V36.6224V42.9205C130.862 43.6203 130.628 44.5534 130.395 45.2532C130.162 45.953 129.695 46.6528 129.229 47.1193C128.762 47.5858 128.062 48.0524 127.363 48.2856C125.963 48.7522 124.33 48.7522 122.93 48.2856C122.231 48.0524 121.531 47.5858 121.064 47.1193C120.598 46.6528 120.131 45.953 119.898 45.2532C119.665 44.5534 119.432 43.8536 119.432 42.9205V31.4906C119.432 31.4906 119.198 31.4906 119.198 31.2573C119.198 31.2573 119.198 31.2573 119.198 31.024C119.198 31.024 119.198 31.024 119.432 31.024V26.1255V17.7279L112.2 16.0951V43.1538C112.2 44.7867 112.434 46.4195 113.133 48.0524C113.833 49.452 114.766 50.8515 115.933 52.0179C117.099 53.1842 118.498 54.1173 119.898 54.8171C122.231 55.7501 124.797 56.2166 127.596 55.5168C128.529 55.2836 129.462 54.8171 130.395 54.3505C131.328 53.884 132.028 53.4175 132.728 52.7177C133.194 52.2511 133.661 52.0179 133.894 51.5513C134.127 52.0179 134.594 52.4844 135.06 52.7177C135.76 53.4175 136.46 53.884 137.393 54.3505C138.326 54.8171 139.259 55.0503 140.192 55.5168C141.125 55.7501 142.291 55.9834 143.225 55.9834C144.857 55.9834 146.49 55.7501 148.123 55.0503C149.523 54.3505 150.922 53.6507 152.089 52.4844C153.255 51.3181 154.188 50.1518 154.888 48.5189C155.588 47.1193 155.821 45.4865 155.821 43.8536V26.3587L148.59 24.4926Z" fill="white"/>
<path id="Vector_3" d="M0.233154 25.8922V43.3871C0.233154 45.0199 0.466419 46.6528 1.16621 48.0524C1.86601 49.452 2.79907 50.8515 3.96539 52.0179C5.13172 53.1842 6.5313 53.884 7.93089 54.5838C9.56375 55.2836 10.9633 55.5168 12.8295 55.5168C13.7625 55.5168 14.9288 55.2836 15.8619 55.0503C16.795 54.817 17.728 54.3505 18.6611 53.884C19.5941 53.4175 20.2939 52.9509 20.9937 52.2511C21.227 52.2511 21.6935 51.7846 21.9268 51.3181C22.3933 51.7846 22.6266 52.2511 23.0931 52.4844C23.7929 53.1842 24.4927 53.6507 25.4258 54.1173C26.3588 54.5838 27.2919 54.817 28.2249 55.2836C31.0241 55.9834 33.59 55.7501 35.9227 54.5838C37.3223 53.884 38.7218 52.9509 39.8882 51.7846C41.0545 50.6183 41.9876 49.2187 42.6874 47.8191C43.3871 46.4195 43.6204 44.7867 43.6204 42.9205V16.0951L36.8557 17.7279V26.8253V31.7238C36.8557 31.7238 36.8557 31.7238 37.089 31.7238C37.089 31.7238 37.089 31.7238 37.089 31.9571C37.089 31.9571 37.089 32.1904 36.8557 32.1904V43.6203C36.8557 44.3201 36.6225 45.2532 36.3892 45.953C36.1559 46.6528 35.6894 47.3526 35.2229 47.8191C34.7563 48.2856 34.0565 48.7522 33.3568 48.9854C31.9572 49.452 30.3243 49.452 28.9247 48.9854C28.2249 48.7522 27.5251 48.2856 27.0586 47.8191C26.5921 47.3526 26.1255 46.6528 25.8923 45.953C25.659 45.2532 25.4258 44.5534 25.4258 43.6203V37.3222V36.1559V34.523L24.4927 34.7563L23.5596 34.523L22.3933 34.7563C22.6266 34.9895 22.6266 35.2228 22.6266 35.4561H22.3933C22.3933 35.4561 22.3933 35.2228 22.16 34.9895H21.4603L18.8943 35.6893H18.6611V41.521C18.6611 41.521 18.6611 41.521 18.6611 41.7542V43.6203C18.6611 44.3201 18.4278 45.2532 18.1945 45.953C17.9613 46.6528 17.4947 47.3526 17.0282 47.8191L16.795 48.0524C16.3284 48.5189 15.8619 48.7522 15.1621 48.9854C13.7625 49.452 12.1297 49.452 10.7301 48.9854C10.0303 48.7522 9.56375 48.2856 8.86395 47.8191C8.39742 47.3526 7.93089 46.6528 7.69763 45.953C7.46436 45.2532 7.2311 44.5534 7.2311 43.6203V24.4926L0.233154 25.8922Z" fill="white"/>
<path id="Vector_4" d="M53.1843 65.0814C53.1843 62.5155 53.1843 59.9496 53.1843 57.6169C60.8821 57.6169 68.3465 57.6169 76.0443 57.6169C76.0443 60.1829 76.0443 62.5155 76.0443 65.0814C73.4784 65.0814 70.9124 65.0814 68.5798 65.0814V65.3147C68.5798 65.3147 68.5798 65.3147 68.5798 65.5479V65.7812C68.5798 66.2477 68.5798 66.7143 68.5798 67.1808C68.5798 68.1139 68.5798 69.2802 68.5798 70.2132C68.5798 71.1463 68.5798 71.8461 68.5798 72.7792C68.5798 73.479 68.5798 73.9455 68.5798 74.6453C68.5798 75.5783 68.5798 76.7447 68.5798 77.6777C68.5798 78.1442 68.5798 78.6108 68.5798 79.0773C68.5798 80.4769 68.5798 82.1097 68.5798 83.5093C68.5798 84.9089 68.5798 86.5418 68.5798 87.9414C68.5798 89.341 68.5798 90.9738 68.5798 92.3734C68.5798 93.773 68.5798 95.4058 68.5798 96.8054C68.5798 98.205 68.5798 99.8379 68.5798 101.237C68.5798 102.637 68.5798 104.27 68.5798 105.669C68.5798 107.069 68.5798 108.702 68.5798 110.102V110.335V115L60.8821 113.134C60.8821 97.9718 60.8821 80.2436 60.8821 65.0814C58.3162 65.0814 55.7502 65.0814 53.1843 65.0814Z" fill="white"/>
<path id="Vector_5" d="M79.7766 65.0814C79.7766 62.5155 79.7766 59.9496 79.7766 57.6169C87.4743 57.6169 94.9388 57.6169 102.637 57.6169C102.637 60.1829 102.637 62.5155 102.637 65.0814C100.071 65.0814 97.5047 65.0814 95.1721 65.0814V65.3147C95.1721 65.3147 95.1721 65.3147 95.1721 65.5479V65.7812C95.1721 66.2477 95.1721 66.7143 95.1721 67.1808C95.1721 68.1139 95.1721 69.2802 95.1721 70.2132C95.1721 71.1463 95.1721 71.8461 95.1721 72.7792C95.1721 73.479 95.1721 73.9455 95.1721 74.6453C95.1721 75.5783 95.1721 76.7447 95.1721 77.6777C95.1721 78.1442 95.1721 78.6108 95.1721 79.0773C95.1721 80.4769 95.1721 82.1097 95.1721 83.5093C95.1721 84.9089 95.1721 86.5418 95.1721 87.9414C95.1721 89.341 95.1721 90.9738 95.1721 92.3734C95.1721 93.773 95.1721 95.4058 95.1721 96.8054C95.1721 98.205 95.1721 99.8379 95.1721 101.237C95.1721 102.637 95.1721 104.27 95.1721 105.669C95.1721 107.069 95.1721 108.702 95.1721 110.102V110.335V113.134L87.4744 114.767C87.4744 99.6046 87.4744 80.2436 87.4744 65.0814C84.6752 65.0814 82.1093 65.0814 79.7766 65.0814Z" fill="white"/>
<path id="Vector_6" d="M128.995 88.1744C128.995 91.9066 128.995 92.8397 128.995 96.3386C128.995 97.9715 128.762 99.6044 128.062 101.004C127.362 102.404 126.429 103.803 125.263 104.736C123.63 106.136 121.764 107.069 119.665 107.535C119.198 107.769 118.498 107.769 118.032 107.769C116.399 107.769 114.999 107.535 113.6 106.836C111.967 106.136 110.567 105.203 109.401 104.036C108.002 102.404 107.068 100.771 106.602 98.6713C106.369 97.9715 106.369 97.2717 106.369 96.3386C106.369 92.3731 106.369 90.9736 106.369 87.0081C106.369 85.6085 106.369 84.4421 106.369 83.2758C106.369 81.4097 106.369 79.5436 106.369 77.6775C106.369 76.7444 106.369 75.8113 106.369 74.8783C106.369 72.5456 106.369 70.4463 106.369 68.1136C106.369 65.781 107.068 63.9148 108.468 62.0487C109.634 60.4159 111.034 59.2495 112.9 58.3165C114.066 57.85 114.999 57.3834 116.166 57.3834C116.166 57.3834 116.166 57.3834 116.399 57.3834C117.099 57.3834 118.032 57.3834 118.732 57.3834C120.365 57.6167 121.997 58.0832 123.63 59.0163C124.563 59.4828 125.496 60.1826 126.196 61.1157C127.129 62.0487 127.829 63.4483 128.529 64.6146C128.995 65.781 129.229 66.9473 129.229 68.1136C129.229 68.3469 129.229 68.5801 129.229 68.8134C129.229 69.0467 129.229 69.2799 129.229 69.5132C129.229 73.2454 129.229 76.9777 129.229 80.9432C129.229 81.8762 129.229 83.0426 129.229 83.9756C128.995 85.3752 128.995 86.7748 128.995 88.1744ZM121.298 80.0101C121.298 76.2779 121.298 72.7789 121.298 69.0467C121.298 67.6471 120.831 66.714 119.898 65.781C118.965 65.0812 118.032 64.8479 116.866 65.0812C114.999 65.5477 114.066 66.9473 113.833 69.0467C113.833 74.645 113.833 80.0101 113.833 85.6085C113.833 89.8072 113.833 91.4401 113.833 95.6389C113.833 96.1054 113.833 96.5719 113.833 97.0384C113.833 97.9715 114.3 98.6713 114.999 99.1378C115.933 100.071 116.866 100.304 118.265 100.071C119.431 99.8376 120.365 99.1378 121.064 98.2048C121.298 97.7382 121.531 97.0384 121.531 96.5719C121.531 92.6064 121.531 91.4401 121.531 87.4746C121.531 86.3083 121.531 85.1419 121.531 83.9756C121.298 82.8093 121.298 81.4097 121.298 80.0101Z" fill="white"/>
<path id="Vector_7" d="M155.588 88.1746C155.588 91.9069 155.588 86.5418 155.588 90.274C155.588 91.9069 155.354 93.5397 154.655 94.9393C153.955 96.3389 153.022 97.7385 151.855 98.6715C150.223 100.071 148.356 101.004 146.257 101.471C145.79 101.704 145.091 101.704 144.624 101.704C142.991 101.704 141.592 101.471 140.192 100.771C138.559 100.071 137.16 99.1381 135.993 97.9717C134.594 96.3389 133.661 94.706 133.194 92.6067C132.961 91.9069 132.961 91.2071 132.961 90.274C132.961 86.3085 132.961 91.2071 132.961 87.2416C132.961 85.842 132.961 84.6757 132.961 83.5093C132.961 81.6432 132.961 79.7771 132.961 77.911C132.961 76.9779 132.961 76.0449 132.961 75.1118C132.961 72.7792 132.961 70.6798 132.961 68.3471C132.961 66.0145 133.661 64.1484 135.06 62.2822C136.227 60.6494 137.626 59.4831 139.492 58.55C140.659 58.0835 141.592 57.6169 142.758 57.6169C142.758 57.6169 142.758 57.6169 142.991 57.6169C143.691 57.6169 144.624 57.6169 145.324 57.6169C146.957 57.8502 148.59 58.3167 150.223 59.2498C151.156 59.7163 152.089 60.4161 152.788 61.3492C153.722 62.2822 154.421 63.6818 155.121 64.8481C155.588 66.0145 155.821 67.1808 155.821 68.3471C155.821 68.5804 155.821 68.8137 155.821 69.0469C155.821 69.2802 155.821 69.5134 155.821 69.7467C155.821 73.4789 155.821 77.2112 155.821 81.1767C155.821 82.1097 155.821 83.2761 155.821 84.2091C155.588 85.3754 155.588 86.775 155.588 88.1746ZM147.89 80.0104C147.89 76.2781 147.89 72.7792 147.89 69.0469C147.89 67.6473 147.423 66.7143 146.49 65.7812C145.557 65.0814 144.624 64.8481 143.458 65.0814C141.592 65.5479 140.659 66.9475 140.425 69.0469C140.425 74.6453 140.425 80.0104 140.425 85.6087C140.425 89.8075 140.425 85.1422 140.425 89.5742C140.425 90.0407 140.425 90.5073 140.425 90.9738C140.425 91.9069 140.892 92.6067 141.592 93.0732C142.525 94.0063 143.458 94.2395 144.857 94.0062C146.024 93.773 146.957 93.0732 147.657 92.1401C147.89 91.6736 148.123 90.9738 148.123 90.5073C148.123 86.5418 148.123 91.6736 148.123 87.7081C148.123 86.5418 148.123 85.3754 148.123 84.2091C147.89 82.8095 147.89 81.4099 147.89 80.0104Z" fill="white"/>
<path id="Vector_8" d="M34.29 107.068V87.707H41.7545V108.701L49.219 110.334H49.4522V87.707C49.4522 86.0742 49.4522 84.6746 49.4522 83.0417C49.4522 78.3764 49.4522 73.9444 49.4522 69.2791C49.4522 69.0459 49.4522 68.8126 49.4522 68.3461C49.4522 68.1128 49.4522 67.8795 49.4522 67.6463C49.4522 66.4799 49.219 65.3136 48.7524 64.1473C48.2859 62.7477 47.5861 61.5814 46.4198 60.4151C45.72 59.7153 45.0202 59.0155 44.0871 58.5489C42.4543 57.6159 40.8214 57.1493 39.1886 56.9161C38.0223 56.6828 36.8559 56.9161 35.6896 57.1493C33.5902 57.6159 31.7241 58.5489 30.0913 59.9485C28.9249 61.1148 27.9919 62.5144 27.2921 63.914C26.8256 65.0803 26.5923 66.2467 26.5923 67.6463C26.5923 69.2791 26.5923 71.1452 26.5923 72.7781C26.5923 75.5773 26.5923 78.1432 26.5923 80.9424C26.5923 81.6422 26.5923 82.1087 26.5923 82.8085C26.5923 83.5083 26.5923 83.9748 26.5923 84.6746C26.5923 91.206 26.5923 97.9707 26.5923 104.502L34.29 107.068ZM34.29 79.0762C34.29 78.3764 34.29 77.4434 34.29 76.7436C34.29 74.4109 34.29 72.0783 34.29 69.7456C34.29 69.2791 34.29 68.5793 34.5233 68.1128C34.7566 66.7132 35.6896 65.7801 37.0892 65.3136C38.2555 64.8471 39.4219 65.0803 40.3549 66.0134C41.288 66.9465 41.7545 67.8795 41.7545 69.2791C41.7545 71.845 41.7545 74.4109 41.7545 76.9769C41.7545 77.9099 41.7545 78.843 41.7545 80.0093V80.4758H34.29V79.0762Z" fill="white"/>
<path id="Vector_9" d="M7.69774 101.004L15.3955 102.87C15.3955 102.404 15.3955 101.704 15.3955 101.237C15.3955 99.8379 15.3955 98.205 15.3955 96.8054C15.3955 95.4058 15.3955 93.773 15.3955 92.3734C15.3955 90.9738 15.3955 89.341 15.3955 87.9414C15.3955 86.5418 15.3955 84.9089 15.3955 83.5093C15.3955 82.1097 15.3955 80.4769 15.3955 79.0773C15.3955 78.6108 15.3955 78.1442 15.3955 77.6777C15.3955 76.7447 15.3955 75.5783 15.3955 74.6453C15.3955 73.9455 15.3955 73.479 15.3955 72.7792C15.3955 71.8461 15.3955 71.1463 15.3955 70.2132C15.3955 69.2802 15.3955 68.1139 15.3955 67.1808C15.3955 66.7143 15.3955 66.2477 15.3955 65.7812C15.3955 65.7812 15.3955 65.7812 15.3955 65.5479V65.3147V65.0814C17.9614 65.0814 20.5273 65.0814 22.86 65.0814C22.86 62.5155 22.86 59.9496 22.86 57.6169C15.1622 57.6169 7.69774 57.6169 0 57.6169C0 60.1829 0 62.7488 0 65.0814C2.56591 65.0814 5.13183 65.0814 7.46447 65.0814C7.69774 77.2112 7.69774 89.1077 7.69774 101.004Z" fill="white"/>
</g>
</svg>
