<svg width="180" height="115" viewBox="0 0 40 115" fill="none" xmlns="http://www.w3.org/2000/svg">
<g id="Group 48095754">
<g id="Capa_1">
<g id="Group">
<g id="Group_2">
<g id="Group_3">
<g id="Group_4">
<g id="Group_5">
<g id="Group_6">
<g id="Group_7">
<path id="Vector" d="M16.7585 0C11.5786 0 6.50027 0 1.32037 0C0.609401 0 0 0.6094 0 1.32037C0 3.85954 0 6.50028 0 9.03945C0 10.7661 2.64074 10.7661 2.64074 9.03945C2.64074 6.90654 2.64074 4.77364 2.64074 2.64074C6.90654 2.64074 11.1723 2.64074 15.3366 2.64074C15.3366 9.85198 15.3366 17.0632 15.3366 24.2745C15.3366 26.0011 17.9773 26.0011 17.9773 24.2745C17.9773 16.657 17.9773 8.93788 17.9773 1.32037C18.0789 0.6094 17.4695 0 16.7585 0Z" fill="white"/>
<path id="Vector_2" d="M38.2907 0C33.1108 0 28.0325 0 22.8526 0C22.1416 0 21.5322 0.6094 21.5322 1.32037C21.5322 8.93788 21.5322 16.657 21.5322 24.2745C21.5322 26.0011 24.1729 26.0011 24.1729 24.2745C24.1729 17.0632 24.1729 9.85198 24.1729 2.64074C28.4387 2.64074 32.7045 2.64074 36.8688 2.64074C36.8688 4.77364 36.8688 6.90654 36.8688 9.03945C36.8688 10.7661 39.5095 10.7661 39.5095 9.03945C39.5095 6.50028 39.5095 3.85954 39.5095 1.32037C39.7127 0.6094 39.1032 0 38.2907 0Z" fill="white"/>
</g>
<path id="Vector_3" d="M15.4382 32.9078C15.4382 53.5258 15.4382 74.1439 15.4382 94.6604C15.4382 97.6058 15.4382 100.551 15.4382 103.497C15.4382 105.223 18.0789 105.223 18.0789 103.497C18.0789 82.8786 18.0789 62.2606 18.0789 41.7441C18.0789 38.7986 18.0789 35.8532 18.0789 32.9078C18.0789 31.1811 15.4382 31.1811 15.4382 32.9078Z" fill="white"/>
<path id="Vector_4" d="M33.6186 31.4856C30.0638 31.4856 26.509 31.4856 22.9541 31.4856C22.2432 31.4856 21.6338 32.095 21.6338 32.806C21.6338 42.7595 21.6338 52.7131 21.6338 62.6666C21.6338 75.5656 21.6338 88.4646 21.6338 101.262C21.6338 102.379 21.6338 103.496 21.6338 104.512C21.6338 107.051 21.8369 109.59 19.6024 111.317C16.1492 113.958 11.5786 111.317 11.3755 107.254C11.2739 105.528 8.63321 105.528 8.73477 107.254C9.03947 112.637 14.3209 116.599 19.6024 114.364C24.2745 112.333 24.3761 107.864 24.3761 103.496C24.3761 100.043 24.3761 96.6915 24.3761 93.2382C24.3761 77.3938 24.3761 61.5494 24.3761 45.7049C24.3761 41.8454 24.3761 37.8843 24.3761 34.0248C27.0168 34.0248 29.6575 34.0248 32.3998 34.0248C32.3998 35.6498 32.3998 37.1733 32.3998 38.7984C32.3998 40.525 35.0406 40.525 35.0406 38.7984C35.0406 36.7671 35.0406 34.7357 35.0406 32.7044C34.939 32.095 34.3296 31.4856 33.6186 31.4856Z" fill="white"/>
</g>
</g>
<g id="Group_8">
<g id="Group_9">
<path id="Vector_5" d="M11.4771 91.1055L11.2739 91.3087C11.4771 91.7149 11.4771 92.1212 11.4771 92.5275C11.4771 93.0353 11.3755 93.5431 11.1724 93.9494C10.9692 94.3557 10.6645 94.6604 10.2583 94.9651C9.85198 95.1682 9.34415 95.3713 8.83632 95.3713C8.32848 95.3713 7.82065 95.2698 7.41438 94.9651C7.00811 94.7619 6.70341 94.3557 6.50028 93.9494C6.29715 93.5431 6.19558 93.0353 6.19558 92.5275C6.19558 92.0196 6.29715 91.5118 6.50028 91.1055C6.70341 90.6993 7.00811 90.3946 7.41438 90.0899C7.82065 89.8867 8.32848 89.6836 8.83632 89.6836C9.24258 89.6836 9.54728 89.7852 9.85198 89.8867C10.1567 89.9883 10.4614 90.1914 10.6645 90.3946L11.4771 89.582V91.1055ZM10.2583 92.2228L9.34415 93.0353V91.6134L9.64885 91.3087C9.34415 91.1055 9.03945 91.004 8.73475 91.004C8.43005 91.004 8.12535 91.1055 7.92222 91.2071C7.71908 91.3087 7.51595 91.5118 7.41438 91.7149C7.31281 91.9181 7.21125 92.2228 7.21125 92.5275C7.21125 92.8322 7.31281 93.0353 7.41438 93.34C7.51595 93.5431 7.71908 93.7463 7.92222 93.8478C8.12535 93.9494 8.43005 94.051 8.73475 94.051C9.03945 94.051 9.34415 93.9494 9.54728 93.8478C9.75042 93.7463 9.95355 93.5431 10.0551 93.34C10.1567 93.1369 10.2583 92.8322 10.2583 92.5275C10.2583 92.4259 10.2583 92.3243 10.2583 92.2228Z" fill="white"/>
<path id="Vector_6" d="M11.2739 81.9643C11.0708 82.269 10.8677 82.5737 10.563 82.7768C10.2583 82.9799 9.85199 83.0815 9.44572 83.0815H6.09402V81.8627H9.24259C9.54729 81.8627 9.85199 81.7611 9.95356 81.558C10.1567 81.3549 10.2583 81.1517 10.2583 80.847C10.2583 80.5423 10.1567 80.3392 9.95356 80.1361C9.75042 79.9329 9.54729 79.8314 9.24259 79.8314H6.09402V78.6125H9.44572C9.85199 78.6125 10.2583 78.7141 10.563 78.9173C10.8677 79.1204 11.0708 79.3235 11.2739 79.7298C11.4771 80.0345 11.4771 80.4408 11.4771 80.9486C11.4771 81.2533 11.3755 81.558 11.2739 81.9643Z" fill="white"/>
<path id="Vector_7" d="M10.0551 68.5577V70.2843L11.3755 70.6906V71.9094L6.09402 69.9796V68.6593L11.3755 66.7295V68.0499L10.0551 68.5577ZM9.03945 68.8624L7.41439 69.3702L9.03945 69.8781V68.8624Z" fill="white"/>
<path id="Vector_8" d="M10.2583 56.9788H11.3755V60.2289H6.09402V59.0101H10.2583V56.9788Z" fill="white"/>
<path id="Vector_9" d="M6.09402 50.2752V49.0564H11.3755V50.2752H6.09402Z" fill="white"/>
<path id="Vector_10" d="M7.21125 38.3918V39.8138H11.3755V41.0326H7.21125V42.353H6.09402V38.3918H7.21125Z" fill="white"/>
<path id="Vector_11" d="M9.34416 29.4542H11.3755V30.673H9.34416L6.09402 32.3996V31.0792L8.22692 30.0636L6.09402 29.0479V27.8291L9.34416 29.4542Z" fill="white"/>
</g>
</g>
</g>
</g>
</g>
</g>
</g>
</g>
</svg>
