<svg width="164" height="84" viewBox="0 0 164 84" fill="none" xmlns="http://www.w3.org/2000/svg">
<g id="Group 48095752">
<g id="Group">
<path id="Vector" d="M37.3039 0V10.6996H33.9061L23.6403 59.7874H12.9407L2.67489 10.6273H0V0H17.0615V10.6273H14.242L18.6519 40.3403L23.2065 10.555H20.2424V0H37.3039Z" fill="white"/>
<path id="Vector_2" d="M80.0299 59.7151H41.1355V49.3048H45.3286V10.555H40.8463V0H80.0299V17.2061H68.5351V10.6996H57.0403V24.4355H66.0048V34.9182H57.0403V49.3048H68.6796V41.3524H80.0299V59.7151Z" fill="white"/>
<path id="Vector_3" d="M98.6095 59.7151H82.9217V49.4493H85.0905L94.055 10.8441H91.4524L91.3801 0.144531H109.092V10.6995H107.068L116.9 49.2324H119.069V59.6428H103.381V49.3047H105.984L105.188 46.0515H96.8022L95.9346 49.3047H98.6818V59.7151H98.6095ZM103.164 38.0268L100.851 28.7731L98.465 38.0268H103.164Z" fill="white"/>
<path id="Vector_4" d="M141.552 59.7874H121.961V49.0156H126.443V10.4827H121.816V0.0722656H139.094L147.77 25.5922V10.2658H143.577V0.0722656H163.964V10.4827H159.698V49.0156H163.964V59.7874H147.842L137.938 29.3515V49.1601H141.552V59.7874Z" fill="white"/>
<path id="Vector_5" d="M98.1758 83.4276H92.3922V80.3912H93.5489V69.1133H92.3922V71.2098H89.645V66.0769H100.851V71.2098H98.0312V69.1133H96.9468V80.3912H98.1758V83.4276Z" fill="white"/>
<path id="Vector_6" d="M106.417 83.4276H101.863V80.4635H102.513L105.116 69.1856H104.393V66.0769H109.598V69.1856H109.02L111.912 80.4635H112.562V83.4998H107.935V80.4635H108.658L108.442 79.5237H105.984L105.694 80.4635H106.49V83.4276H106.417ZM107.719 77.0656L107.068 74.3908L106.345 77.0656H107.719Z" fill="white"/>
<path id="Vector_7" d="M121.744 83.4276H115.96V80.3912H117.117V69.1133H115.96V71.2098H113.213V66.0769H124.419V71.2098H121.671V69.1133H120.515V80.3912H121.744V83.4276Z" fill="white"/>
<path id="Vector_8" d="M133.961 83.4276H128.178V80.3912H129.262V69.1133H128.178V71.2098H125.358V66.0769H136.636V71.2098H133.817V69.1133H132.732V80.3912H133.961V83.4276Z" fill="white"/>
<path id="Vector_9" d="M139.022 83.4278L137.648 82.0542V67.6677L139.311 66.0049H146.468L148.131 67.5954V81.7651L146.541 83.3555H139.022V83.4278ZM144.661 69.1135H140.974V80.3915H144.661V69.1135Z" fill="white"/>
<path id="Vector_10" d="M150.445 83.4278L149.071 82.0542V67.6677L150.734 66.0049H157.891L159.554 67.5954V81.7651L157.963 83.3555H150.445V83.4278ZM156.156 69.1135H152.469V80.3915H156.156V69.1135Z" fill="white"/>
</g>
</g>
</svg>
