<svg width="164" height="84" viewBox="0 0 164 84" fill="none" xmlns="http://www.w3.org/2000/svg">
<g id="Group 48095752">
<g id="Group">
<path id="Vector" d="M37.3039 0V10.6996H33.9061L23.6403 59.7874H12.9407L2.67489 10.6273H0V0H17.0615V10.6273H14.242L18.6519 40.3403L23.2065 10.555H20.2424V0H37.3039Z" fill="white"/>
<path id="Vector_2" d="M80.03 59.7151H41.1356V49.3048H45.3287V10.555H40.8464V0H80.03V17.2061H68.5352V10.6996H57.0404V24.4355H66.0049V34.9182H57.0404V49.3048H68.6798V41.3524H80.03V59.7151Z" fill="white"/>
<path id="Vector_3" d="M98.6095 59.7151H82.9216V49.4493H85.0905L94.055 10.8441H91.4524L91.3801 0.144531H109.092V10.6995H107.068L116.9 49.2324H119.069V59.6428H103.381V49.3047H105.984L105.188 46.0515H96.8021L95.9346 49.3047H98.6818V59.7151H98.6095ZM103.164 38.0268L100.851 28.7731L98.4649 38.0268H103.164Z" fill="white"/>
<path id="Vector_4" d="M141.552 59.7875H121.961V49.0157H126.443V10.4828H121.816V0.0723877H139.094L147.77 25.5923V10.2659H143.577V0.0723877H163.964V10.4828H159.698V49.0157H163.964V59.7875H147.842L137.938 29.3516V49.1603H141.552V59.7875Z" fill="white"/>
<path id="Vector_5" d="M98.1758 83.4277H92.3922V80.3913H93.5489V69.1134H92.3922V71.2099H89.645V66.077H100.851V71.2099H98.0312V69.1134H96.9468V80.3913H98.1758V83.4277Z" fill="white"/>
<path id="Vector_6" d="M106.417 83.4277H101.863V80.4636H102.513L105.116 69.1857H104.393V66.077H109.598V69.1857H109.02L111.912 80.4636H112.562V83.5H107.936V80.4636H108.658L108.442 79.5238H105.984L105.694 80.4636H106.49V83.4277H106.417ZM107.719 77.0658L107.068 74.3909L106.345 77.0658H107.719Z" fill="white"/>
<path id="Vector_7" d="M121.744 83.4277H115.96V80.3913H117.117V69.1134H115.96V71.2099H113.213V66.077H124.419V71.2099H121.671V69.1134H120.515V80.3913H121.744V83.4277Z" fill="white"/>
<path id="Vector_8" d="M133.961 83.4277H128.178V80.3913H129.262V69.1134H128.178V71.2099H125.358V66.077H136.636V71.2099H133.817V69.1134H132.732V80.3913H133.961V83.4277Z" fill="white"/>
<path id="Vector_9" d="M139.022 83.4277L137.648 82.0541V67.6675L139.311 66.0048H146.468L148.131 67.5952V81.7649L146.541 83.3554H139.022V83.4277ZM144.661 69.1134H140.974V80.3913H144.661V69.1134Z" fill="white"/>
<path id="Vector_10" d="M150.445 83.4277L149.071 82.0541V67.6675L150.734 66.0048H157.891L159.554 67.5952V81.7649L157.963 83.3554H150.445V83.4277ZM156.156 69.1134H152.469V80.3913H156.156V69.1134Z" fill="white"/>
</g>
</g>
</svg>
