<svg width="173" height="115" viewBox="0 0 173 115" fill="none" xmlns="http://www.w3.org/2000/svg">
<g id="logo  1" clip-path="url(#clip0_10_113)">
<g id="Group">
<g id="Group_2">
<g id="Clip path group">
<mask id="mask0_10_113" style="mask-type:luminance" maskUnits="userSpaceOnUse" x="77" y="15" width="18" height="17">
<g id="SVGID_00000024692046906824693840000005981941598311554688_">
<path id="Vector" d="M86.2345 29.0323L80.99 31.7561L81.9858 25.9098L77.8035 21.8572L83.6454 20.9936L86.2345 15.6787L88.8235 20.9936L94.6654 21.8572L90.4167 25.9098L91.4125 31.7561L86.2345 29.0323Z" fill="white"/>
</g>
</mask>
<g mask="url(#mask0_10_113)">
<path id="Vector_2" d="M80.6581 9.36743L100.706 18.4027L91.8108 38.0676L71.7625 29.0324L80.6581 9.36743Z" fill="white"/>
</g>
</g>
</g>
<g id="Group_3">
<g id="Clip path group_2">
<mask id="mask1_10_113" style="mask-type:luminance" maskUnits="userSpaceOnUse" x="65" y="22" width="11" height="10">
<g id="SVGID_00000018958797492089293780000015111465416448298679_">
<path id="Vector_3" d="M70.302 30.1617L67.2483 31.7561L67.8457 28.3679L65.3231 25.9098L68.7751 25.4447L70.302 22.3223L71.8288 25.4447L75.2145 25.9098L72.7582 28.3679L73.3557 31.7561L70.302 30.1617Z" fill="white"/>
</g>
</mask>
<g mask="url(#mask1_10_113)">
<path id="Vector_4" d="M67.0491 18.6018L78.7329 23.9167L73.5549 35.4764L61.8047 30.1616L67.0491 18.6018Z" fill="white"/>
</g>
</g>
</g>
<g id="Group_4">
<g id="Clip path group_3">
<mask id="mask2_10_113" style="mask-type:luminance" maskUnits="userSpaceOnUse" x="97" y="22" width="11" height="10">
<g id="SVGID_00000150799001570110658280000011519973820359135935_">
<path id="Vector_5" d="M102.167 30.1617L99.1132 31.7561L99.7107 28.3679L97.188 25.9098L100.64 25.4447L102.167 22.3223L103.694 25.4447L107.079 25.9098L104.623 28.3679L105.221 31.7561L102.167 30.1617Z" fill="white"/>
</g>
</mask>
<g mask="url(#mask2_10_113)">
<path id="Vector_6" d="M98.914 18.6018L110.598 23.9167L105.42 35.4764L93.6696 30.1616L98.914 18.6018Z" fill="white"/>
</g>
</g>
</g>
<g id="Group_5">
<g id="Clip path group_4">
<mask id="mask3_10_113" style="mask-type:luminance" maskUnits="userSpaceOnUse" x="55" y="25" width="7" height="7">
<g id="SVGID_00000034081525745213197160000016261983606127933586_">
<path id="Vector_7" d="M58.4854 30.6932L56.4275 31.7562L56.8258 29.431L55.1662 27.8365L57.4233 27.5043L58.4854 25.4448L59.4812 27.5043L61.8047 27.8365L60.145 29.431L60.477 31.7562L58.4854 30.6932Z" fill="white"/>
</g>
</mask>
<g mask="url(#mask3_10_113)">
<path id="Vector_8" d="M56.2947 22.9202L64.1282 26.5077L60.6761 34.2142L52.7763 30.6931L56.2947 22.9202Z" fill="white"/>
</g>
</g>
</g>
<g id="Group_6">
<g id="Clip path group_5">
<mask id="mask4_10_113" style="mask-type:luminance" maskUnits="userSpaceOnUse" x="110" y="25" width="8" height="7">
<g id="SVGID_00000126306791345584418360000013623544968316988292_">
<path id="Vector_9" d="M113.984 30.6932L111.926 31.7562L112.324 29.431L110.664 27.8365L112.988 27.5043L113.984 25.4448L114.979 27.5043L117.303 27.8365L115.643 29.431L116.041 31.7562L113.984 30.6932Z" fill="white"/>
</g>
</mask>
<g mask="url(#mask4_10_113)">
<path id="Vector_10" d="M111.793 22.9202L119.693 26.5077L116.174 34.2142L108.274 30.6931L111.793 22.9202Z" fill="white"/>
</g>
</g>
</g>
<path id="Vector_11" d="M51.8469 114.801C55.7636 112.011 60.4106 111.213 64.8584 109.951C67.0491 109.353 69.1734 108.755 71.165 107.692C71.7625 107.36 72.4263 107.028 72.9574 106.563C74.3515 105.433 74.4843 104.57 73.6213 103.108C73.2893 102.51 72.891 101.912 72.5591 101.248C72.1608 100.318 71.4305 100.052 70.5012 100.119C69.7045 100.185 68.9743 100.318 68.2441 100.65C61.4728 103.773 56.1619 108.689 51.8469 114.801Z" fill="white"/>
<path id="Vector_12" d="M73.1566 100.251C73.2229 100.384 73.2893 100.517 73.3557 100.65C73.5549 100.982 73.754 101.314 73.9532 101.713C75.1481 103.772 75.1481 103.772 77.2061 102.51C79.9942 100.849 81.7203 99.8528 84.5084 98.2583C85.1059 97.9261 85.5706 97.1953 84.774 96.7967C81.1892 94.8701 82.185 94.8037 79.4632 96.3981C76.8077 97.9926 76.5422 98.1254 73.8204 99.7199C73.5549 99.8528 73.2893 99.9192 73.1566 100.251Z" fill="white"/>
<path id="Vector_13" d="M111.726 105.566C111.328 105.699 111.063 106.031 111.063 106.496C111.063 106.961 111.328 107.227 111.594 107.559C112.656 109.087 112.457 110.947 111.063 112.143C109.934 113.14 108.208 113.14 107.013 112.21C105.486 111.014 105.154 109.353 106.017 107.626C106.814 106.098 106.748 105.965 105.42 105.168C95.1965 99.2548 84.9067 93.2756 74.6834 87.3628H70.5675C81.3883 93.6742 92.2091 99.9191 103.096 106.164C103.827 106.563 104.026 106.961 103.76 107.759C103.03 110.017 103.76 112.21 105.685 113.738C107.544 115.199 109.536 115.332 111.594 114.336C114.581 112.808 115.378 108.622 113.187 106.164C112.722 105.699 112.257 105.367 111.726 105.566Z" fill="white"/>
<path id="Vector_14" d="M92.2755 87.23C90.284 88.6252 88.226 90.1532 86.6992 91.4819C86.1681 91.9469 85.9025 92.412 86.5664 92.8106C87.8277 93.6078 88.1596 93.8736 89.8193 94.5379C90.4167 94.8037 90.9478 95.1358 91.9436 94.6708C95.0637 93.2092 96.6569 92.5449 99.6443 90.8175C100.175 90.4854 102.499 89.0902 105.619 87.1636L92.2755 87.23Z" fill="white"/>
<path id="Vector_15" d="M172.867 43.7811C168.486 45.8406 164.237 48.033 159.922 50.2253V53.0156C163.905 50.4247 167.822 47.8337 171.606 45.0434C171.938 44.7776 172.535 44.3126 172.867 43.9804C173.133 43.8475 173 43.7147 172.867 43.7811Z" fill="white"/>
<path id="Vector_16" d="M3.65119 44.9769L3.31926 44.7776L2.2571 44.1797L2.98734 45.0434L1.92517 44.844L2.65541 45.7077L1.59325 45.5084L2.32348 46.3721L1.26132 46.1728L1.99156 47.0364L0.929394 46.8371L1.65963 47.7008L0.597467 47.5015L1.32771 48.3651L0 47.9665L1.32771 48.7637C5.37721 51.1554 9.49309 53.5471 13.5426 55.9388L15.0031 51.554C11.2191 49.3617 7.43515 47.1693 3.65119 44.9769Z" fill="white"/>
<path id="Vector_17" d="M39.3665 63.6452H35.9808L35.3833 60.4563H31.2675L30.67 63.6452H27.6163L31.0019 46.1062H35.9144L39.3665 63.6452ZM31.7322 58.0646H34.985L33.3254 49.1622L31.7322 58.0646Z" fill="white"/>
<path id="Vector_18" d="M45.4075 45.8406C48.6604 45.8406 50.32 47.435 50.32 50.2918V50.8232H47.1335V50.0925C47.1335 48.8302 46.5361 48.3651 45.4739 48.3651C44.4117 48.3651 43.8143 48.8302 43.8143 50.0925C43.8143 53.68 50.3864 54.4108 50.3864 59.3934C50.3864 62.1837 48.6604 63.8446 45.4075 63.8446C42.1546 63.8446 40.4286 62.2502 40.4286 59.3934V58.3305H43.6151V59.5927C43.6151 60.855 44.279 61.3201 45.3411 61.3201C46.4033 61.3201 47.0671 60.855 47.0671 59.5927C47.0671 56.0052 40.495 55.2744 40.495 50.2918C40.495 47.435 42.1546 45.8406 45.4075 45.8406Z" fill="white"/>
<path id="Vector_19" d="M56.8258 45.8406C60.0787 45.8406 61.7383 47.435 61.7383 50.2918V50.8232H58.5518V50.0925C58.5518 48.8302 57.9543 48.3651 56.8922 48.3651C55.83 48.3651 55.2325 48.8302 55.2325 50.0925C55.2325 53.68 61.8047 54.4108 61.8047 59.3934C61.8047 62.1837 60.0787 63.8446 56.8258 63.8446C53.5729 63.8446 51.8469 62.2502 51.8469 59.3934V58.3305H55.0334V59.5927C55.0334 60.855 55.6972 61.3201 56.7594 61.3201C57.8216 61.3201 58.4854 60.855 58.4854 59.5927C58.4854 56.0052 51.9133 55.2744 51.9133 50.2918C51.8469 47.435 53.5729 45.8406 56.8258 45.8406Z" fill="white"/>
<path id="Vector_20" d="M63.3979 50.2918C63.3979 47.5015 65.1903 45.8406 68.5096 45.8406C71.8288 45.8406 73.6213 47.435 73.6213 50.2918V59.4599C73.6213 62.2502 71.8288 63.9111 68.5096 63.9111C65.2567 63.9111 63.3979 62.3166 63.3979 59.4599V50.2918ZM66.7172 59.5927C66.7172 60.855 67.381 61.3201 68.4432 61.3201C69.5054 61.3201 70.1692 60.855 70.1692 59.5927V50.0925C70.1692 48.8302 69.5054 48.3651 68.4432 48.3651C67.381 48.3651 66.7172 48.8302 66.7172 50.0925V59.5927Z" fill="white"/>
<path id="Vector_21" d="M85.4378 57.0682V59.3934C85.4378 62.1837 83.7118 63.7782 80.4589 63.7782C77.1397 63.7782 75.48 62.1837 75.48 59.3934V50.2918C75.48 47.5015 77.2061 45.8406 80.4589 45.8406C83.7118 45.8406 85.4378 47.435 85.4378 50.2918V52.0191H82.2513V50.1589C82.2513 48.8966 81.5875 48.4316 80.5253 48.4316C79.4632 48.4316 78.7993 48.8966 78.7993 50.1589V59.6592C78.7993 60.9215 79.4632 61.3865 80.5253 61.3865C81.5875 61.3865 82.2513 60.9215 82.2513 59.6592V57.1346H85.4378V57.0682Z" fill="white"/>
<path id="Vector_22" d="M90.8151 46.0398H87.4958V63.5788H90.8151V46.0398Z" fill="white"/>
<path id="Vector_23" d="M104.092 63.6452H100.706L100.109 60.4563H95.9931L95.3956 63.6452H92.3419L95.7275 46.1062H100.64L104.092 63.6452ZM96.4578 58.0646H99.7107L98.051 49.1622L96.4578 58.0646Z" fill="white"/>
<path id="Vector_24" d="M104.69 46.0398H114.979V48.5643H111.527V63.6452H108.142V48.5643H104.69V46.0398Z" fill="white"/>
<path id="Vector_25" d="M119.759 46.0398H116.44V63.5788H119.759V46.0398Z" fill="white"/>
<path id="Vector_26" d="M121.95 50.2918C121.95 47.5015 123.742 45.8406 127.061 45.8406C130.381 45.8406 132.173 47.435 132.173 50.2918V59.4599C132.173 62.2502 130.381 63.9111 127.061 63.9111C123.809 63.9111 121.95 62.3166 121.95 59.4599V50.2918ZM125.335 59.5927C125.335 60.855 125.999 61.3201 127.061 61.3201C128.124 61.3201 128.787 60.855 128.787 59.5927V50.0925C128.787 48.8302 128.124 48.3651 127.061 48.3651C125.999 48.3651 125.335 48.8302 125.335 50.0925V59.5927Z" fill="white"/>
<path id="Vector_27" d="M137.285 50.8896V63.6452H134.297V46.0398H138.48L141.932 56.603V46.0398H144.919V63.6452H141.467L137.285 50.8896Z" fill="white"/>
<path id="Vector_28" d="M37.1758 68.7607H40.7606V69.558H39.4992V74.4742H38.3707V69.558H37.1758V68.7607Z" fill="white"/>
<path id="Vector_29" d="M44.6109 74.4742H43.416L43.2168 73.4112H41.8227L41.6236 74.4742H40.5614L41.7563 68.7607H43.4824L44.6109 74.4742ZM41.9555 72.6804H43.084L42.553 69.7573L41.9555 72.6804Z" fill="white"/>
<path id="Vector_30" d="M44.8101 68.7607H48.3949V69.558H47.1999V74.4742H46.005V69.558H44.8101V68.7607Z" fill="white"/>
<path id="Vector_31" d="M48.594 68.7607H52.1788V69.558H50.9839V74.4742H49.7889V69.558H48.594V68.7607Z" fill="white"/>
<path id="Vector_32" d="M52.5771 70.0895C52.5771 69.1594 53.1746 68.6279 54.3695 68.6279C55.5645 68.6279 56.1619 69.1594 56.1619 70.0895V73.0791C56.1619 74.0092 55.5645 74.5407 54.3695 74.5407C53.1746 74.5407 52.5771 74.0092 52.5771 73.0791V70.0895ZM53.7721 73.1455C53.7721 73.5442 53.9712 73.7435 54.3695 73.7435C54.7678 73.7435 54.967 73.6106 54.967 73.1455V70.0231C54.967 69.6245 54.7678 69.4252 54.3695 69.4252C53.9712 69.4252 53.7721 69.558 53.7721 70.0231V73.1455Z" fill="white"/>
<path id="Vector_33" d="M56.7594 70.0895C56.7594 69.1594 57.3569 68.6279 58.5518 68.6279C59.6803 68.6279 60.3442 69.1594 60.3442 70.0895V73.0791C60.3442 74.0092 59.7467 74.5407 58.5518 74.5407C57.4232 74.5407 56.7594 74.0092 56.7594 73.0791V70.0895ZM57.9543 73.1455C57.9543 73.5442 58.1535 73.7435 58.5518 73.7435C58.9501 73.7435 59.1493 73.6106 59.1493 73.1455V70.0231C59.1493 69.6245 58.9501 69.4252 58.5518 69.4252C58.1535 69.4252 57.9543 69.558 57.9543 70.0231V73.1455Z" fill="white"/>
<path id="Vector_34" d="M60.9417 74.4743V73.6106H62.0702V74.4078L61.6055 75.2715H61.1408L61.4064 74.4743H60.9417Z" fill="white"/>
<path id="Vector_35" d="M68.0449 70.1559V70.8867C68.0449 71.8168 67.4474 72.2819 66.3189 72.2819H65.7214V74.4078H64.5265V68.6943H66.2525C67.4474 68.7608 68.0449 69.2258 68.0449 70.1559ZM65.7214 69.558V71.4846H66.2525C66.6508 71.4846 66.85 71.3518 66.85 70.9531V70.0895C66.85 69.6909 66.6508 69.558 66.2525 69.558H65.7214Z" fill="white"/>
<path id="Vector_36" d="M69.7709 71.1524H71.3642V71.9497H69.7709V73.677H71.8289V74.4742H68.6424V68.7607H71.8289V69.558H69.7709V71.1524Z" fill="white"/>
<path id="Vector_37" d="M74.949 74.4742C74.8826 74.3414 74.8162 74.2085 74.8162 73.7434V72.8133C74.8162 72.2819 74.617 72.0825 74.086 72.0825H73.6876V74.4078H72.4927V68.6943H74.2187C75.4137 68.6943 75.9447 69.1594 75.9447 70.023V70.4881C75.9447 71.086 75.6792 71.4846 75.2145 71.6839C75.812 71.8832 76.0111 72.2819 76.0111 72.8798V73.7434C76.0111 74.0092 76.0111 74.2085 76.1439 74.4078H74.949V74.4742ZM73.6876 69.558V71.3518H74.1523C74.617 71.3518 74.8826 71.2189 74.8826 70.7538V70.1559C74.8826 69.7573 74.6834 69.558 74.2851 69.558H73.6876Z" fill="white"/>
<path id="Vector_38" d="M79.264 72.8133L80.0606 68.7607H81.6539V74.4742H80.5253V70.3552L79.7287 74.4742H78.6665L77.8035 70.4216V74.4742H76.7414V68.7607H78.401L79.264 72.8133Z" fill="white"/>
<path id="Vector_39" d="M86.2344 74.4742H85.0395L84.8404 73.4112H83.3799L83.1807 74.4742H82.1186L83.3135 68.7607H85.0395L86.2344 74.4742ZM83.579 72.6804H84.7076L84.1765 69.7573L83.579 72.6804Z" fill="white"/>
<path id="Vector_40" d="M87.8277 70.2888V74.4742H86.7655V68.7607H88.226L89.4209 72.149V68.7607H90.4831V74.4742H89.2882L87.8277 70.2888Z" fill="white"/>
<path id="Vector_41" d="M92.4747 71.1524H94.0679V71.9497H92.4747V73.677H94.5326V74.4742H91.3461V68.7607H94.5326V69.558H92.4747V71.1524Z" fill="white"/>
<path id="Vector_42" d="M96.2586 70.2888V74.4742H95.1965V68.7607H96.657L97.8519 72.149V68.7607H98.9141V74.4742H97.7191L96.2586 70.2888Z" fill="white"/>
<path id="Vector_43" d="M99.3787 68.7607H103.03V69.558H101.769V74.4742H100.64V69.558H99.3787V68.7607Z" fill="white"/>
<path id="Vector_44" d="M107.611 72.8133L108.407 68.7607H110V74.4742H108.938V70.3552L108.142 74.4742H107.013L106.15 70.4216V74.4742H105.154V68.7607H106.748L107.611 72.8133Z" fill="white"/>
<path id="Vector_45" d="M114.647 74.4742H113.452L113.253 73.4112H111.793L111.594 74.4742H110.531L111.726 68.7607H113.452L114.647 74.4742ZM111.992 72.6804H113.12L112.589 69.7573L111.992 72.6804Z" fill="white"/>
<path id="Vector_46" d="M116.705 72.2154L116.373 72.7469V74.4742H115.178V68.7607H116.373V71.2189L117.9 68.7607H119.029L117.436 71.2853L119.029 74.4742H117.834L116.705 72.2154Z" fill="white"/>
<path id="Vector_47" d="M120.755 71.1524H122.348V71.9497H120.755V73.677H122.746V74.4742H119.56V68.7607H122.746V69.558H120.755V71.1524Z" fill="white"/>
<path id="Vector_48" d="M125.535 71.219H123.41V72.0162H125.535V71.219Z" fill="white"/>
<path id="Vector_49" d="M127.393 68.7607V73.2119C127.393 73.6105 127.659 73.7434 127.991 73.7434C128.389 73.7434 128.588 73.6105 128.588 73.2119V68.7607H129.717V73.1455C129.717 74.0756 129.119 74.6071 127.991 74.6071C126.862 74.6071 126.265 74.0756 126.265 73.1455V68.7607H127.393Z" fill="white"/>
<path id="Vector_50" d="M133.965 70.1559V70.8867C133.965 71.8168 133.368 72.2819 132.239 72.2819H131.708V74.4078H130.513V68.6943H132.239C133.434 68.7608 133.965 69.2258 133.965 70.1559ZM131.708 69.558V71.4846H132.239C132.638 71.4846 132.837 71.3518 132.837 70.9531V70.0895C132.837 69.6909 132.638 69.558 132.239 69.558H131.708Z" fill="white"/>
<path id="Vector_51" d="M54.104 84.3067H52.909L52.7099 83.2438H51.2494L51.0503 84.3067H49.9881L51.183 78.5933H52.909L54.104 84.3067ZM51.4486 82.513H52.5771L52.046 79.5898L51.4486 82.513Z" fill="white"/>
<path id="Vector_52" d="M55.6972 80.1877V84.3067H54.6351V78.5933H56.0955L57.2905 81.9815V78.5933H58.2863V84.3067H57.0913L55.6972 80.1877Z" fill="white"/>
<path id="Vector_53" d="M59.1493 78.5933H61.0081C62.203 78.5933 62.7341 79.1247 62.7341 79.9884V82.9116C62.7341 83.8417 62.1366 84.3067 61.0081 84.3067H59.1493V78.5933ZM60.3442 79.3905V83.5095H61.0081C61.4064 83.5095 61.6055 83.3766 61.6055 82.978V79.9884C61.6055 79.5898 61.4064 79.4569 61.0081 79.4569H60.3442V79.3905Z" fill="white"/>
<path id="Vector_54" d="M68.576 79.9884V80.7192C68.576 81.6493 67.9785 82.1144 66.85 82.1144H66.3189V84.2403H65.1239V78.5269H66.85C67.9785 78.5933 68.576 79.0583 68.576 79.9884ZM66.2525 79.3905V81.3172H66.7836C67.1819 81.3172 67.381 81.1843 67.381 80.7857V79.922C67.381 79.5234 67.1819 79.3905 66.7836 79.3905H66.2525Z" fill="white"/>
<path id="Vector_55" d="M70.3684 78.5933H69.1734V84.3067H70.3684V78.5933Z" fill="white"/>
<path id="Vector_56" d="M72.3599 80.9849H73.9532V81.7822H72.3599V83.5095H74.3515V84.3067H71.165V78.5933H74.3515V79.3905H72.3599V80.9849Z" fill="white"/>
<path id="Vector_57" d="M77.4716 84.3068C77.4052 84.1739 77.3388 84.041 77.3388 83.576V82.6459C77.3388 82.1144 77.1397 81.9151 76.6086 81.9151H76.2103V84.2403H75.0154V78.5269H76.7414C77.9363 78.5269 78.4674 78.9919 78.4674 79.8556V80.3206C78.4674 80.9185 78.2018 81.3171 77.7371 81.5165C78.3346 81.7158 78.5338 82.1144 78.5338 82.7123V83.576C78.5338 83.8417 78.5338 84.041 78.6665 84.2403H77.4716V84.3068ZM76.2103 79.3905V81.1843H76.675C77.1397 81.1843 77.4052 81.0514 77.4052 80.5864V79.9884C77.4052 79.5898 77.2061 79.3905 76.8078 79.3905H76.2103Z" fill="white"/>
<path id="Vector_58" d="M82.716 82.1808V82.9116C82.716 83.8417 82.1186 84.3732 80.99 84.3732C79.8615 84.3732 79.264 83.8417 79.264 82.9116V79.922C79.264 78.9919 79.8615 78.4604 80.99 78.4604C82.1186 78.4604 82.716 78.9919 82.716 79.922V80.4535H81.5875V79.8556C81.5875 79.457 81.3219 79.2577 80.99 79.2577C80.5917 79.2577 80.3926 79.3905 80.3926 79.8556V82.9781C80.3926 83.3767 80.5917 83.5096 80.99 83.5096C81.3883 83.5096 81.5875 83.3767 81.5875 82.9781V82.1808H82.716Z" fill="white"/>
<path id="Vector_59" d="M84.5748 78.5933H83.3799V84.3067H84.5748V78.5933Z" fill="white"/>
<path id="Vector_60" d="M86.4336 80.1877V84.3067H85.3715V78.5933H86.8319L88.0932 81.9815V78.5933H89.089V84.3067H87.8941L86.4336 80.1877Z" fill="white"/>
<path id="Vector_61" d="M91.6781 81.1179H93.3377V82.9116C93.3377 83.8417 92.7402 84.3732 91.6117 84.3732C90.4831 84.3732 89.8857 83.8417 89.8857 82.9116V79.922C89.8857 78.9919 90.4831 78.4604 91.6117 78.4604C92.7402 78.4604 93.3377 78.9919 93.3377 79.922V80.4535H92.2091V79.8556C92.2091 79.457 91.9436 79.2577 91.6117 79.2577C91.2134 79.2577 91.0142 79.3905 91.0142 79.8556V82.9781C91.0142 83.3767 91.2134 83.5096 91.6117 83.5096C92.01 83.5096 92.2091 83.3767 92.2091 82.9781V81.9151H91.6781V81.1179Z" fill="white"/>
<path id="Vector_62" d="M99.4451 84.3067H98.2502L98.051 83.2438H96.5906L96.3914 84.3067H95.3292L96.5242 78.5933H98.2502L99.4451 84.3067ZM96.7897 82.513H97.9183L97.3872 79.5898L96.7897 82.513Z" fill="white"/>
<path id="Vector_63" d="M102.432 84.3068C102.366 84.1739 102.3 84.041 102.3 83.576V82.6459C102.3 82.1144 102.101 81.9151 101.569 81.9151H101.171V84.2403H99.9762V78.5269H101.702C102.897 78.5269 103.428 78.9919 103.428 79.8556V80.3206C103.428 80.9185 103.163 81.3171 102.698 81.5165C103.295 81.7158 103.495 82.1144 103.495 82.7123V83.576C103.495 83.8417 103.495 84.041 103.627 84.2403H102.432V84.3068ZM101.171 79.3905V81.1843H101.636C102.101 81.1843 102.366 81.0514 102.366 80.5864V79.9884C102.366 79.5898 102.167 79.3905 101.769 79.3905H101.171Z" fill="white"/>
<path id="Vector_64" d="M103.893 78.5933H107.544V79.3905H106.283V84.3067H105.154V79.3905H103.893V78.5933Z" fill="white"/>
<path id="Vector_65" d="M109.204 78.5933H108.009V84.3067H109.204V78.5933Z" fill="white"/>
<path id="Vector_66" d="M111.594 78.5269C112.722 78.5269 113.32 79.0583 113.32 79.9884V80.1877H112.191V79.922C112.191 79.5234 111.992 79.3241 111.594 79.3241C111.195 79.3241 110.996 79.457 110.996 79.922C110.996 81.1178 113.253 81.3172 113.253 82.978C113.253 83.9081 112.656 84.4396 111.527 84.4396C110.399 84.4396 109.801 83.9081 109.801 82.978V82.6459H110.93V83.0445C110.93 83.4431 111.195 83.576 111.527 83.576C111.926 83.576 112.125 83.4431 112.125 83.0445C112.125 81.8486 109.868 81.6493 109.868 79.9884C109.868 79.0583 110.465 78.5269 111.594 78.5269Z" fill="white"/>
<path id="Vector_67" d="M113.652 78.5933H117.236V79.3905H116.041V84.3067H114.847V79.3905H113.652V78.5933Z" fill="white"/>
<path id="Vector_68" d="M119.361 78.5269C120.489 78.5269 121.087 79.0583 121.087 79.9884V80.1877H119.958V79.922C119.958 79.5234 119.759 79.3241 119.361 79.3241C118.962 79.3241 118.763 79.457 118.763 79.922C118.763 81.1178 121.02 81.3172 121.02 82.978C121.02 83.9081 120.423 84.4396 119.294 84.4396C118.166 84.4396 117.568 83.9081 117.568 82.978V82.6459H118.697V83.0445C118.697 83.4431 118.962 83.576 119.294 83.576C119.693 83.576 119.892 83.4431 119.892 83.0445C119.892 81.8486 117.635 81.6493 117.635 79.9884C117.635 79.0583 118.232 78.5269 119.361 78.5269Z" fill="white"/>
<path id="Vector_69" d="M49.8553 37.2039H53.0418V37.8682H49.8553V37.2039ZM51.0503 37.2039H51.8469V41.3893H51.0503V37.2039Z" fill="white"/>
<path id="Vector_70" d="M53.8384 41.3893L55.0998 37.2039H56.0292L57.2241 41.3893H56.3611L55.5645 38.2004H55.4981L54.7015 41.3893H53.8384ZM54.4359 39.8613H56.5602V40.5921H54.4359V39.8613Z" fill="white"/>
<path id="Vector_71" d="M58.0871 37.2039H61.2736V37.8682H58.0871V37.2039ZM59.282 37.2039H60.0787V41.3893H59.282V37.2039Z" fill="white"/>
<path id="Vector_72" d="M62.203 37.2039H65.3895V37.8682H62.203V37.2039ZM63.3979 37.2039H64.1945V41.3893H63.3979V37.2039Z" fill="white"/>
<path id="Vector_73" d="M67.9121 41.4558C66.85 41.4558 66.3189 40.725 66.3189 39.3298C66.3189 37.8682 66.85 37.1375 67.9121 37.1375C68.9743 37.1375 69.5054 37.8682 69.5054 39.3298C69.5054 40.725 68.9743 41.4558 67.9121 41.4558ZM67.9121 40.6585C68.4432 40.6585 68.7087 40.1935 68.7087 39.2634C68.7087 38.3333 68.4432 37.8018 67.9121 37.8018C67.381 37.8018 67.1155 38.2669 67.1155 39.2634C67.1155 40.2599 67.381 40.6585 67.9121 40.6585Z" fill="white"/>
<path id="Vector_74" d="M72.028 41.4558C70.9659 41.4558 70.4348 40.725 70.4348 39.3298C70.4348 37.8682 70.9659 37.1375 72.028 37.1375C73.0902 37.1375 73.6213 37.8682 73.6213 39.3298C73.6213 40.725 73.0902 41.4558 72.028 41.4558ZM72.028 40.6585C72.5591 40.6585 72.8246 40.1935 72.8246 39.2634C72.8246 38.3333 72.5591 37.8018 72.028 37.8018C71.4969 37.8018 71.2314 38.2669 71.2314 39.2634C71.2314 40.2599 71.4969 40.6585 72.028 40.6585Z" fill="white"/>
<path id="Vector_75" d="M77.6044 38.9312H74.5507V39.6619H77.6044V38.9312Z" fill="white"/>
<path id="Vector_76" d="M78.5338 41.3893L79.7287 37.2039H80.6581L81.853 41.3893H80.99L80.1934 38.2004H80.127L79.3304 41.3893H78.5338ZM79.1312 39.8613H81.2556V40.5921H79.1312V39.8613Z" fill="white"/>
<path id="Vector_77" d="M84.1765 41.4558C83.911 41.4558 83.7118 41.4558 83.5127 41.3894C83.3135 41.323 83.1143 41.323 82.9152 41.1901L83.048 40.3929C83.2471 40.4593 83.5127 40.5257 83.7118 40.5922C83.911 40.6586 84.1101 40.6586 84.3093 40.6586C84.5084 40.6586 84.7076 40.5922 84.774 40.5257C84.9067 40.4593 84.9731 40.3264 84.9731 40.1935C84.9731 39.9942 84.8404 39.8614 84.6412 39.7285L84.0437 39.4628C83.7782 39.3299 83.5127 39.1306 83.3799 38.9313C83.2471 38.732 83.1143 38.4662 83.1143 38.2005C83.1143 37.8019 83.2471 37.5361 83.4463 37.3368C83.7118 37.1375 84.0437 37.0046 84.442 37.0046C84.7076 37.0046 84.9731 37.0711 85.1723 37.1375C85.3714 37.2039 85.637 37.3368 85.7698 37.5361L85.2387 38.134C85.1059 38.0012 84.9731 37.9347 84.8404 37.8019C84.7076 37.7354 84.5748 37.669 84.442 37.669C84.2429 37.669 84.1101 37.7354 84.0437 37.8019C83.9774 37.8683 83.911 38.0012 83.911 38.134C83.911 38.2005 83.9774 38.3333 84.0437 38.3998C84.1101 38.4662 84.1765 38.5327 84.3093 38.5991L84.9067 38.8648C85.1723 38.9977 85.4378 39.197 85.5706 39.3963C85.7034 39.5956 85.8361 39.7949 85.8361 40.0607C85.8361 40.4593 85.7034 40.725 85.4378 40.9243C85.0395 41.323 84.7076 41.4558 84.1765 41.4558Z" fill="white"/>
<path id="Vector_78" d="M88.2924 41.4558C88.0269 41.4558 87.8277 41.4558 87.6285 41.3894C87.4294 41.323 87.2302 41.323 87.0311 41.1901L87.1639 40.3929C87.363 40.4593 87.6285 40.5257 87.8277 40.5922C88.0269 40.6586 88.226 40.6586 88.4252 40.6586C88.6243 40.6586 88.8235 40.5922 88.8899 40.5257C89.0226 40.4593 89.089 40.3264 89.089 40.1935C89.089 39.9942 88.9562 39.8614 88.7571 39.7285L88.1596 39.4628C87.8941 39.3299 87.6285 39.1306 87.4958 38.9313C87.363 38.732 87.2302 38.4662 87.2302 38.2005C87.2302 37.8019 87.363 37.5361 87.5622 37.3368C87.8277 37.1375 88.1596 37.0046 88.5579 37.0046C88.8235 37.0046 89.089 37.0711 89.2882 37.1375C89.4873 37.2039 89.7529 37.3368 89.8856 37.5361L89.3546 38.134C89.2218 38.0012 89.089 37.9347 88.9563 37.8019C88.8235 37.7354 88.6907 37.669 88.5579 37.669C88.3588 37.669 88.226 37.7354 88.1596 37.8019C88.0932 37.8683 88.0269 38.0012 88.0269 38.134C88.0269 38.2005 88.0932 38.3333 88.1596 38.3998C88.226 38.4662 88.2924 38.5327 88.4252 38.5991L89.0226 38.8648C89.2882 38.9977 89.5537 39.197 89.6865 39.3963C89.8193 39.5956 89.952 39.7949 89.952 40.0607C89.952 40.4593 89.8193 40.725 89.5537 40.9243C89.1554 41.323 88.8235 41.4558 88.2924 41.4558Z" fill="white"/>
<path id="Vector_79" d="M92.5411 41.4558C91.4789 41.4558 90.9478 40.725 90.9478 39.3298C90.9478 37.8682 91.4789 37.1375 92.5411 37.1375C93.6032 37.1375 94.1343 37.8682 94.1343 39.3298C94.1343 40.725 93.6032 41.4558 92.5411 41.4558ZM92.5411 40.6585C93.0721 40.6585 93.3377 40.1935 93.3377 39.2634C93.3377 38.3333 93.0721 37.8018 92.5411 37.8018C92.01 37.8018 91.7444 38.2669 91.7444 39.2634C91.8108 40.2599 92.01 40.6585 92.5411 40.6585Z" fill="white"/>
<path id="Vector_80" d="M97.1217 41.4558C95.7939 41.4558 95.1301 40.725 95.1301 39.2634C95.1301 38.599 95.3293 38.0675 95.6612 37.6689C95.9931 37.2703 96.4578 37.1375 97.1217 37.1375C97.3872 37.1375 97.6527 37.2039 97.8519 37.2703C98.051 37.3368 98.2502 37.4696 98.3166 37.6689L97.8519 38.2669C97.7855 38.134 97.6527 38.0675 97.52 38.0011C97.3872 37.9347 97.2544 37.9347 97.0553 37.9347C96.7233 37.9347 96.4578 38.0675 96.2586 38.2669C96.0595 38.5326 95.9267 38.8648 95.9267 39.2634C95.9267 40.2599 96.325 40.725 97.188 40.725C97.4536 40.725 97.7855 40.6585 98.051 40.5257L98.1838 41.2565C97.8519 41.3893 97.4536 41.4558 97.1217 41.4558Z" fill="white"/>
<path id="Vector_81" d="M99.4451 37.2039H102.101V37.8682H99.4451V37.2039ZM99.4451 40.6585H102.101V41.3893H99.4451V40.6585ZM100.375 37.2039H101.171V41.3893H100.375V37.2039Z" fill="white"/>
<path id="Vector_82" d="M103.229 41.3893L104.424 37.2039H105.353L106.548 41.3893H105.685L104.889 38.2004L104.092 41.3893H103.229ZM103.827 39.8613H105.951V40.5921H103.827V39.8613Z" fill="white"/>
<path id="Vector_83" d="M107.411 37.2039H110.598V37.8682H107.411V37.2039ZM108.606 37.2039H109.403V41.3893H108.606V37.2039Z" fill="white"/>
<path id="Vector_84" d="M111.793 37.2039H114.448V37.8682H111.793V37.2039ZM111.793 40.6585H114.448V41.3893H111.793V40.6585ZM112.722 37.2039H113.519V41.3893H112.722V37.2039Z" fill="white"/>
<path id="Vector_85" d="M117.236 41.4558C116.174 41.4558 115.643 40.725 115.643 39.3298C115.643 37.8682 116.174 37.1375 117.236 37.1375C118.299 37.1375 118.83 37.8682 118.83 39.3298C118.83 40.725 118.299 41.4558 117.236 41.4558ZM117.236 40.6585C117.767 40.6585 118.033 40.1935 118.033 39.2634C118.033 38.3333 117.767 37.8018 117.236 37.8018C116.705 37.8018 116.44 38.2669 116.44 39.2634C116.44 40.2599 116.705 40.6585 117.236 40.6585Z" fill="white"/>
<path id="Vector_86" d="M119.958 37.2039H120.688V41.3893H119.958V37.2039ZM121.551 41.3893L120.821 38.134H120.489V37.2039H121.153L121.883 40.4592H122.082V41.3893H121.551ZM121.95 37.2039H122.68V41.3893H121.95V37.2039Z" fill="white"/>
<path id="Vector_87" d="M56.2283 4.05249L59.614 15.0808L57.4233 15.7452L50.8511 9.63308C50.9175 9.83239 50.9839 9.96526 50.9839 10.0317C51.0503 10.231 51.1167 10.3639 51.183 10.4967L53.241 17.0739L51.2494 17.6718L47.7974 6.70991L50.5856 5.84625L56.3611 11.1611C56.2283 10.8289 56.1619 10.6296 56.0956 10.4303L54.3032 4.65041L56.2283 4.05249Z" fill="white"/>
<path id="Vector_88" d="M64.8584 2.19238L70.7003 12.7556L67.8457 13.3536L66.6508 11.1612L63.066 11.892L62.8005 14.3501L60.477 14.8151L61.8047 2.7903L64.8584 2.19238ZM63.2652 9.63317L65.655 9.16812L63.6635 5.44773L63.2652 9.63317Z" fill="white"/>
<path id="Vector_89" d="M76.7414 0.531494L77.0069 2.7903L74.1523 3.12248L75.2809 12.2906L72.5591 12.6228L71.4305 3.45466L68.576 3.78684L68.3104 1.52803L76.7414 0.531494Z" fill="white"/>
<path id="Vector_90" d="M81.116 0.262014L78.3988 0.420166L79.0656 11.894L81.7828 11.7358L81.116 0.262014Z" fill="white"/>
<path id="Vector_91" d="M88.1596 11.892C86.6328 11.892 85.4378 11.294 84.5748 10.0982C83.7782 8.90237 83.3135 7.50722 83.3799 5.84633C83.3799 4.18544 83.8446 2.79029 84.7076 1.66089C85.5706 0.531485 86.8319 0 88.4252 0C90.0184 0 91.2134 0.664356 92.01 1.8602C92.8066 3.05604 93.2049 4.45118 93.1385 5.9792C93.1385 7.64009 92.6738 9.03524 91.8108 10.1646C91.0142 11.3605 89.7529 11.892 88.1596 11.892ZM88.4252 2.19237C87.0311 2.19237 86.3008 3.38821 86.2344 5.91277C86.1681 8.37088 86.8983 9.63316 88.2924 9.6996C89.6865 9.6996 90.3503 8.50376 90.4167 5.9792C90.4167 3.45465 89.7529 2.19237 88.4252 2.19237Z" fill="white"/>
<path id="Vector_92" d="M104.756 1.46162L103.428 12.8885L101.171 12.6228L97.5863 4.38479C97.5863 4.58409 97.5863 4.71697 97.5863 4.7834C97.5863 4.98271 97.5863 5.11558 97.5863 5.31489L96.7897 12.1577L94.7318 11.892L96.0595 0.465088L98.914 0.797266L102.034 7.97231C102.034 7.64013 102.034 7.37439 102.101 7.17508L102.764 1.19588L104.756 1.46162Z" fill="white"/>
<path id="Vector_93" d="M113.386 3.25539L114.448 15.2802L111.594 14.6823L111.394 12.2242L107.743 11.427L106.548 13.6193L104.225 13.0879L110.332 2.65747L113.386 3.25539ZM108.872 9.4339L111.262 9.96538L110.93 5.77994L108.872 9.4339Z" fill="white"/>
<path id="Vector_94" d="M118.697 14.2171L123.012 15.6123L122.348 17.8047L115.378 15.6123L118.83 4.58398L121.419 5.44765L118.697 14.2171Z" fill="white"/>
<path id="Vector_95" d="M162.976 42.5853C152.752 30.2283 139.675 20.3958 124.672 14.1509" stroke="white" stroke-width="2" stroke-miterlimit="10"/>
<path id="Vector_96" d="M47.7974 14.1509C32.7943 20.4623 19.7164 30.2947 9.4931 42.5853" stroke="white" stroke-width="2" stroke-miterlimit="10"/>
</g>
</g>
<defs>
<clipPath id="clip0_10_113">
<rect width="173" height="115" fill="white"/>
</clipPath>
</defs>
</svg>
